<?xml version="1.0" encoding="utf-8"?>
<!-- Generator: Adobe Illustrator 25.4.1, SVG Export Plug-In . SVG Version: 6.00 Build 0)  -->
<svg version="1.1" id="圖層_1" xmlns="http://www.w3.org/2000/svg" xmlns:xlink="http://www.w3.org/1999/xlink" x="0px" y="0px"
	 viewBox="0 0 297.6 68" style="enable-background:new 0 0 297.6 68;" xml:space="preserve">
<style type="text/css">
	.st0{fill:#FFFFFF;}
	.st1{fill:#9E9E9F;}
	.st2{fill:#E6CB53;}
</style>
<g>
	<g>
		<g>
			<path class="st0" d="M124.8,54.5c0-0.9,0-29,0-29.9c-0.8,0-6.5,0-7.3,0c0,0.9,0,29,0,29.9C118.3,54.5,124.1,54.5,124.8,54.5z"/>
			<path class="st0" d="M124.8,19.7c0-0.8,0-5.8,0-6.6c-0.8,0-6.5,0-7.3,0c0,0.8,0,5.8,0,6.6C118.3,19.7,124.1,19.7,124.8,19.7z"/>
		</g>
		<path class="st0" d="M147.9,49.6c-0.1,0-0.3,0-0.3,0l-0.8,0c-2.4,0-3-0.3-3.3-0.6c-0.4-0.4-0.6-1.3-0.6-2.7v-17c0,0,4.3,0,5.1,0
			c0-0.7,0-4.1,0-4.8c-0.8,0-5.1,0-5.1,0s0-10.6,0-11.5c-0.8,0-6.4,0-7.2,0c0,0.8,0,11.5,0,11.5s-5.7,0-6.5,0c0,0.7,0,4.1,0,4.8
			c0.8,0,6.5,0,6.5,0V49c0,1.8,0.4,3.2,1.2,4c1.3,1.4,3.9,2,7.6,1.9c0,0,2.8-0.2,3.4-0.2C147.9,54,147.9,50.4,147.9,49.6z"/>
		<path class="st0" d="M110.4,48.7c1.2-1.9,1.8-4.1,1.8-6.5c0-2.3-0.5-4.3-1.6-5.9c-1-1.6-2.6-2.8-4.6-3.5l-1-0.4l0.9-0.5
			c1.3-0.7,2.4-1.5,3.1-2.3c1.2-1.5,1.8-3.4,1.8-5.9c0-2.4-0.6-4.4-1.8-6.1c-2-2.8-5.6-4.2-10.5-4.3c0,0-17.2,0-18.1,0
			c0,0.9,0,40.3,0,41.1c0.9,0,16.8,0,16.8,0c2.1,0,4.1-0.2,5.8-0.6c1.8-0.4,3.3-1.1,4.6-2C108.7,51,109.6,50,110.4,48.7z M87.8,19.7
			h0.5h7.4c2,0,3.8,0.2,5.1,0.7c1.7,0.7,2.5,2.1,2.5,4.3c0,1.9-0.6,3.3-1.9,4.1c-1.2,0.7-2.8,1.1-4.7,1.1h-8.9V19.7z M101.2,47.3
			c-1.1,0.5-2.6,0.8-4.5,0.8h-8.9V35.9h0.5h8.6c1.9,0,3.3,0.3,4.4,0.8c2,0.9,2.9,2.6,2.9,4.9C104.2,44.4,103.2,46.3,101.2,47.3z"/>
		<path class="st0" d="M61,23.9c-8.3,0-15,6.7-15,15c0,8.3,6.7,15,15,15c5.9,0,11.3-3.6,13.7-9c-1.2,0-6.9,0-7.2,0
			c-1.7,1.8-4,2.8-6.4,2.8c-3.4,0-6.6-2-8-5.1L52.6,42c0,0,22.4,0,23,0C75.8,41,76,40,76,39C76,30.7,69.2,23.9,61,23.9z M52.6,35.9
			l0.3-0.7c1.5-3.1,4.6-5.1,8-5.1c3.4,0,6.6,2,8,5.1l0.3,0.7H52.6z"/>
		<path class="st0" d="M27.4,23.9c-3.5,0-6.7,1.2-9.4,3.3l-0.8,0.6c0,0,0-13.2,0-14c-0.7,0-5.4,0-6.1,0c0,0.9,0,39.6,0,40.4
			c0.7,0,5.4,0,6.1,0c0-0.7,0-4.3,0-4.3l0.8,0.6c2.7,2.2,6,3.3,9.4,3.3c8.3,0,15-6.7,15-15C42.4,30.7,35.7,23.9,27.4,23.9z
			 M27.4,47.8c-4.9,0-8.9-4-8.9-8.9c0-4.9,4-8.9,8.9-8.9c4.9,0,8.9,4,8.9,8.9C36.3,43.8,32.3,47.8,27.4,47.8z"/>
	</g>
	<g>
		<g>
			<path class="st1" d="M170.8,54h-8.4v-33h-10.8v-7.1h30v7.1h-10.8V54z"/>
			<path class="st1" d="M208.1,54h-22.9V13.9h22.9v7h-14.5v8.8H207v7h-13.4v10.3h14.5V54z"/>
		</g>
		<g>
			<path class="st1" d="M286.5,54h-8.4V36.7h-15.7V54H254V13.9h8.4v15.7h15.7V13.9h8.4V54z"/>
		</g>
		<g>
			<path class="st1" d="M240.4,40.6c-2.1,3.1-5.6,5.1-9.7,5.1c-6.5,0-11.7-5.3-11.7-11.8c0-6.5,5.3-11.8,11.7-11.8
				c2.4,0,4.7,0.7,6.6,2h10.6c-3.4-6.1-9.8-10.2-17.3-10.2c-11,0-19.9,9-19.9,20s8.9,20,19.9,20c8.7,0,16-5.6,18.7-13.4H240.4z"/>
			<g>
				<path class="st2" d="M230.7,45.7c-6.5,0-11.7-5.3-11.8-11.8h-8.2c0,11.1,8.9,20,19.9,20c11,0,19.9-9,19.9-20h-8.1
					C242.4,40.4,237.2,45.7,230.7,45.7z"/>
			</g>
		</g>
	</g>
</g>
</svg>
