<?xml version="1.0" encoding="utf-8"?>
<!-- Generator: Adobe Illustrator 24.3.0, SVG Export Plug-In . SVG Version: 6.00 Build 0)  -->
<svg version="1.1" id="圖層_1" xmlns="http://www.w3.org/2000/svg" xmlns:xlink="http://www.w3.org/1999/xlink" x="0px" y="0px"
	 viewBox="0 0 970 420" style="enable-background:new 0 0 970 420;" xml:space="preserve">
<g>
	<path d="M589.6,172.7c2.4-0.6,3.6-0.6,4.7-1.7l0,0c-8.3-4.7-16.1-8.9-24.3-13.6c-1.3,5.9-3.4,11.7-5.9,17.2
		c-5.3,13.6-10.6,26.1-17.8,37.9c-3.6,5.9-8.3,15.4-13.6,19.5c4.9,9.5,8.9,19.4,11.9,29.7l0,0c3-3,10-12.5,11.3-16
		c0.3,0,0.6-0.2,0.6-0.6l0,0v93.1l23.1-3.6V211.2c3-0.6,3.6-1.2,4.7-3c-2.4-0.6-4.2-1.7-6.5-2.4
		C579.5,194.6,587.9,183.9,589.6,172.7z M519.7,281.8c1.2-3.6,1.7-7.2,3-10.1c1.7-7.7,3-15.4,4.7-23.1c1.2-8.3,1.7-17.2,3-25.5
		c1.2-0.6,4.2,0,5.9,0v-21.4c-8.3-0.6-16.6-1.7-25-2.4c-0.6-0.6,0-3.6,0-4.7c0.5-5.6,1.3-11.1,2.4-16.6c1.2-0.6,2.4-0.6,3-1.2v-1.2
		c-6.5-3-13.1-5.3-19.5-8.3c0,16-3.6,35.6-7.2,49.2c-1.7,6.5-2.4,13.6-5.3,19v-1.7c-8.3,0-16.6-0.6-25.5-0.6V229
		c7.7,0,15.4,0.6,23.1,0.6v-18.4c3,0,5.9,0.6,8.9,0.6v-17.2c-3-0.6-5.3-0.6-8.3-1.2V175c-7.7-1.2-15.4-2.4-23.1-3
		c0-7.7,1.2-3.6,4.2-7.7v-0.6c-7.7-1.7-14.8-3.6-22.5-5.3l0,0V169c-8.3-1.2-17.2-2.4-25.5-3.6v20.1c-3.6-0.6-7.2-0.6-10.6-1.2v20.1
		l0,0c3.6,0.6,7.2,0.6,10.6,1.2v20.8c8.3,0.6,16.6,0.6,25.5,1.2l0,0v3.6c-9.5,0-18.9-0.6-29-0.6v39.2c7.2,0,14.8-0.6,22-0.6
		c-0.6,1.7-1.7,3.6-2.4,5.3c-9.5,0.6-19,1.2-27.8,1.7l5.3,23.1c2.4,0,3-1.2,3.6-3c3-0.6,5.9-0.6,8.9-1.2c-2.4,4.7-4.7,8.9-7.2,13.6
		l19.5,3.6c0-0.6,0-0.6,0.6-1.2c1.2,0.6,2.4,0.6,4.2,1.2c-3.6,3-22,8.3-28.4,8.9l0,0c3.6,5.3,8.3,13.1,8.3,20.1
		c10.1-1.2,35.6-14.2,40.3-19.5c6.5,1.2,10.1,7.2,15.4,8.9c3.6-4.7,6.5-9.5,10.1-14.8c0.3,0,0.6-0.2,0.6-0.6l0,0
		c2.4,4.2,5.3,8.9,6.5,13.6h0.6c6.5-8.3,16.6-14.8,20.1-25l0,0l5.3,8.9c3,3.6,6.5,6.5,9.5,10.1h0.6c3.6-7.2,6.5-13.6,10.6-19.5
		C530.3,299.5,521.4,288.9,519.7,281.8z M458,187.5c1.7,0,3.6,0.6,5.3,0.6v4.2c-1.8,0.1-3.6-0.1-5.3-0.6V187.5z M458,207
		c1.8-0.1,3.6,0.1,5.3,0.6v4.2H458V207z M439,252.8h-8.9v-5.3h8.3C438.9,249.2,439.1,250.9,439,252.8L439,252.8z M438.5,210.6
		c-1.8,0.1-3.6-0.1-5.3-0.6v-4.1l0,0c1.8-0.1,3.6,0.1,5.3,0.6l0,0C439,207.7,439,209.3,438.5,210.6L438.5,210.6z M439,189.9
		c-1.7,0-4.2-0.6-5.9-0.6v-4.7c1.7,0,3.6,0.6,5.3,0.6l0,0C439,185.7,439,189.9,439,189.9L439,189.9z M458,247.4h8.3v4.7H458V247.4z
		 M457.4,290.7c-1.2,2.4-2.4,4.7-3.6,7.2c-4.2-1.2-8.3-3-12.5-4.2v-0.6c1.7-1.7,11.3-1.2,14.2-2.4H457.4z M498.9,288.3
		c-4.7,8.3-10.6,16.6-18.9,22c-3-1.7-6.5-3.6-9.5-5.3c1.2-2.3,2.3-4.7,3-7.2c1.2-3.6,2.4-7.2,3.6-10.6c3.6-0.6,7.7-1.2,11.3-1.7
		c1.2-1.2,1.2-12.5,0.6-15.4c-13.1,0.6-25.5,1.7-38.6,2.4l1.7-3.6c7.7-2.4,20.8-2.4,30.8-2.4v-14.2c3,1.7,5.9,7.7,7.2,10.6h0.6
		c1.2-2.4,2.4-5.3,4.2-7.7h0.6c1.2,7.2,3,13.6,4.2,20.8c0.5,2.5,1.3,4.9,2.4,7.2C500.6,284.7,499.6,286.4,498.9,288.3L498.9,288.3z
		 M510.8,252.1L510.8,252.1c-2.5-10.1-4.1-20.5-4.7-30.9c3-0.1,5.9,0.1,8.9,0.6C514.4,231.9,511.4,242,510.8,252.1L510.8,252.1z
		 M852.4,209.5c-0.6-3,7.7-19.5,9.5-23.7c0.6-2.4,1.7-5.3,2.4-7.7c1.5,0.3,3.1-0.1,4.2-1.2v-0.6c-8.3-4.7-16.1-8.9-24.3-13.6
		c-1.1,4-2.5,8-4.2,11.9c-3.2,9-6.9,17.7-11.3,26.1c-4.6,9.5-10,18.6-16.1,27.3c-2.4,3-5.3,6.5-7.7,9.5c-0.6,1.2,2.4,5.9,3,7.2
		c2.4,5.3,8.3,16.1,8.9,22l0,0c5.9-4.2,8.9-12.5,13.6-18.4v89c7.7-1.2,14.8-2.4,22.5-3V214.7c2.4-0.6,4.2-1.2,4.2-3.6
		C856.5,210.6,854.1,210,852.4,209.5L852.4,209.5z M675,163.2c0.6,51.5,1.7,103.8,2.4,155.4c7.2-0.6,14.2-1.7,20.8-2.4V299
		c9.5-0.6,19-1.7,27.9-2.4V170.3C709.4,167.9,692.2,165.5,675,163.2z M697.5,191.6c3,0,5.9,0.6,8.9,0.6v29c-3,0.1-5.9-0.1-8.9-0.6
		V191.6z M698.7,275.9c0-10.1-0.6-20.1-0.6-30.3h8.9v29.7C704.3,275.2,701.5,275.4,698.7,275.9L698.7,275.9z M775.2,205.8
		c7.2,0.6,14.8,1.2,22,1.7c0-6.5,0-13.6,0.6-20.1c-7.2-0.6-14.8-1.7-22-2.4v-11.9c1.7-0.6,3-1.2,3.6-2.4c-0.6-1.2-18.4-5.3-21.4-5.9
		v17.8c-8.3-1.2-16.6-1.7-25-3v22.5c8.3,0.6,16.1,1.2,24.3,1.7c0.6,0.6,0,9.5,0,11.9l-28.4-1.7v23.1c14.2,0,29,0.6,43.3,0.6V249
		h-42.7v22.5c14.2-0.6,28.4-1.1,42.8-2.4v23.2c-0.6,3,0.6,6.5-0.6,8.9c-1.2,1.2-11.9,2.4-15.4,2.4c1.7,6.5,4.7,13.1,5.3,21.4
		c10-1.2,18.9-4.2,23.1-10.1c4.7-7.7,3.6-33.8,3.6-45.6c3.6,0,6.5-0.6,10-0.6c0-6.5,0.6-13.1,0.6-19.5h-10v-6.5c1.7-0.6,3-1.2,3-3.6
		c-2.8,0.1-5.5-0.1-8.3-0.6h14.8c0-6.5,0.6-13.1,0.6-20.1c-8.3-0.6-16.1-1.2-24.3-1.7L775.2,205.8L775.2,205.8z M589,215.9
		c26.1,1.2,52.2,3,78.2,4.2v-21.4c-9.5-1.2-19-1.7-27.9-3v-22.5c1.7-1.2,2.4-0.6,3.6-2.4v-0.6l-22.5-4.7v29
		c-10.6-1.2-20.8-1.7-31.4-3L589,215.9L589,215.9z M928.9,280c-1.7-1.8-3.4-3.8-4.7-5.9v-0.6c0,3.6-0.6,7.2-0.6,10.6
		c-1.2,5.3-1.2,11.3-3,15.4c-0.3,0-0.6,0.2-0.6,0.6l0,0c-4.7-0.6-5.9-9.5-7.2-13.6c-4-14.9-6.3-30.3-7.2-45.6
		c10-1.2,20.1-2.4,30.3-3c-0.6-7.2-0.6-14.2-1.2-21.4l0,0l-30.3,1.7c0-13.6-0.6-26.7-0.6-40.3c1.2,0,1.7-0.6,3-0.6
		c0.6-0.6,0.6-1.2,1.2-1.7v-1.2c-7.7-1.7-16.1-3.6-23.7-5.3c0,17.2,1.2,33.8,1.2,49.8l-26.7,1.7c0.6,8.3,1.2,16.6,2.4,25
		c8.9-1.2,17.8-1.7,26.7-3l0,0c0.1,8.4,1,16.8,3,25c3,14.2,4.2,27.8,9.5,39.7c3,7.2,6.5,16.1,16.1,17.2c2,0,4.1-0.4,5.9-1.2
		c11.3-3.6,11.9-15.4,14.2-26.7c0.6-3.6,0.6-7.2,1.2-10.6C934.7,284.2,931.3,282.3,928.9,280L928.9,280z M923.5,213.6
		c3.5-3.1,7.3-5.8,11.3-8.3l2.4-1.7c-0.6-1.7-1.7-3.6-2.4-5.3c-2.4-5.9-5.9-11.3-8.9-16.6c-1.2-1.7-2.4-5.3-4.2-6.5
		c-4.2,3-8.3,5.9-12.5,8.3l-0.6,0.6c1.7,1.7,3,5.3,4.7,7.7C916.4,198.1,921.1,205.3,923.5,213.6L923.5,213.6z M624.6,288.2
		c-0.1-9.9-1-19.8-3-29.7c-1.2-6.5-1.7-13.6-3-20.1c-1.2-5.3-1.7-10.6-3-15.4h-1.2l-17.8,3.6c2.4,8.9,2.4,18.4,4.2,27.3
		c2.5,13.5,3.6,27.2,3.6,40.9C611.3,293,618.1,290.8,624.6,288.2z M636.5,272.9c-1.2,5.1-2.3,10.2-3,15.4c5.3,1.7,10.6,3,16.1,4.7
		c1.7-7.7,3.6-16,5.3-23.7l3.6-21.4c0.6-4.7,1.2-9.5,1.7-14.2c1.7-0.6,3-1.1,3.6-2.4c-7.2-2.4-13.6-4.7-20.8-7.7
		c-0.6,7.7-1.7,15.4-2.4,22.5C638.8,255.1,637.7,264,636.5,272.9L636.5,272.9z M748.6,271.1c-5.3,4.2-10.1,8.3-15.4,12.5
		c5.3,8.3,11.3,16.6,14.2,26.7c5.3-4.7,10.6-8.9,15.4-13.6C761.6,290.7,752.7,274.6,748.6,271.1L748.6,271.1z M586.7,326.2
		c27.8-3.6,55.1-7.7,83.1-11.3v-22c-27.8,2.4-55.1,5.3-83.1,7.7V326.2z"/>
	<path d="M100.4,188.1h-6.5v24.3c1.7,0.6,3.6,0.6,6.5,0.6c8.3,0,16.1-3,16.1-12.5C115.8,191.6,108.1,188.1,100.4,188.1z M114,172.1
		L114,172.1c0-7.1-5.3-10.1-13.6-10.1c-3.6,0-5.3,0-6.5,0.6v20.8h7.2C108.7,183.3,114,178.6,114,172.1z M286,178.6
		c-7.7,0-11.3,7.7-11.9,13.6h23.1C297.2,186.3,294.9,178.6,286,178.6L286,178.6z M347.6,185.1c0,3.6,2.4,5.3,8.3,7.7
		c5.3,2.4,8.9,4.7,10.1,8.9l-5.9-22c-1.6-0.8-3.5-1.2-5.3-1.2C350.1,178.6,347.6,181.6,347.6,185.1L347.6,185.1z M366.7,203.6v2.4
		c0,7.7-5.9,13.1-15.4,13.1c-4,0-7.8-1-11.3-3l1.7-5.3c2.4,1.2,5.9,3,9.5,3c5.9,0,8.9-3,8.9-7.2s-2.4-6.5-8.3-8.3
		c-7.2-3-11.3-7.2-11.3-12.5c0-6.5,5.3-12.5,14.2-12.5h3L315.1,10.8L32.2,86.6L87.3,293v-67.6H114l19,36.2c4.7,8.9,11.3,22,14.8,32
		l0,0c-1.2-11.9-2.4-27.8-2.4-44.5v-23.7H168v101.4h-25l-18.4-36.7c-5.3-9.5-11.3-23.1-15.4-33.2h-0.6c0.6,11.9,1.2,27.3,1.2,45.1
		v25H96.2l16,58.7l224.8-60c-11.3-5.3-11.9-18.4-11.9-25v-30.8h-10v-16l-22.5,35l23.1,37.9h-27.9l-6.5-13.1
		c-1.9-3.6-3.5-7.4-4.7-11.3H276c-1.3,3.9-2.9,7.6-4.7,11.3l-5.9,13.1h-26.7l22.5-37.3l-22.5-36.7H267l5.9,12.5l5.3,11.3h0.6
		c1.7-3.6,3-7.7,4.7-11.9l5.3-11.9H325v-13.6l24.9-6.5v20.1h16.6v16.5H350v27.8c0,8.9,3,11.9,8.9,11.9c2.1,0.1,4.4-0.1,6.5-0.6v8.9
		l29.7-7.7L366.7,203.6z M118.1,212.5c-4.2,4.2-10.6,5.9-19.5,5.9c-4.7,0-8.9-0.6-11.3-0.6v-59.3c4.3-0.7,8.7-1.1,13.1-1.2
		c7.7,0,12.5,1.2,16.1,4.2c3,2.4,4.7,5.9,4.7,10.6c-0.1,6.1-4.2,11.4-10.1,13.1l0,0c7.5,1.3,12.8,7.9,12.5,15.4
		C122.9,205.8,121.2,210,118.1,212.5L118.1,212.5z M159,217.8l-0.6-6.5l0,0c-2.8,4.9-8,7.9-13.6,7.7c-6.5,0-14.2-3.6-14.2-18.4V175
		h6.5v24.3c0,8.3,2.4,14.2,9.5,14.2c6.3-0.1,11.4-5.2,11.3-11.6c0-0.1,0-0.2,0-0.3V175h6.5v31.4c-0.1,3.8,0.1,7.6,0.6,11.3
		L159,217.8z M210.7,157.8c2.3-0.1,4.1,1.7,4.2,4v0.1c0,3-1.7,4.7-4.2,4.7s-4.2-1.7-4.2-4.7C206.6,159.7,208.4,157.8,210.7,157.8
		L210.7,157.8z M214.3,174.4v43.3h-6.5v-43.3H214.3z M185.2,198.1c-7.2-3-11.3-7.2-11.3-12.5c0-6.5,5.3-12.5,14.2-12.5
		c3.5,0,7,0.8,10.1,2.4l-1.8,4.8c-2.5-1.5-5.3-2.4-8.3-2.4c-4.7,0-7.2,3-7.2,6.5s2.4,5.3,8.3,7.7c7.2,3,11.3,6.5,11.3,13.1
		c0,7.7-5.9,13.1-15.4,13.1c-4,0-7.8-1-11.3-3l1.7-5.3c2.4,1.2,5.9,3,9.5,3c5.9,0,8.9-3,8.9-7.2
		C192.9,202.3,190.5,199.9,185.2,198.1z M241,288.2c0,3.6,0,7.2-0.6,9.5h-45.1c0.6,8.9,8.9,13.1,19.5,13.1c6.4,0,12.9-1,19-3
		l3.6,16.1c-7.2,3-17.2,4.2-26.7,4.2c-25.5,0-39.8-13.6-39.8-36.8c0-21.4,13.6-39.7,37.3-39.7C227.9,251.5,241,263.4,241,288.2
		L241,288.2z M260,217.7h-6.5v-25.5c0-7.2-2.4-13.1-10.1-13.1c-5.3,0-11.3,4.7-11.3,12.5v26.7h-6.5v-32c0.1-3.8-0.1-7.6-0.6-11.3
		h5.9l0.6,7.2l0,0c2.8-5,8-8.2,13.6-8.3c5.3,0,14.8,3,14.8,17.8L260,217.7z M303.2,196.9h-29.7c0,11.9,7.2,16.6,14.8,16.6
		c3.9,0.1,7.8-0.7,11.3-2.4l1.1,4.7c-4.3,2-8.9,3.1-13.6,3c-12.5,0-20.1-8.9-20.1-21.9c0-13.6,7.7-23.1,18.9-23.1
		c13.1,0,16.6,12.5,16.6,19.5C303.8,194.6,303.2,195.8,303.2,196.9L303.2,196.9z M319.8,218.3c-4,0-7.8-1-11.3-3l1.7-5.3
		c2.4,1.2,5.9,3,9.5,3c5.9,0,8.9-3,8.9-7.2s-2.4-6.5-8.3-8.3c-7.2-3-11.3-7.2-11.3-12.5c0-6.5,5.3-12.5,14.2-12.5
		c3.5,0,7,0.8,10.1,2.4l-1.7,4.7c-2.5-1.5-5.3-2.4-8.3-2.4c-4.7,0-7.2,3-7.2,6.5s2.4,5.3,8.3,7.7c7.2,3,11.3,6.5,11.3,13.1
		C335.3,213.6,329.3,218.3,319.8,218.3L319.8,218.3z M207.1,267.5c-8.3,0-11.9,8.9-12.5,14.8h23.1
		C218.4,275.9,216,267.5,207.1,267.5z"/>
	<path d="M120,398.6l3,5.3c0.4,1,1,2,1.7,3l0,0v-9.5l1.7-0.6l3,4.7l1.7,3.6l0,0v-9.5l1.7-0.6l-0.6,11.9l-1.7,0.6l-3-4.7l-1.6-3.5
		l0,0v4.1l-0.6,5.3l-1.2,0.6l-5.9-10.1L120,398.6z"/>
	<path d="M136,394.4l3,5.3c0.4,1,1,2,1.7,3l0,0v-9.5l1.7-0.6l3,4.7l1.7,3.6l0,0v-9.5l1.7-0.6l-0.6,11.9l-1.7,0.6l-3-4.7l-1.7-3.6
		l0,0v4.2l-0.6,5.3l-1.7,0.6l-5.9-10.1L136,394.4z"/>
	<path d="M152,389.7l3,5.3c0.4,1,1,2,1.7,3l0,0v-3.6l0.6-5.9l1.7-0.6l3,4.7l1.7,3.6l0,0v-9.5l1.7-0.6l-0.6,11.9l-1.7,0.6l-3-4.7
		l-1.7-3.6l0,0v3.6l-0.6,5.9l-1.7,0.6l-5.9-10.1L152,389.7z"/>
	<path d="M170.4,396.8c-0.6,0-1.2,0-1.7-1.2c0-0.6,0-1.7,1.2-1.7c0.6,0,1.2,0,1.7,1.2C171.5,396.3,171,396.8,170.4,396.8z"/>
	<path d="M169.2,379.6l1.7-0.6l1.7,6.5l0,0c0.7-2.4,3.3-3.7,5.7-3c1.8,0.6,3.1,2.3,3.2,4.2c1.2,4.2-1.2,6.5-3.6,7.2
		c-1.5,0.5-3.2,0.1-4.2-1.2l0,0l0.6,1.7l-1.7,0.6c-0.3-1-0.4-1.9-0.6-3L169.2,379.6z M174.5,390.8v0.6c0.6,1.2,2.4,1.7,3.6,1.7
		c1.8-0.6,3-2.4,2.4-5.3c-0.6-2.4-2.4-3.6-4.2-3c-1.1,0.6-2.4,1.7-2.4,3v0.6L174.5,390.8z"/>
	<path d="M183.4,384.4c-0.5-0.9-0.7-1.9-0.6-3l1.7-0.6l0.6,1.7l0,0c0-1.2,1.2-2.4,3-3s4.2,0,5.3,3.6l1.7,6.5l-1.7,0.6l-1.7-6.5
		c-0.6-1.7-1.7-3-3.6-2.4c-1.1,0.7-1.9,1.7-2.4,3v1.2l1.7,6.5l-1.7,0.6L183.4,384.4z"/>
	<path d="M197.6,383.8c0.4,2.1,2.6,3.5,4.6,3h0.1c1.2-0.6,2.4-0.6,3-1.2l0.6,1.2c-1,0.8-2.3,1.4-3.6,1.7c-3.6,1.2-5.9-0.6-6.5-4.2
		s0.6-6.5,3.6-7.2c3.6-1.2,5.3,1.7,5.9,4.2v1.1L197.6,383.8z M203,380.8c-0.6-1.2-1.2-3-3.6-2.4c-1.7,0.6-2.4,2.4-2.4,4.2L203,380.8
		z"/>
	<path d="M206,375.5l2.4,1.7c0.6,0.6,1.2,1.2,1.7,1.2l0,0c0-0.6,0.6-1.2,0.6-2.4l1.2-3l1.7,0.6l-2.4,5.9l5.3,4.7l-2.4,0.6l-2.4-1.7
		l-1.7-1.7l0,0c0,0.6-0.6,1.2-0.6,2.4l-1.2,3l-2.4,0.6l2.4-6.5l-5.3-4.2L206,375.5z"/>
	<path d="M217.2,369.6l0.6,2.4l3-0.6l0.6,1.7l-3,0.6l1.7,5.9c0.6,1.2,1.2,1.7,1.7,1.7s0.6,0,1.2-0.6l0.6,1.2c-0.6,0-1.2,0.6-1.7,0.6
		h-2.4c-0.7-0.7-1.3-1.4-1.7-2.4l-1.7-5.9l-1.7,0.6l-0.6-1.7l1.7-0.6l-0.6-1.7L217.2,369.6z"/>
	<path d="M226.1,381.9c-0.6,0-1.2,0-1.7-1.2c0-0.6,0-1.7,1.2-1.7c0.6,0,1.2,0,1.7,1.2C227.4,380.8,226.7,381.9,226.1,381.9z"/>
	<path d="M236.8,378.5c-0.9,0.7-1.9,1.3-3,1.7c-3.6,0.6-5.9-0.6-7.2-4.2c-1.2-3.6,0.6-6.5,4.2-7.2c0.9-0.6,2-0.6,3,0v1.7h-2.4
		c-2.3,0.6-3.6,3-3,5.2v0.1c0.4,2.1,2.6,3.5,4.6,3h0.1c1.2-0.6,1.7-0.6,2.4-1.2L236.8,378.5z"/>
	<path d="M246.9,370.1c1.2,4.2-1.2,6.5-4.2,7.2c-3,0.6-5.9-0.6-6.5-4.2c-1.2-3.6,0.6-6.5,3.6-7.2
		C243.3,365.4,246.3,367.1,246.9,370.1z M238.5,372.5c0.4,2,2.1,3.5,4.2,3.6c1.7-0.6,3-2.4,2.4-5.3c-0.6-1.7-1.7-4.2-4.2-3.6
		C238,368.3,238,370.7,238.5,372.5z"/>
	<path d="M248,367.1c-0.5-0.9-0.7-1.9-0.6-3l1.7-0.6l0.6,1.7l0,0c0.5-1.4,1.5-2.5,3-3c1.3-0.5,2.9,0,3.6,1.2l0,0
		c0-0.6,0.6-1.2,0.6-1.7c0.6-0.7,1.4-1.1,2.4-1.2c1.2-0.6,3.6,0,4.7,3.6l1.7,6.5l-1.7,0.6l-1.7-5.9c-0.6-2.4-1.7-3-3-3
		c-1.2,0.6-1.7,1.2-1.7,2.4v1.2l1.7,6.5l-2.4,1.1l-1.7-6.5c-0.6-1.7-1.7-3-3-2.4c-0.9,0.4-1.6,1.3-1.7,2.4v1.2l1.7,6.5l-1.7,0.6
		L248,367.1z"/>
	<path d="M269.4,370.1c-0.6,0-1.2,0-1.7-1.2c0-0.6,0-1.7,1.2-1.7c0.6,0,1.1,0,1.7,1.2C270.6,369.6,270,370.1,269.4,370.1z"/>
	<path d="M271.1,355.2l0.6,2.4l3-0.6l0.6,1.7l-3,0.6l1.7,5.9c0.6,1.2,1.2,1.7,1.7,1.7c0.6,0,0.6,0,1.2-0.6l0.6,1.2
		c-0.6,0-1.2,0.6-1.7,0.6h-2.4c-0.7-0.7-1.3-1.4-1.7-2.4l-1.7-5.9l-1.7,0.6l-0.6-1.7l1.7-0.6l-0.6-1.7L271.1,355.2z"/>
	<path d="M277.7,356.5l3,5.3c0.4,1,1,2,1.7,3l0,0v-9.5l1.7-0.6l3,4.7l1.7,3.6l0,0v-9.5l1.7-0.6l-0.6,11.9l-1.7,0.6l-3-4.7l-1.7-3.6
		l0,0v3.6l-0.6,5.3l-1.7,0.6l-5.9-10.1h2.5v0H277.7z"/>
</g>
</svg>
