<?xml version="1.0" encoding="utf-8"?>
<!-- Generator: Adobe Illustrator 24.3.0, SVG Export Plug-In . SVG Version: 6.00 Build 0)  -->
<svg version="1.1" id="圖層_1" xmlns="http://www.w3.org/2000/svg" xmlns:xlink="http://www.w3.org/1999/xlink" x="0px" y="0px"
	 viewBox="0 0 1008.1 420" style="enable-background:new 0 0 1008.1 420;" xml:space="preserve">
<style type="text/css">
	.st0{fill:#FFFFFF;}
</style>
<path class="st0" d="M606.4,173.5c2.3-0.6,3.5-0.6,4.6-1.7l0,0c-8.1-4.6-15.7-8.7-23.8-13.3c-1.3,5.8-3.3,11.4-5.8,16.8
	c-5.2,13.3-10.4,25.5-17.4,37.1c-3.5,5.8-8.1,15.1-13.3,19.1c4.8,9.3,8.7,19,11.6,29l0,0c2.9-2.9,9.8-12.2,11-15.6
	c0.3,0,0.6-0.2,0.6-0.6l0,0v91l22.6-3.5V211.2c2.9-0.6,3.5-1.2,4.6-2.9c-2.3-0.6-4.1-1.7-6.4-2.3
	C596.5,194.9,604.7,184.5,606.4,173.5z M538,280.2c1.2-3.5,1.7-7,2.9-9.9c1.7-7.5,2.9-15.1,4.6-22.6c1.2-8.1,1.7-16.8,2.9-24.9
	c1.2-0.6,4.1,0,5.8,0v-20.9c-8.1-0.6-16.2-1.7-24.4-2.3c-0.6-0.6,0-3.5,0-4.6c0.5-5.5,1.3-10.9,2.3-16.2c1.2-0.6,2.3-0.6,2.9-1.2
	v-1.2c-6.4-2.9-12.8-5.2-19.1-8.1c0,15.6-3.5,34.8-7,48.1c-1.7,6.4-2.3,13.3-5.2,18.6v-1.7c-8.1,0-16.2-0.6-24.9-0.6v-4.1
	c7.5,0,15.1,0.6,22.6,0.6v-18c2.9,0,5.8,0.6,8.7,0.6V195c-2.9-0.6-5.2-0.6-8.1-1.2v-18c-7.5-1.2-15.1-2.3-22.6-2.9
	c0-7.5,1.2-3.5,4.1-7.5v-0.6c-7.5-1.7-14.5-3.5-22-5.2l0,0V170c-8.1-1.2-16.8-2.3-24.9-3.5v19.7c-3.5-0.6-7-0.6-10.4-1.2v19.7l0,0
	c3.5,0.6,7,0.6,10.4,1.2v20.3c8.1,0.6,16.2,0.6,24.9,1.2l0,0v3.5c-9.3,0-18.5-0.6-28.4-0.6v38.3c7,0,14.5-0.6,21.5-0.6
	c-0.6,1.7-1.7,3.5-2.3,5.2c-9.3,0.6-18.6,1.2-27.2,1.7l5.2,22.6c2.3,0,2.9-1.2,3.5-2.9c2.9-0.6,5.8-0.6,8.7-1.2
	c-2.3,4.6-4.6,8.7-7,13.3l19.1,3.5c0-0.6,0-0.6,0.6-1.2c1.2,0.6,2.3,0.6,4.1,1.2c-3.5,2.9-21.5,8.1-27.8,8.7l0,0
	c3.5,5.2,8.1,12.8,8.1,19.7c9.9-1.2,34.8-13.9,39.4-19.1c6.4,1.2,9.9,7,15.1,8.7c3.5-4.6,6.4-9.3,9.9-14.5c0.3,0,0.6-0.2,0.6-0.6
	l0,0c2.3,4.1,5.2,8.7,6.4,13.3h0.6c6.4-8.1,16.2-14.5,19.7-24.4l0,0l5.2,8.7c2.9,3.5,6.4,6.4,9.3,9.9h0.6c3.5-7,6.4-13.3,10.4-19.1
	C548.4,297.5,539.7,287.1,538,280.2z M477.7,188c1.7,0,3.5,0.6,5.2,0.6v4.1c-1.8,0.1-3.5-0.1-5.2-0.6V188z M477.7,207.1
	c1.8-0.1,3.5,0.1,5.2,0.6v4.1h-5.2V207.1z M459.1,251.8h-8.7v-5.2h8.1C459,248.3,459.2,250,459.1,251.8L459.1,251.8z M458.6,210.6
	c-1.8,0.1-3.5-0.1-5.2-0.6v-4l0,0c1.8-0.1,3.5,0.1,5.2,0.6l0,0C459.1,207.8,459.1,209.3,458.6,210.6L458.6,210.6z M459.1,190.3
	c-1.7,0-4.1-0.6-5.8-0.6v-4.6c1.7,0,3.5,0.6,5.2,0.6l0,0C459.1,186.2,459.1,190.3,459.1,190.3L459.1,190.3z M477.7,246.6h8.1v4.6
	h-8.1V246.6z M477.1,288.9c-1.2,2.3-2.3,4.6-3.5,7c-4.1-1.2-8.1-2.9-12.2-4.1v-0.6c1.7-1.7,11-1.2,13.9-2.3H477.1z M517.7,286.6
	c-4.6,8.1-10.4,16.2-18.5,21.5c-2.9-1.7-6.4-3.5-9.3-5.2c1.2-2.2,2.2-4.6,2.9-7c1.2-3.5,2.3-7,3.5-10.4c3.5-0.6,7.5-1.2,11-1.7
	c1.2-1.2,1.2-12.2,0.6-15.1c-12.8,0.6-24.9,1.7-37.7,2.3l1.7-3.5c7.5-2.3,20.3-2.3,30.1-2.3v-13.9c2.9,1.7,5.8,7.5,7,10.4h0.6
	c1.2-2.3,2.3-5.2,4.1-7.5h0.6c1.2,7,2.9,13.3,4.1,20.3c0.5,2.4,1.3,4.8,2.3,7C519.4,283,518.4,284.7,517.7,286.6L517.7,286.6z
	 M529.3,251.2L529.3,251.2c-2.4-9.9-4-20-4.6-30.2c2.9-0.1,5.8,0.1,8.7,0.6C532.8,231.4,529.9,241.3,529.3,251.2L529.3,251.2z
	 M863.3,209.5c-0.6-2.9,7.5-19.1,9.3-23.2c0.6-2.3,1.7-5.2,2.3-7.5c1.5,0.3,3-0.1,4.1-1.2V177c-8.1-4.6-15.7-8.7-23.8-13.3
	c-1.1,3.9-2.4,7.8-4.1,11.6c-3.1,8.8-6.7,17.3-11,25.5c-4.5,9.3-9.8,18.2-15.7,26.7c-2.3,2.9-5.2,6.4-7.5,9.3
	c-0.6,1.2,2.3,5.8,2.9,7c2.3,5.2,8.1,15.7,8.7,21.5l0,0c5.8-4.1,8.7-12.2,13.3-18v87c7.5-1.2,14.5-2.3,22-2.9V214.6
	c2.3-0.6,4.1-1.2,4.1-3.5C867.3,210.6,865,210,863.3,209.5L863.3,209.5z M689.9,164.2c0.6,50.4,1.7,101.5,2.3,151.9
	c7-0.6,13.9-1.7,20.3-2.3V297c9.3-0.6,18.6-1.7,27.3-2.3V171.2C723.5,168.8,706.7,166.5,689.9,164.2z M711.9,192
	c2.9,0,5.8,0.6,8.7,0.6V221c-2.9,0.1-5.8-0.1-8.7-0.6V192z M713,274.4c0-9.9-0.6-19.7-0.6-29.6h8.7v29
	C718.5,273.7,715.8,273.9,713,274.4L713,274.4z M787.8,205.9c7,0.6,14.5,1.2,21.5,1.7c0-6.4,0-13.3,0.6-19.7
	c-7-0.6-14.5-1.7-21.5-2.3V174c1.7-0.6,2.9-1.2,3.5-2.3c-0.6-1.2-18-5.2-20.9-5.8v17.4c-8.1-1.2-16.2-1.7-24.4-2.9v22
	c8.1,0.6,15.7,1.2,23.8,1.7c0.6,0.6,0,9.3,0,11.6l-27.8-1.7v22.6c13.9,0,28.4,0.6,42.3,0.6v11h-41.7v22c13.9-0.6,27.8-1.1,41.8-2.3
	v22.7c-0.6,2.9,0.6,6.4-0.6,8.7c-1.2,1.2-11.6,2.3-15.1,2.3c1.7,6.4,4.6,12.8,5.2,20.9c9.8-1.2,18.5-4.1,22.6-9.9
	c4.6-7.5,3.5-33,3.5-44.6c3.5,0,6.4-0.6,9.8-0.6c0-6.4,0.6-12.8,0.6-19.1h-9.8v-6.4c1.7-0.6,2.9-1.2,2.9-3.5
	c-2.7,0.1-5.4-0.1-8.1-0.6h14.5c0-6.4,0.6-12.8,0.6-19.7c-8.1-0.6-15.7-1.2-23.8-1.7L787.8,205.9L787.8,205.9z M605.8,215.8
	c25.5,1.2,51,2.9,76.5,4.1V199c-9.3-1.2-18.6-1.7-27.3-2.9v-22c1.7-1.2,2.3-0.6,3.5-2.3v-0.6l-22-4.6V195
	c-10.4-1.2-20.3-1.7-30.7-2.9V215.8L605.8,215.8z M938.1,278.4c-1.7-1.8-3.3-3.7-4.6-5.8V272c0,3.5-0.6,7-0.6,10.4
	c-1.2,5.2-1.2,11-2.9,15.1c-0.3,0-0.6,0.2-0.6,0.6l0,0c-4.6-0.6-5.8-9.3-7-13.3c-3.9-14.6-6.2-29.6-7-44.6
	c9.8-1.2,19.7-2.3,29.6-2.9c-0.6-7-0.6-13.9-1.2-20.9l0,0l-29.6,1.7c0-13.3-0.6-26.1-0.6-39.4c1.2,0,1.7-0.6,2.9-0.6
	c0.6-0.6,0.6-1.2,1.2-1.7v-1.2c-7.5-1.7-15.7-3.5-23.2-5.2c0,16.8,1.2,33,1.2,48.7l-26.1,1.7c0.6,8.1,1.2,16.2,2.3,24.4
	c8.7-1.2,17.4-1.7,26.1-2.9l0,0c0.1,8.2,1,16.4,2.9,24.4c2.9,13.9,4.1,27.2,9.3,38.8c2.9,7,6.4,15.7,15.7,16.8c2,0,4-0.4,5.8-1.2
	c11-3.5,11.6-15.1,13.9-26.1c0.6-3.5,0.6-7,1.2-10.4C943.8,282.5,940.4,280.7,938.1,278.4L938.1,278.4z M932.8,213.5
	c3.4-3,7.1-5.7,11-8.1l2.3-1.7c-0.6-1.7-1.7-3.5-2.3-5.2c-2.3-5.8-5.8-11-8.7-16.2c-1.2-1.7-2.3-5.2-4.1-6.4
	c-4.1,2.9-8.1,5.8-12.2,8.1l-0.6,0.6c1.7,1.7,2.9,5.2,4.6,7.5C925.9,198.4,930.5,205.4,932.8,213.5L932.8,213.5z M640.6,286.5
	c-0.1-9.7-1-19.4-2.9-29c-1.2-6.4-1.7-13.3-2.9-19.7c-1.2-5.2-1.7-10.4-2.9-15.1h-1.2l-17.4,3.5c2.3,8.7,2.3,18,4.1,26.7
	c2.4,13.2,3.5,26.6,3.5,40C627.6,291.1,634.2,289,640.6,286.5z M652.2,271.5c-1.2,5-2.2,10-2.9,15.1c5.2,1.7,10.4,2.9,15.7,4.6
	c1.7-7.5,3.5-15.6,5.2-23.2l3.5-20.9c0.6-4.6,1.2-9.3,1.7-13.9c1.7-0.6,2.9-1.1,3.5-2.3c-7-2.3-13.3-4.6-20.3-7.5
	c-0.6,7.5-1.7,15.1-2.3,22C654.5,254.1,653.4,262.8,652.2,271.5L652.2,271.5z M761.8,269.7c-5.2,4.1-9.9,8.1-15.1,12.2
	c5.2,8.1,11,16.2,13.9,26.1c5.2-4.6,10.4-8.7,15.1-13.3C774.5,288.9,765.8,273.2,761.8,269.7L761.8,269.7z M603.5,323.6
	c27.2-3.5,53.9-7.5,81.2-11v-21.5c-27.2,2.3-53.9,5.2-81.2,7.5V323.6z"/>
<path class="st0" d="M128.1,188.6h-6.4v23.8c1.7,0.6,3.5,0.6,6.4,0.6c8.1,0,15.7-2.9,15.7-12.2C143.1,192,135.6,188.6,128.1,188.6z
	 M141.4,172.9L141.4,172.9c0-6.9-5.2-9.9-13.3-9.9c-3.5,0-5.2,0-6.4,0.6v20.3h7C136.2,183.9,141.4,179.3,141.4,172.9z M309.5,179.3
	c-7.5,0-11,7.5-11.6,13.3h22.6C320.5,186.8,318.2,179.3,309.5,179.3L309.5,179.3z M369.8,185.7c0,3.5,2.3,5.2,8.1,7.5
	c5.2,2.3,8.7,4.6,9.9,8.7l-5.8-21.5c-1.6-0.8-3.4-1.2-5.2-1.2C372.2,179.3,369.8,182.2,369.8,185.7L369.8,185.7z M388.4,203.7v2.3
	c0,7.5-5.8,12.8-15.1,12.8c-3.9,0-7.6-1-11-2.9l1.7-5.2c2.3,1.2,5.8,2.9,9.3,2.9c5.8,0,8.7-2.9,8.7-7s-2.3-6.4-8.1-8.1
	c-7-2.9-11-7-11-12.2c0-6.4,5.2-12.2,13.9-12.2h2.9L338,15.2L61.4,89.4l53.9,201.8v-66.1h26.1l18.6,35.4c4.6,8.7,11,21.5,14.5,31.3
	l0,0c-1.2-11.6-2.3-27.2-2.3-43.5v-23.2h22v99.1h-24.4l-18-35.9c-5.2-9.3-11-22.6-15.1-32.5h-0.6c0.6,11.6,1.2,26.7,1.2,44.1v24.4
	H124l15.6,57.4l219.8-58.6c-11-5.2-11.6-18-11.6-24.4v-30.1H338V253l-22,34.2l22.6,37.1h-27.3l-6.4-12.8c-1.9-3.5-3.4-7.2-4.6-11
	h-0.6c-1.3,3.8-2.8,7.4-4.6,11l-5.8,12.8h-26.1l22-36.5l-22-35.9H291l5.8,12.2l5.2,11h0.6c1.7-3.5,2.9-7.5,4.6-11.6l5.2-11.6h35.4
	v-13.3l24.3-6.4v19.7h16.2V268h-16.2v27.2c0,8.7,2.9,11.6,8.7,11.6c2.1,0.1,4.3-0.1,6.4-0.6v8.7l29-7.5L388.4,203.7z M145.4,212.4
	c-4.1,4.1-10.4,5.8-19.1,5.8c-4.6,0-8.7-0.6-11-0.6v-58c4.2-0.7,8.5-1.1,12.8-1.2c7.5,0,12.2,1.2,15.7,4.1c2.9,2.3,4.6,5.8,4.6,10.4
	c-0.1,6-4.1,11.1-9.9,12.8l0,0c7.3,1.3,12.5,7.7,12.2,15.1C150.1,205.9,148.4,210,145.4,212.4L145.4,212.4z M185.4,217.6l-0.6-6.4
	l0,0c-2.7,4.8-7.8,7.7-13.3,7.5c-6.4,0-13.9-3.5-13.9-18v-24.9h6.4v23.8c0,8.1,2.3,13.9,9.3,13.9c6.2-0.1,11.1-5.1,11-11.3
	c0-0.1,0-0.2,0-0.3v-26.1h6.4v30.7c-0.1,3.7,0.1,7.4,0.6,11L185.4,217.6z M235.9,159c2.2-0.1,4,1.7,4.1,3.9v0.1
	c0,2.9-1.7,4.6-4.1,4.6s-4.1-1.7-4.1-4.6C231.9,160.8,233.7,159,235.9,159L235.9,159z M239.4,175.2v42.3H233v-42.3H239.4z
	 M211,198.4c-7-2.9-11-7-11-12.2c0-6.4,5.2-12.2,13.9-12.2c3.4,0,6.8,0.8,9.9,2.3L222,181c-2.4-1.5-5.2-2.3-8.1-2.3
	c-4.6,0-7,2.9-7,6.4s2.3,5.2,8.1,7.5c7,2.9,11,6.4,11,12.8c0,7.5-5.8,12.8-15.1,12.8c-3.9,0-7.6-1-11-2.9l1.7-5.2
	c2.3,1.2,5.8,2.9,9.3,2.9c5.8,0,8.7-2.9,8.7-7C218.5,202.5,216.2,200.1,211,198.4z M265.5,286.5c0,3.5,0,7-0.6,9.3h-44.1
	c0.6,8.7,8.7,12.8,19.1,12.8c6.3,0,12.6-1,18.6-2.9l3.5,15.7c-7,2.9-16.8,4.1-26.1,4.1c-24.9,0-38.9-13.3-38.9-36
	c0-20.9,13.3-38.8,36.5-38.8C252.7,250.6,265.5,262.2,265.5,286.5L265.5,286.5z M284.1,217.5h-6.4v-24.9c0-7-2.3-12.8-9.9-12.8
	c-5.2,0-11,4.6-11,12.2v26.1h-6.4v-31.3c0.1-3.7-0.1-7.4-0.6-11h5.8l0.6,7l0,0c2.7-4.9,7.8-8,13.3-8.1c5.2,0,14.5,2.9,14.5,17.4
	L284.1,217.5z M326.4,197.2h-29c0,11.6,7,16.2,14.5,16.2c3.8,0.1,7.6-0.7,11-2.3l1.1,4.6c-4.2,2-8.7,3-13.3,2.9
	c-12.2,0-19.7-8.7-19.7-21.4c0-13.3,7.5-22.6,18.5-22.6c12.8,0,16.2,12.2,16.2,19.1C326.9,194.9,326.4,196.1,326.4,197.2
	L326.4,197.2z M342.6,218.1c-3.9,0-7.6-1-11-2.9l1.7-5.2c2.3,1.2,5.8,2.9,9.3,2.9c5.8,0,8.7-2.9,8.7-7s-2.3-6.4-8.1-8.1
	c-7-2.9-11-7-11-12.2c0-6.4,5.2-12.2,13.9-12.2c3.4,0,6.8,0.8,9.9,2.3l-1.7,4.6c-2.4-1.5-5.2-2.3-8.1-2.3c-4.6,0-7,2.9-7,6.4
	s2.3,5.2,8.1,7.5c7,2.9,11,6.4,11,12.8C357.7,213.5,351.9,218.1,342.6,218.1L342.6,218.1z M232.4,266.2c-8.1,0-11.6,8.7-12.2,14.5
	h22.6C243.4,274.4,241.1,266.2,232.4,266.2z"/>
<path class="st0" d="M147.2,394.4l2.9,5.2c0.4,1,1,2,1.7,2.9l0,0v-9.3l1.7-0.6l2.9,4.6l1.7,3.5l0,0v-9.3l1.7-0.6l-0.6,11.6l-1.7,0.6
	l-2.9-4.6L153,395l0,0v4l-0.6,5.2l-1.2,0.6l-5.8-9.9L147.2,394.4z"/>
<path class="st0" d="M162.9,390.3l2.9,5.2c0.4,1,1,2,1.7,2.9l0,0v-9.3l1.7-0.6l2.9,4.6l1.7,3.5l0,0v-9.3l1.7-0.6l-0.6,11.6l-1.7,0.6
	l-2.9-4.6l-1.7-3.5l0,0v4.1l-0.6,5.2l-1.7,0.6l-5.8-9.9L162.9,390.3z"/>
<path class="st0" d="M178.5,385.7l2.9,5.2c0.4,1,1,2,1.7,2.9l0,0v-3.5l0.6-5.8l1.7-0.6l2.9,4.6l1.7,3.5l0,0v-9.3l1.7-0.6l-0.6,11.6
	l-1.7,0.6l-2.9-4.6l-1.7-3.5l0,0v3.5l-0.6,5.8l-1.7,0.6l-5.8-9.9L178.5,385.7z"/>
<path class="st0" d="M196.5,392.6c-0.6,0-1.2,0-1.7-1.2c0-0.6,0-1.7,1.2-1.7c0.6,0,1.2,0,1.7,1.2
	C197.6,392.1,197.1,392.6,196.5,392.6z"/>
<path class="st0" d="M195.3,375.8l1.7-0.6l1.7,6.4l0,0c0.7-2.3,3.2-3.6,5.6-2.9c1.8,0.6,3,2.2,3.1,4.1c1.2,4.1-1.2,6.4-3.5,7
	c-1.5,0.5-3.1,0.1-4.1-1.2l0,0l0.6,1.7l-1.7,0.6c-0.3-1-0.4-1.9-0.6-2.9L195.3,375.8z M200.5,386.8v0.6c0.6,1.2,2.3,1.7,3.5,1.7
	c1.8-0.6,2.9-2.3,2.3-5.2c-0.6-2.3-2.3-3.5-4.1-2.9c-1.1,0.6-2.3,1.7-2.3,2.9v0.6L200.5,386.8z"/>
<path class="st0" d="M209.2,380.5c-0.5-0.9-0.7-1.9-0.6-2.9l1.7-0.6l0.6,1.7l0,0c0-1.2,1.2-2.3,2.9-2.9s4.1,0,5.2,3.5l1.7,6.4
	l-1.7,0.6l-1.7-6.4c-0.6-1.7-1.7-2.9-3.5-2.3c-1.1,0.7-1.9,1.7-2.3,2.9v1.2l1.7,6.4l-1.7,0.6L209.2,380.5z"/>
<path class="st0" d="M223.1,379.9c0.4,2.1,2.5,3.4,4.5,2.9h0.1c1.2-0.6,2.3-0.6,2.9-1.2l0.6,1.2c-1,0.8-2.2,1.4-3.5,1.7
	c-3.5,1.2-5.8-0.6-6.4-4.1s0.6-6.4,3.5-7c3.5-1.2,5.2,1.7,5.8,4.1v1.1L223.1,379.9z M228.4,377c-0.6-1.2-1.2-2.9-3.5-2.3
	c-1.7,0.6-2.3,2.3-2.3,4.1L228.4,377z"/>
<path class="st0" d="M231.3,371.8l2.3,1.7c0.6,0.6,1.2,1.2,1.7,1.2l0,0c0-0.6,0.6-1.2,0.6-2.3l1.2-2.9l1.7,0.6l-2.3,5.8l5.2,4.6
	l-2.3,0.6l-2.3-1.7l-1.7-1.7l0,0c0,0.6-0.6,1.2-0.6,2.3l-1.2,2.9l-2.3,0.6l2.3-6.4l-5.2-4.1L231.3,371.8z"/>
<path class="st0" d="M242.3,366l0.6,2.3l2.9-0.6l0.6,1.7l-2.9,0.6l1.7,5.8c0.6,1.2,1.2,1.7,1.7,1.7s0.6,0,1.2-0.6l0.6,1.2
	c-0.6,0-1.2,0.6-1.7,0.6h-2.3c-0.7-0.7-1.3-1.4-1.7-2.3l-1.7-5.8l-1.7,0.6l-0.6-1.7l1.7-0.6l-0.6-1.7L242.3,366z"/>
<path class="st0" d="M251,378.1c-0.6,0-1.2,0-1.7-1.2c0-0.6,0-1.7,1.2-1.7c0.6,0,1.2,0,1.7,1.2C252.2,377,251.6,378.1,251,378.1z"/>
<path class="st0" d="M261.4,374.7c-0.9,0.7-1.9,1.3-2.9,1.7c-3.5,0.6-5.8-0.6-7-4.1s0.6-6.4,4.1-7c0.9-0.6,2-0.6,2.9,0v1.7h-2.3
	c-2.2,0.6-3.5,2.9-2.9,5.1v0.1c0.4,2.1,2.5,3.4,4.5,2.9h0.1c1.2-0.6,1.7-0.6,2.3-1.2L261.4,374.7z"/>
<path class="st0" d="M271.3,366.5c1.2,4.1-1.2,6.4-4.1,7s-5.8-0.6-6.4-4.1c-1.2-3.5,0.6-6.4,3.5-7
	C267.8,361.9,270.7,363.6,271.3,366.5z M263.1,368.9c0.4,2,2.1,3.4,4.1,3.5c1.7-0.6,2.9-2.3,2.3-5.2c-0.6-1.7-1.7-4.1-4.1-3.5
	C262.6,364.8,262.6,367.1,263.1,368.9z"/>
<path class="st0" d="M272.4,363.6c-0.5-0.9-0.7-1.9-0.6-2.9l1.7-0.6l0.6,1.7l0,0c0.5-1.4,1.5-2.4,2.9-2.9c1.3-0.5,2.8,0,3.5,1.2l0,0
	c0-0.6,0.6-1.2,0.6-1.7c0.6-0.7,1.4-1.1,2.3-1.2c1.2-0.6,3.5,0,4.6,3.5l1.7,6.4l-1.7,0.6l-1.7-5.8c-0.6-2.3-1.7-2.9-2.9-2.9
	c-1.2,0.6-1.7,1.2-1.7,2.3v1.2l1.7,6.4l-2.3,1.1l-1.7-6.4c-0.6-1.7-1.7-2.9-2.9-2.3c-0.9,0.4-1.6,1.3-1.7,2.3v1.2l1.7,6.4l-1.7,0.6
	L272.4,363.6z"/>
<path class="st0" d="M293.3,366.5c-0.6,0-1.2,0-1.7-1.2c0-0.6,0-1.7,1.2-1.7c0.6,0,1.1,0,1.7,1.2C294.5,366,293.9,366.5,293.3,366.5
	z"/>
<path class="st0" d="M295,352l0.6,2.3l2.9-0.6l0.6,1.7l-2.9,0.6l1.7,5.8c0.6,1.2,1.2,1.7,1.7,1.7c0.6,0,0.6,0,1.2-0.6l0.6,1.2
	c-0.6,0-1.2,0.6-1.7,0.6h-2.3c-0.7-0.7-1.3-1.4-1.7-2.3l-1.7-5.8l-1.7,0.6l-0.6-1.7l1.7-0.6l-0.6-1.7L295,352z"/>
<path class="st0" d="M301.4,353.2l2.9,5.2c0.4,1,1,2,1.7,2.9l0,0V352l1.7-0.6l2.9,4.6l1.7,3.5l0,0v-9.3l1.7-0.6l-0.6,11.6l-1.7,0.6
	l-2.9-4.6l-1.7-3.5l0,0v3.5l-0.6,5.2l-1.7,0.6l-5.8-9.9L301.4,353.2L301.4,353.2z"/>
</svg>
