<?xml version="1.0" encoding="utf-8"?>
<!-- Generator: Adobe Illustrator 24.3.0, SVG Export Plug-In . SVG Version: 6.00 Build 0)  -->
<svg version="1.1" id="圖層_1" xmlns="http://www.w3.org/2000/svg" xmlns:xlink="http://www.w3.org/1999/xlink" x="0px" y="0px"
	 viewBox="0 0 300 70" style="enable-background:new 0 0 300 70;" xml:space="preserve">
<style type="text/css">
	.st0{fill:none;}
	.st1{opacity:0.5;enable-background:new    ;}
</style>
<g>
	<g>
		<path d="M143.1,21.4h-1.7c-0.6,4.5-1.5,8.4-3.1,11.7c1.3,2.2,2.9,3.9,5,5.1c-0.8,0.7-1.9,2-2.5,2.9c-1.9-1.2-3.4-2.8-4.7-4.6
			c-1.5,1.8-3.3,3.4-5.6,4.6c-0.3-0.6-1-1.7-1.6-2.5l-2.2,2.1c-0.9-0.6-2.1-1.3-3.4-2c-2,1.1-4.6,1.8-8.1,2.4
			c-0.2-0.9-0.8-2.1-1.3-2.8c2.4-0.2,4.4-0.5,6-1.1c-0.6-0.2-1.1-0.5-1.7-0.6l-0.3,0.4c-1.1-0.3-2.1-0.5-3-0.7
			c0.5-0.7,1-1.5,1.6-2.4h-2.2c-0.1,0.3-0.3,0.4-0.5,0.4l-0.9-3.1c1.5,0,3.2,0,5.2,0l0.7-1.2h-4.3v-5.7h5.6v-1h-5v-3.2h-2v-2.6h2
			v-3.2h5v-1.9l4,0.2c0,0.3-0.2,0.5-0.8,0.5v1.1h5.3v3.2h2.1V20h-2.1v3.2h-5.3v1h5.9v0.9c1.7-3.2,2.9-8,3.5-12.7l4.3,0.8
			c-0.1,0.3-0.3,0.5-0.8,0.5c-0.2,1.5-0.5,2.9-0.8,4.3h7.6L143.1,21.4L143.1,21.4z M117.6,26.5v1.3h2.5v-1.3H117.6z M120.1,16.6
			h-1.9v1.1h1.9V16.6z M118.3,21h1.9v-1.1h-1.9V21z M120.1,33.7l-0.4,0.6c1,0.3,2.1,0.7,3.1,1.2c0.5-0.5,1-1.2,1.4-1.9L120.1,33.7z
			 M130.8,33.2l-3,0.1c-0.5,1.3-1.1,2.4-1.9,3.3c1,0.5,2,1,2.8,1.4c2.4-1.2,4.3-2.9,5.6-5c-0.8-1.8-1.5-3.9-2-6.1
			c-0.4,0.8-0.9,1.5-1.4,2.1c-0.3-0.5-1-1.2-1.6-1.8V30H123c-0.1,0.1-0.4,0.2-0.8,0.2l-0.6,1c3,0,6.2-0.1,9.3-0.1L130.8,33.2z
			 M125.4,16.6h-2v1.1h2V16.6z M123.4,21h2v-1.1h-2V21z M126.1,26.5h-2.6v1.3h2.6V26.5z M134.6,21.4c0.4,2.6,1,5.1,1.7,7.3
			c0.7-2.2,1.2-4.7,1.5-7.4L134.6,21.4L134.6,21.4z"/>
		<path d="M154.2,13.9c-0.1,0.2-0.4,0.4-0.9,0.4c-0.8,1.9-1.7,3.9-2.7,5.8l1.2,0.3c-0.1,0.3-0.3,0.5-0.8,0.5v20h-3.7V25.5
			c-0.9,1.2-1.8,2.4-2.8,3.4c-0.4-0.9-1.3-2.8-1.8-3.7c2.8-2.8,5.6-7.8,7.3-12.6L154.2,13.9z M173.4,36.2v3.4h-20.7v-3.4H173.4z
			 M160.8,18v-5.4l4.7,0.2c0,0.3-0.3,0.5-0.9,0.6V18h8.1v3.4h-19.4V18C153.3,18,160.8,18,160.8,18z M157.2,35.2c-0.1-3-0.9-8-2-11.9
			l3.5-0.6c1.1,3.8,2.1,8.7,2.3,11.8L157.2,35.2z M167.3,35.5c-0.2-0.1-3.4-0.9-3.4-1c1.1-3.1,2.3-8.2,2.8-12l4.7,1.1
			c-0.1,0.2-0.4,0.4-0.9,0.5C169.8,27.7,168.4,32.4,167.3,35.5z M167.3,35.5L167.3,35.5L167.3,35.5z"/>
		<path d="M178.2,29.7c-0.9,0.9-1.7,1.7-2.6,2.4c-0.5-0.7-1.7-2.3-2.4-3c3-2.3,6.5-6.3,8.5-10.1l4.2,1.7c-0.1,0.2-0.5,0.4-0.9,0.3
			c-0.9,1.4-1.9,2.8-2.9,4.1l0.7,0.2c-0.1,0.2-0.4,0.5-0.9,0.5V41h-3.8L178.2,29.7L178.2,29.7z M184.7,14.2
			c-0.1,0.2-0.4,0.3-0.9,0.3c-2,2.3-5.4,5.4-8.4,7.5c-0.5-0.8-1.5-2.3-2.1-3c2.7-1.6,5.7-4.3,7.3-6.4L184.7,14.2z M203.3,23v3.5
			h-4.6v10.4c0,3.6-1.4,4.1-8,4.1c-0.2-1.1-0.6-2.6-1.2-3.7c1.3,0,2.9,0.1,3.8,0.1c1.3,0,1.6,0,1.6-0.6V26.4h-9.5V23H203.3L203.3,23
			z M202.1,14.2v3.4h-15.6v-3.4H202.1z"/>
		<path d="M212,35.2l4.6-0.6l0.2,3c-4.2,0.8-8.6,1.5-11.5,1.9c0,0.3-0.3,0.5-0.6,0.5l-1-3.8c1.4-0.2,3.1-0.3,5-0.6v-7.1h-4.4v-3.1
			h4.4v-2.2h-2.8v-0.3l-0.1,0.1c-0.6-0.8-1.7-1.9-2.5-2.4c2.6-2.4,4.5-5.6,5.6-8.1l4.2,0.7c-0.1,0.3-0.3,0.4-0.8,0.5l-0.1,0.1
			c1.8,1.2,4,2.8,5,4c-0.8,1.1-1.4,2-2.1,3l0,0v2.5H212v2.2h4.2v3.1H212V35.2L212,35.2z M205.7,35.2c-0.2-1.5-0.7-3.6-1.2-5.3
			l2.5-0.7c0.6,1.7,1.2,3.8,1.4,5.2L205.7,35.2z M214.7,20.2c-1-1.1-2.6-2.4-4.1-3.6c-0.7,1.2-1.5,2.4-2.4,3.6H214.7z M216.8,30
			c-0.1,0.2-0.4,0.3-0.8,0.3c-0.4,1.2-1,3.1-1.6,4.3l-2.3-0.8c0.5-1.3,1-3.4,1.3-4.8L216.8,30z M232.2,22.2V37
			c0,3.3-1.5,3.8-6.3,3.8c-0.1-1-0.6-2.5-1.1-3.5c1.3,0.1,2.8,0.1,3.2,0.1s0.6-0.2,0.6-0.5v-1.8h-7.1v5.8h-3.6V22.2h1
			c-0.7-0.6-1.9-1.3-2.8-1.7c1.3-1.5,2.4-4,3.1-6.3l4,1.1c-0.1,0.2-0.4,0.4-0.8,0.3c-0.8,2.3-2.1,4.9-3.4,6.6h4.2v-9.8l4.5,0.2
			c0,0.3-0.3,0.5-0.8,0.6v8.9L232.2,22.2L232.2,22.2L232.2,22.2z M228.5,25.4h-7.1v1.9h7.1V25.4z M221.4,32.2h7.1v-1.9h-7.1V32.2z
			 M230.1,13.8c1.5,1.9,3.2,4.5,3.8,6.3l-3.3,1.7c-0.6-1.8-2.2-4.4-3.6-6.5L230.1,13.8z"/>
		<path d="M261.1,13.4c-0.2,3.2-0.4,7.1-0.7,10h2.4v6.3H259V26h-20.6v3.6h-3.6v-6.3h2.4l-0.6-9.6l2.1,0.4c1.5-0.5,3.2-1.1,4.3-1.6
			l2.1,2.3c-0.1,0.1-0.3,0.1-0.4,0.1c-0.1,0-0.2,0-0.3-0.1c-1,0.3-2.6,0.8-4,1.1v0.6h4.3v2.3h-4.1l0.1,1h4.1v1.6
			c0.8-0.3,1.5-0.8,2.3-1.2c-0.6-0.4-1.2-0.7-1.7-1l1.7-1.4c0.6,0.3,1.2,0.6,1.9,1c0.4-0.4,0.9-0.8,1.2-1.2l2.9,1
			c-0.1,0.2-0.4,0.3-0.7,0.3c-0.4,0.4-0.8,0.9-1.3,1.3c0.6,0.4,1.2,0.8,1.7,1.2l-1.9,1.5c-0.4-0.4-1-0.8-1.7-1.3
			c-0.9,0.6-1.9,1.2-2.8,1.6c-0.3-0.4-1-0.9-1.5-1.3v0.3h-4l0.1,1.1h16l0.1-1.1H253v-2.3h4l0.1-1h-4v-2.3h4.2l0.1-1H253v-2.3
			L261.1,13.4L261.1,13.4z M254.8,27.2l2.7,1.7c-0.2,0.2-0.4,0.3-0.8,0.3c-1.4,1-3.4,2.3-5.3,3.4h11.2v2.8h-12.1v2.2
			c0,3.1-1.6,3.4-7.2,3.4c-0.2-0.9-0.7-2.2-1.2-3.1c1.6,0.1,3.5,0.1,4,0.1s0.7-0.1,0.7-0.5v-2.1h-12.1v-2.8h12.1v-1.4l1.9,0.1
			c0.7-0.4,1.4-0.8,2-1.3h-10.4v-2.5h13.8L254.8,27.2z M252.7,13.6c-0.1,0.2-0.3,0.3-0.7,0.3c-0.4,0.4-0.8,0.8-1.2,1.2
			c0.6,0.4,1.1,0.8,1.5,1.1l-1.8,1.5c-0.4-0.4-1-0.8-1.6-1.2c-0.9,0.5-1.8,1.1-2.7,1.5c-0.4-0.5-1.3-1.2-1.8-1.5
			c0.8-0.3,1.6-0.8,2.4-1.2c-0.6-0.4-1.2-0.7-1.7-1l1.7-1.4c0.6,0.3,1.2,0.6,1.9,1c0.4-0.4,0.8-0.8,1.1-1.2L252.7,13.6z"/>
		<path d="M273,13.7l2.4,1.1c0,0.2-0.2,0.4-0.3,0.5c-0.7,2.4-1.7,5.7-2.6,8.1c2,2.3,2.8,4.1,2.8,6c0,4.5-2.8,4.9-5.6,4.8
			c0-0.9-0.4-2.2-0.8-3c0.6,0,1.1,0,1.5,0c1,0,1.5-0.6,1.5-2.1c0-1.4-0.7-3.2-2.6-5.2c0.7-1.9,1.3-4.6,1.8-6.7h-2.5v24h-3.3V13.7
			h7.2L273,13.7z M288.5,36.2c0,0.9,0.1,1,0.5,1h1.1c0.5,0,0.6-0.5,0.7-3.4c0.7,0.6,2.2,1.1,3.2,1.4c-0.3,4.1-1.2,5.3-3.4,5.3h-2.2
			c-2.8,0-3.4-1-3.4-4.2v-6.1h-2.4c-0.4,5.2-1.5,8.8-7.9,10.9c-0.4-0.8-1.3-2.2-2-2.8c5.1-1.5,6.1-3.9,6.4-8h-3.6V27h18v3.2h-4.9
			L288.5,36.2L288.5,36.2z M275,15.9h7.2v-3.5l4.5,0.2c0,0.3-0.3,0.5-0.8,0.6v2.7h7.6v6.3H291v2.3h-13.7v-2.3H275V15.9z M290,21.4
			V19h-11.5v2.4H290z"/>
	</g>
	<g>
		<path d="M113.4,57.6v-9.2h1.4v1.3c0.7-1,1.6-1.5,2.9-1.5c0.6,0,1.1,0.1,1.5,0.3c0.5,0.2,0.8,0.5,1,0.8s0.4,0.7,0.5,1.2
			c0.1,0.3,0.1,0.8,0.1,1.5v5.7h-1.6v-5.6c0-0.6-0.1-1.1-0.2-1.4c-0.1-0.3-0.3-0.6-0.6-0.8c-0.3-0.2-0.7-0.3-1.1-0.3
			c-0.7,0-1.2,0.2-1.7,0.6c-0.5,0.4-0.7,1.2-0.7,2.4v5H113.4L113.4,57.6z"/>
		<path d="M129.1,54.6l1.6,0.2c-0.3,0.9-0.7,1.7-1.4,2.2s-1.6,0.8-2.6,0.8c-1.3,0-2.4-0.4-3.2-1.2c-0.8-0.8-1.2-2-1.2-3.5
			s0.4-2.7,1.2-3.6c0.8-0.9,1.8-1.3,3.1-1.3c1.2,0,2.2,0.4,3,1.3c0.8,0.8,1.2,2,1.2,3.5c0,0.1,0,0.2,0,0.4h-6.9
			c0.1,1,0.3,1.8,0.9,2.3c0.5,0.5,1.2,0.8,1.9,0.8c0.6,0,1.1-0.2,1.5-0.4C128.5,55.9,128.8,55.4,129.1,54.6z M124,52.2h5.1
			c-0.1-0.8-0.3-1.4-0.6-1.7c-0.5-0.6-1.1-0.9-1.9-0.9c-0.7,0-1.3,0.2-1.8,0.7C124.3,50.8,124,51.4,124,52.2z"/>
		<path d="M131.6,53c0-1.7,0.5-3,1.4-3.8c0.8-0.7,1.8-1,2.9-1c1.3,0,2.3,0.4,3.1,1.2s1.2,2,1.2,3.4c0,1.2-0.2,2.1-0.5,2.8
			s-0.9,1.2-1.5,1.6c-0.7,0.4-1.4,0.6-2.2,0.6c-1.3,0-2.3-0.4-3.1-1.2S131.6,54.6,131.6,53z M133.2,53c0,1.2,0.3,2.1,0.8,2.6
			c0.5,0.6,1.2,0.9,1.9,0.9c0.8,0,1.4-0.3,1.9-0.9s0.8-1.5,0.8-2.7c0-1.1-0.3-2-0.8-2.6s-1.2-0.9-1.9-0.9c-0.8,0-1.4,0.3-1.9,0.9
			S133.2,51.9,133.2,53z"/>
		<path d="M141.8,57.6V45h2.5l3,9c0.3,0.8,0.5,1.5,0.6,1.9c0.1-0.5,0.4-1.1,0.7-2l3-8.8h2.3v12.7h-1.6V47l-3.7,10.6h-1.5l-3.7-10.8
			v10.8H141.8z"/>
		<path d="M161.9,56.5c-0.6,0.5-1.1,0.8-1.7,1c-0.5,0.2-1.1,0.3-1.7,0.3c-1,0-1.8-0.2-2.3-0.7s-0.8-1.1-0.8-1.9
			c0-0.4,0.1-0.9,0.3-1.2c0.2-0.4,0.5-0.7,0.8-0.9s0.7-0.4,1.1-0.5c0.3-0.1,0.8-0.2,1.4-0.2c1.3-0.1,2.2-0.3,2.8-0.5
			c0-0.2,0-0.4,0-0.4c0-0.6-0.1-1.1-0.4-1.3c-0.4-0.4-1-0.5-1.8-0.5c-0.7,0-1.3,0.1-1.6,0.4c-0.3,0.3-0.6,0.7-0.8,1.4l-1.5-0.2
			c0.1-0.7,0.4-1.2,0.7-1.6c0.3-0.4,0.8-0.7,1.4-0.9c0.6-0.2,1.3-0.3,2.1-0.3s1.4,0.1,1.9,0.3s0.9,0.4,1.1,0.7
			c0.2,0.3,0.4,0.6,0.5,1.1c0.1,0.3,0.1,0.7,0.1,1.4v2.1c0,1.4,0,2.4,0.1,2.7c0.1,0.4,0.2,0.8,0.4,1.1h-1.6
			C162.1,57.4,162,57,161.9,56.5z M161.8,53c-0.6,0.2-1.4,0.4-2.5,0.6c-0.6,0.1-1.1,0.2-1.4,0.3c-0.3,0.1-0.5,0.3-0.6,0.5
			c-0.1,0.2-0.2,0.5-0.2,0.7c0,0.4,0.2,0.8,0.5,1c0.3,0.3,0.8,0.4,1.4,0.4c0.6,0,1.1-0.1,1.6-0.4s0.8-0.6,1-1.1
			c0.2-0.4,0.3-0.9,0.3-1.6L161.8,53L161.8,53z"/>
		<path d="M165.3,57.6v-9.2h1.4v1.4c0.4-0.7,0.7-1.1,1-1.3s0.6-0.3,1-0.3c0.5,0,1.1,0.2,1.6,0.5l-0.5,1.4c-0.4-0.2-0.8-0.3-1.1-0.3
			s-0.6,0.1-0.9,0.3c-0.3,0.2-0.5,0.5-0.6,0.9c-0.2,0.6-0.3,1.2-0.3,1.8v4.8L165.3,57.6L165.3,57.6z"/>
		<path d="M170.8,57.6V45h1.6v7.2l3.7-3.7h2l-3.5,3.4l3.9,5.8h-1.9l-3-4.7l-1.1,1.1v3.6L170.8,57.6L170.8,57.6z"/>
		<path d="M185.5,54.6l1.6,0.2c-0.3,0.9-0.7,1.7-1.4,2.2s-1.6,0.8-2.6,0.8c-1.3,0-2.4-0.4-3.2-1.2c-0.8-0.8-1.2-2-1.2-3.5
			s0.4-2.7,1.2-3.6c0.8-0.9,1.8-1.3,3.1-1.3c1.2,0,2.2,0.4,3,1.3c0.8,0.8,1.2,2,1.2,3.5c0,0.1,0,0.2,0,0.4h-6.9
			c0.1,1,0.3,1.8,0.9,2.3c0.5,0.5,1.2,0.8,1.9,0.8c0.6,0,1.1-0.2,1.5-0.4C185,55.9,185.3,55.4,185.5,54.6z M180.4,52.2h5.1
			c-0.1-0.8-0.3-1.4-0.6-1.7c-0.5-0.6-1.1-0.9-1.9-0.9c-0.7,0-1.3,0.2-1.8,0.7S180.5,51.4,180.4,52.2z"/>
		<path d="M192.1,56.3l0.2,1.4c-0.4,0.1-0.8,0.1-1.2,0.1c-0.6,0-1-0.1-1.3-0.3c-0.3-0.2-0.5-0.4-0.7-0.7c-0.1-0.3-0.2-0.9-0.2-1.8
			v-5.3h-1.1v-1.2h1.1v-2.3l1.5-0.9v3.2h1.6v1.2h-1.6V55c0,0.4,0,0.7,0.1,0.9c0.1,0.1,0.1,0.2,0.3,0.3c0.1,0.1,0.3,0.1,0.5,0.1
			C191.5,56.4,191.8,56.3,192.1,56.3z"/>
		<path d="M193.1,46.8V45h1.6v1.8H193.1z M193.1,57.6v-9.2h1.6v9.2H193.1z"/>
		<path d="M196.6,57.6v-9.2h1.4v1.3c0.7-1,1.7-1.5,2.9-1.5c0.6,0,1.1,0.1,1.5,0.3c0.5,0.2,0.8,0.5,1,0.8s0.4,0.7,0.5,1.2
			c0.1,0.3,0.1,0.8,0.1,1.5v5.7h-1.6v-5.6c0-0.6-0.1-1.1-0.2-1.4c-0.1-0.3-0.3-0.6-0.6-0.8s-0.7-0.3-1.1-0.3c-0.7,0-1.2,0.2-1.7,0.6
			c-0.5,0.4-0.7,1.2-0.7,2.4v5H196.6L196.6,57.6z"/>
		<path d="M205.8,58.5l1.5,0.2c0.1,0.5,0.2,0.8,0.5,1c0.4,0.3,0.9,0.4,1.6,0.4c0.7,0,1.3-0.1,1.7-0.4s0.7-0.7,0.8-1.2
			c0.1-0.3,0.1-1,0.1-2c-0.7,0.8-1.5,1.2-2.5,1.2c-1.3,0-2.2-0.5-2.9-1.4s-1-2-1-3.3c0-0.9,0.2-1.7,0.5-2.4s0.8-1.3,1.4-1.7
			c0.6-0.4,1.3-0.6,2.1-0.6c1.1,0,2,0.4,2.7,1.3v-1.1h1.4v7.9c0,1.4-0.1,2.4-0.4,3c-0.3,0.6-0.8,1.1-1.4,1.4
			c-0.6,0.3-1.4,0.5-2.3,0.5c-1.1,0-2-0.2-2.7-0.7C206.1,60.1,205.7,59.5,205.8,58.5z M207,52.9c0,1.2,0.2,2.1,0.7,2.6
			c0.5,0.6,1.1,0.8,1.8,0.8s1.3-0.3,1.8-0.8c0.5-0.6,0.7-1.4,0.7-2.6c0-1.1-0.3-2-0.8-2.5c-0.5-0.6-1.1-0.9-1.8-0.9
			s-1.3,0.3-1.8,0.8C207.3,51,207,51.8,207,52.9z"/>
		<path d="M222.4,57.6L219,45h1.7l1.9,8.3c0.2,0.9,0.4,1.7,0.5,2.6c0.3-1.4,0.5-2.1,0.6-2.3l2.4-8.6h2l1.8,6.4
			c0.5,1.6,0.8,3.1,1,4.5c0.2-0.8,0.4-1.7,0.6-2.8l2-8.2h1.7l-3.5,12.7h-1.6l-2.7-9.7c-0.2-0.8-0.4-1.3-0.4-1.5
			c-0.1,0.6-0.3,1.1-0.4,1.5l-2.7,9.7L222.4,57.6L222.4,57.6z"/>
		<path d="M235.6,53c0-1.7,0.5-3,1.4-3.8c0.8-0.7,1.8-1,2.9-1c1.3,0,2.3,0.4,3.1,1.2s1.2,2,1.2,3.4c0,1.2-0.2,2.1-0.5,2.8
			c-0.4,0.7-0.9,1.2-1.5,1.6c-0.7,0.4-1.4,0.6-2.2,0.6c-1.3,0-2.3-0.4-3.1-1.2C236,55.8,235.6,54.6,235.6,53z M237.2,53
			c0,1.2,0.3,2.1,0.8,2.6s1.2,0.9,1.9,0.9c0.8,0,1.4-0.3,1.9-0.9s0.8-1.5,0.8-2.7c0-1.1-0.3-2-0.8-2.6s-1.2-0.9-1.9-0.9
			c-0.8,0-1.4,0.3-1.9,0.9S237.2,51.9,237.2,53z"/>
		<path d="M245.6,57.6v-9.2h1.4v1.4c0.4-0.7,0.7-1.1,1-1.3s0.6-0.3,1-0.3c0.5,0,1.1,0.2,1.6,0.5l-0.5,1.4c-0.4-0.2-0.8-0.3-1.1-0.3
			s-0.6,0.1-0.9,0.3c-0.3,0.2-0.5,0.5-0.6,0.9c-0.2,0.6-0.3,1.2-0.3,1.8v4.8L245.6,57.6L245.6,57.6z"/>
		<path d="M251.1,57.6V45h1.6v7.2l3.7-3.7h2l-3.5,3.4l3.9,5.8h-1.9l-3-4.7l-1.1,1.1v3.6L251.1,57.6L251.1,57.6z"/>
		<path d="M258.9,55l1.5-0.2c0.1,0.6,0.3,1.1,0.7,1.4c0.4,0.3,0.9,0.5,1.7,0.5c0.7,0,1.2-0.1,1.6-0.4c0.3-0.3,0.5-0.6,0.5-1
			s-0.1-0.6-0.5-0.8c-0.2-0.1-0.7-0.3-1.6-0.5c-1.1-0.3-1.9-0.5-2.4-0.7c-0.4-0.2-0.8-0.5-1-0.9s-0.3-0.8-0.3-1.2s0.1-0.8,0.3-1.1
			c0.2-0.3,0.4-0.6,0.8-0.9c0.2-0.2,0.6-0.3,1-0.5c0.4-0.1,0.9-0.2,1.3-0.2c0.7,0,1.4,0.1,1.9,0.3s0.9,0.5,1.2,0.8
			c0.3,0.4,0.4,0.8,0.5,1.4l-1.5,0.2c-0.1-0.5-0.3-0.8-0.6-1.1c-0.3-0.3-0.8-0.4-1.4-0.4c-0.7,0-1.2,0.1-1.5,0.4
			c-0.3,0.2-0.5,0.5-0.5,0.8c0,0.2,0.1,0.4,0.2,0.5c0.1,0.2,0.3,0.3,0.6,0.4c0.2,0.1,0.6,0.2,1.4,0.4c1.1,0.3,1.9,0.5,2.3,0.7
			s0.8,0.5,1,0.8c0.3,0.4,0.4,0.8,0.4,1.3s-0.2,1-0.5,1.5s-0.7,0.8-1.3,1.1c-0.6,0.3-1.2,0.4-1.9,0.4c-1.2,0-2.1-0.2-2.7-0.7
			C259.5,56.6,259.1,55.9,258.9,55z"/>
		<path d="M267.9,57.6V45h1.6v4.6c0.7-0.8,1.6-1.3,2.8-1.3c0.7,0,1.3,0.1,1.8,0.4c0.5,0.3,0.9,0.6,1.1,1.1s0.3,1.2,0.3,2.1v5.8h-1.6
			v-5.8c0-0.8-0.2-1.3-0.5-1.7s-0.8-0.5-1.4-0.5c-0.5,0-0.9,0.1-1.3,0.4c-0.4,0.2-0.7,0.6-0.9,1c-0.2,0.4-0.3,1-0.3,1.7v5h-1.6V57.6
			z"/>
		<path d="M276.8,53c0-1.7,0.5-3,1.4-3.8c0.8-0.7,1.8-1,2.9-1c1.3,0,2.3,0.4,3.1,1.2c0.8,0.8,1.2,2,1.2,3.4c0,1.2-0.2,2.1-0.5,2.8
			c-0.4,0.7-0.9,1.2-1.6,1.6s-1.4,0.6-2.2,0.6c-1.3,0-2.3-0.4-3.1-1.2C277.2,55.8,276.8,54.6,276.8,53z M278.4,53
			c0,1.2,0.3,2.1,0.8,2.6c0.5,0.6,1.2,0.9,1.9,0.9c0.8,0,1.4-0.3,1.9-0.9s0.8-1.5,0.8-2.7c0-1.1-0.3-2-0.8-2.6s-1.2-0.9-1.9-0.9
			c-0.8,0-1.4,0.3-1.9,0.9C278.6,51,278.4,51.9,278.4,53z"/>
		<path d="M286.8,61.1V48.5h1.4v1.2c0.3-0.5,0.7-0.8,1.1-1.1c0.4-0.2,0.9-0.4,1.5-0.4c0.8,0,1.5,0.2,2.1,0.6c0.6,0.4,1.1,1,1.4,1.7
			s0.5,1.5,0.5,2.4s-0.2,1.8-0.5,2.5c-0.3,0.8-0.8,1.3-1.5,1.7c-0.6,0.4-1.3,0.6-2,0.6c-0.5,0-1-0.1-1.4-0.3c-0.4-0.2-0.8-0.5-1-0.8
			V61L286.8,61.1L286.8,61.1z M288.2,53.2c0,1.2,0.2,2.1,0.7,2.6c0.5,0.6,1.1,0.8,1.7,0.8c0.7,0,1.3-0.3,1.8-0.9s0.7-1.5,0.7-2.7
			s-0.2-2-0.7-2.6s-1.1-0.9-1.7-0.9c-0.7,0-1.2,0.3-1.8,0.9C288.4,51,288.2,52,288.2,53.2z"/>
	</g>
	<path d="M76.6,27.9c-1.4,0-2.5,0.6-3.4,1.8s-1.3,3-1.3,5.4s0.4,4.3,1.3,5.4c0.9,1.2,2,1.8,3.3,1.8s2.4-0.6,3.3-1.7
		c0.9-1.2,1.3-3,1.3-5.6c0-2.4-0.4-4.2-1.3-5.3C79,28.5,77.9,27.9,76.6,27.9z"/>
	<path class="st0" d="M76.5,20.7c-4.3,0-7.6,1.4-10.1,4.1l-0.1,0.1c0.7,0.8,1.3,1.7,1.8,2.8c1,2.3,1.6,5.2,1.6,8.8v1.2h-6.8
		c0.2,1.2,0.5,2.4,0.9,3.4l5.4,0.6c-0.8,1.5-1.6,2.8-2.6,3.8c0.2,0.2,0.3,0.4,0.5,0.5c2.4,2.2,5.6,3.4,9.5,3.4c4.4,0,7.8-1.3,10.3-4
		s3.7-6.2,3.7-10.4c0-3.8-1-6.9-3-9.5C85,22.2,81.4,20.7,76.5,20.7z"/>
	<path class="st0" d="M43.5,42.9c-1.2-2.2-1.8-4.9-1.8-7.9c0-4.3,1.2-7.8,3.6-10.4c-0.3-0.5-0.6-0.9-0.9-1.3
		c-1.6-1.8-3.8-2.7-6.6-2.7c-2.1,0-3.8,0.4-5.3,1.2c-1.4,0.8-2.9,2.1-4.3,4v-4.6h-9.4v28.1h10.1V35.9c0-2.6,0.4-4.3,1.1-5.3
		c0.8-1,1.8-1.5,3-1.5c1.1,0,2,0.4,2.6,1.1c0.6,0.7,0.9,2,0.9,3.7v15.4h10.2v-2.4C45.5,45.9,44.4,44.5,43.5,42.9z"/>
	<path d="M52.3,41.4c0.9,1.2,2.1,1.8,3.5,1.8c0.9,0,1.8-0.3,2.6-0.8c0.5-0.3,1-0.9,1.6-1.7l3.7,0.4c-0.4-1.1-0.7-2.2-0.9-3.4H51.1
		C51.2,39.2,51.6,40.5,52.3,41.4z"/>
	<path d="M58.7,28.2c-0.8-0.9-1.8-1.3-3.1-1.3c-1.5,0-2.6,0.7-3.5,2c-0.6,0.8-0.9,2.1-1.1,3.7h9.1C60,30.5,59.5,29,58.7,28.2z"/>
	<path d="M80.3,4.1H37h-7.5H5.2v24.3v5.5v7.8c0,13.4,10.9,24.3,24.3,24.3h50.8c13.4,0,24.3-10.9,24.3-24.3V28.2
		C104.5,14.8,93.7,4.1,80.3,4.1z M86.8,45.2c-2.5,2.7-5.9,4-10.3,4c-3.9,0-7.1-1.1-9.5-3.4c-0.2-0.2-0.3-0.4-0.5-0.5
		c-0.8,0.9-1.6,1.6-2.5,2.1c-2,1.2-4.8,1.8-8.5,1.8c-3.2,0-5.7-0.5-7.5-1.5c-0.5-0.3-0.9-0.5-1.3-0.9v2.4H36.5V33.9
		c0-1.8-0.3-3-0.9-3.7c-0.6-0.7-1.5-1.1-2.6-1.1c-1.2,0-2.2,0.5-3,1.5s-1.1,2.8-1.1,5.3v13.5H18.8V21.2h9.4v4.6
		c1.4-1.9,2.8-3.2,4.3-4c1.4-0.8,3.2-1.2,5.3-1.2c2.8,0,5,0.9,6.6,2.7c0.4,0.4,0.7,0.8,0.9,1.3l0,0c2.4-2.7,5.8-4,10-4
		c3.4,0,6.2,0.6,8.2,1.8c1.1,0.6,2,1.4,2.8,2.4l0.1-0.1c2.5-2.7,5.9-4.1,10.1-4.1c4.9,0,8.6,1.6,11,4.8c2,2.6,3,5.7,3,9.5
		C90.5,39,89.3,42.5,86.8,45.2z"/>
	<g>
		<path class="st1" d="M67,46c2.4,2.2,5.6,3.4,9.5,3.4c4.4,0,7.8-1.3,10.3-4s3.7-6.2,3.7-10.4c0-3.8-1-6.9-3-9.5
			c-2.5-3.2-6.2-4.8-11-4.8c-4.3,0-7.6,1.4-10.1,4.1l-0.1,0.1c0.7,0.8,1.3,1.7,1.8,2.8c1,2.3,1.6,5.2,1.6,8.8v1.2h-6.8
			c0.2,1.2,0.5,2.4,0.9,3.4l5.4,0.6c-0.8,1.5-1.6,2.8-2.6,3.8 M79.9,40.5c-0.9,1.2-2,1.7-3.3,1.7s-2.4-0.6-3.3-1.8S72,37.4,72,35
			s0.4-4.2,1.3-5.4s2-1.8,3.4-1.8c1.3,0,2.4,0.6,3.2,1.7c0.9,1.2,1.3,2.9,1.3,5.3C81.2,37.5,80.7,39.4,79.9,40.5z"/>
		<path d="M76.6,27.9c-1.4,0-2.5,0.6-3.4,1.8s-1.3,3-1.3,5.4s0.4,4.3,1.3,5.4c0.9,1.2,2,1.8,3.3,1.8s2.4-0.6,3.3-1.7
			c0.9-1.2,1.3-3,1.3-5.6c0-2.4-0.4-4.2-1.3-5.3C79,28.5,77.9,27.9,76.6,27.9z"/>
	</g>
	<g>
		<path class="st1" d="M43.5,42.9c-1.2-2.2-1.8-4.9-1.8-7.9c0-4.3,1.2-7.8,3.6-10.4c-0.3-0.5-0.6-0.9-0.9-1.3
			c-1.6-1.8-3.8-2.7-6.6-2.7c-2.1,0-3.8,0.4-5.3,1.2c-1.4,0.8-2.9,2.1-4.3,4v-4.6h-9.4v28.1h10.1V35.9c0-2.6,0.4-4.3,1.1-5.3
			c0.8-1,1.8-1.5,3-1.5c1.1,0,2,0.4,2.6,1.1c0.6,0.7,0.9,2,0.9,3.7v15.4h10.2v-2.4C45.5,45.9,44.4,44.5,43.5,42.9z"/>
	</g>
</g>
</svg>
