<?xml version="1.0" encoding="utf-8"?>
<!-- Generator: Adobe Illustrator 25.4.1, SVG Export Plug-In . SVG Version: 6.00 Build 0)  -->
<svg version="1.1" id="圖層_1" xmlns="http://www.w3.org/2000/svg" xmlns:xlink="http://www.w3.org/1999/xlink" x="0px" y="0px"
	 viewBox="0 0 300 70" style="enable-background:new 0 0 300 70;" xml:space="preserve">
<style type="text/css">
	.st0{fill:#242D3C;}
	.st1{fill:none;}
</style>
<g>
	<g>
		<path class="st0" d="M80.2,45c0-2.4-0.7-4.2-2-5.6c-1.3-1.4-3.1-2-5.4-2L61.2,65.6l0,0h1c0.2,0,0.4,0,0.6,0
			c4.8-0.2,8.8-2.4,12.1-6.7c1.6-2.1,2.9-4.5,3.9-7C79.7,49.4,80.2,47.1,80.2,45z"/>
		<path class="st0" d="M19.6,44c-1,1.7-1.5,3.3-1.5,5c0,1.5,0.5,2.9,1.5,4c1,1.1,2.2,1.6,3.6,1.6c2.5,0,4.6-1.6,6.5-4.9l7.2-12.5
			h-2.1c-4.6,0-8.3,0.9-11.1,2.6C22,41,20.6,42.4,19.6,44z"/>
		<path class="st0" d="M48.5,29.8l-1,1.7h5.9l3.5-8.7c-1.7,0.1-3.2,0.7-4.4,1.6C51.4,25.5,50.1,27.2,48.5,29.8z"/>
		<path class="st0" d="M76.2,26.7c-0.7,0-1.4,0-2.1,0.1c-1-12.5-11.5-22.4-24.3-22.4c-10.4,0-19.3,6.5-22.8,15.7
			c-0.5,0-1.1-0.1-1.6-0.1c-12.6,0-22.8,10.2-22.8,22.8s10.2,22.8,22.8,22.8c0.3,0,0.9,0,0.9,0h27.9l11.5-28.3l-7.9,0L55.2,44
			c0,0-1.1,2.7-1.1,2.7c-0.5,1.1-1.6,1.9-2.9,1.9c-1.7,0-3.1-1.4-3.1-3.1c0-0.1,0-0.4,0-0.4c0.1-0.8,0.4-1.7,0.9-2.9l1.9-4.8h-6.8
			l-8.1,14c-3.8,6.6-8.3,9.9-13.5,9.9c-3.2,0-5.9-1.1-8.1-3.4s-3.3-5.1-3.3-8.5c0-2.8,0.8-5.4,2.5-8c1.7-2.6,4-4.7,6.8-6.4
			c2.2-1.2,4.6-2.1,7.2-2.6c2.6-0.5,6.1-0.8,10.5-0.8h1.8l1.9-3.5c2.7-4.9,6-8.2,9.8-9.8c2.5-1.1,5.7-1.6,9.8-1.6
			c1,0,1.8,0.2,2.4,0.7c0.6,0.5,0.9,1.1,0.9,1.9c0,0.4-0.1,0.8-0.3,1.3L64.5,21l-4.2,10.5l11.4,0c4.8,0,8.4,1.1,11,3.4
			c2.6,2.3,3.8,5.5,3.8,9.8c0,6.5-2.2,12.5-6.5,17.9c-0.9,1.1-1.8,2.1-2.8,2.9h0c0,0,0,0,0,0c0,0,0,0,0,0c0,0,0,0,0,0h0
			c10.2-0.6,18.4-9.1,18.4-19.5C95.7,35.4,87,26.7,76.2,26.7z"/>
		<path class="st0" d="M121.1,39.7c2.7-1.8,5.8-2.4,9.1-1.6c2.5,0.3,4.4,1.8,5,2.3l3.7-4c-0.7-0.9-3.8-4.4-8.9-4.8
			c-0.6-0.1-1.3-0.1-1.9-0.1c-0.9,0-1.9,0.1-2.8,0.2c-8,1.3-15.2,8.7-16.4,16.9c-1.2,8.1,3.9,15.5,11.6,16.7
			c1.5,0.3,3.1,0.3,4.7,0.1l0,0c5.4-0.4,9.8-4.3,10.6-5.2l-3.1-4.8c-0.7,0.6-1.6,1.7-4.1,3c-0.9,0.4-1.9,0.7-2.9,0.8
			c-3.6,0.4-5.9-0.9-7.3-2.2c-2.2-2-3.2-5.2-2.7-8.6C116.2,45,118.2,41.7,121.1,39.7z"/>
		<path class="st0" d="M166,41.5c-6.6,0-13.2,5.6-14.1,12.1c-0.4,3,0.5,6.1,2.5,8.3c2,2.3,5,3.7,8.1,3.7c6.5,0,13.1-5.6,14-12.1
			c0.4-3-0.5-6.1-2.5-8.4C172.1,42.8,169.2,41.5,166,41.5z M170.4,53.6c-0.5,3.7-3.4,6.4-7,6.4c0,0-0.1,0-0.1,0
			c-1.6,0-3-0.6-3.9-1.7c-1.1-1.2-1.5-2.9-1.3-4.9c0.5-3.7,3.5-6.4,7-6.4c1.6,0,3.1,0.6,4,1.7C170.2,50,170.6,51.7,170.4,53.6z"/>
		<path class="st0" d="M196.5,52.1c-0.2,1.1-0.3,2.3-0.5,3.4c-0.6,2.9-2.6,4.8-5.6,4.8c-1.5,0-2.7-0.4-3.4-1.2c-0.7-0.8-1-2.2-1-3.7
			c0-0.3,0.1-0.7,0.1-1c0.1-0.8,0.2-1.6,0.3-2.4l1.5-10.5h-6.1l-1.9,13.7c-0.4,2.9,0.1,5.6,1.6,7.4c1.7,1.9,4.4,3,8,3
			c6.4,0,11.1-3.7,12.3-9.2c0.2-0.6,0.3-1.2,0.4-1.9l0.1-0.4l1.8-12.6H198L196.5,52.1z"/>
		<path class="st0" d="M250.1,31.5l-18.7,34.1h6.8l3.7-7h14.3l1.8,7h6.9l-9.5-34.1H250.1z M245.1,52.9l6.3-12.1l3.3,12.1H245.1z"/>
		<path class="st0" d="M294.3,36.5c-2-2.6-4.9-4.3-8.1-4.7c-1.1-0.2-2.4-0.2-3.6-0.2l-9.9,0L268,65.6h9.8c1.3,0,2.5-0.2,3.7-0.2
			c8.4,0,14.5-7.3,15.6-17.1C297.6,43.8,296.7,39.6,294.3,36.5z M290.5,48.4c-0.8,5.8-3.9,10.1-8.4,10.9c-2.3,0.3-4.4,0.4-6.5,0.4
			h-0.4l0.1-0.4l3.1-22h0.3c2.2,0,4.3,0.2,6.4,0.5l0,0C289.3,38.6,291.3,42.5,290.5,48.4z"/>
		<polygon class="st0" points="139.7,65.6 145.8,65.6 150.4,31.5 144.3,31.5 		"/>
		<path class="st0" d="M227.1,31.5l-1.5,11.2l-0.4-0.2c-1.6-0.7-3.3-1-5-1c-1.2,0-2.3,0.1-3.1,0.2c-5.2,0.8-9.9,5.3-11.1,10.7
			c-0.1,0.6-0.2,1.2-0.3,1.9c-0.2,3.1,0.6,6,2.4,8.1c1.6,1.8,3.7,2.9,6.2,3c0.8,0,1.5,0,2.2,0c1.9-0.1,3.6-0.5,5.3-1.2l0.5-0.2
			l-0.2,1.4l0,0h6.2l0,0l4.8-34.1H227.1z M223.9,54.9c-0.9,3.3-3.5,5.3-6.7,5.3c-1.7,0-3.1-0.6-4-1.7c-1.1-1.2-1.5-3-1.2-5
			c0.6-3.9,3.4-6.6,7-6.6c3.2,0,5.2,2.2,5.2,5.5L223.9,54.9z"/>
	</g>
	<rect x="-31.3" y="-29.7" class="st1" width="362.7" height="129.4"/>
</g>
</svg>
