<?xml version="1.0" encoding="utf-8"?>
<!-- Generator: Adobe Illustrator 24.3.0, SVG Export Plug-In . SVG Version: 6.00 Build 0)  -->
<svg version="1.1" id="圖層_1" xmlns="http://www.w3.org/2000/svg" xmlns:xlink="http://www.w3.org/1999/xlink" x="0px" y="0px"
	 viewBox="0 0 300 100" style="enable-background:new 0 0 300 100;" xml:space="preserve">
<style type="text/css">
	.st0{fill:#58595B;}
	.st1{fill:#F99D33;}
	.st2{fill:#231F20;}
</style>
<g>
	<path class="st0" d="M186.9,54.3l7.2-29.1c0.6-2.4,0.9-4.5,0.9-6.5c0-5.8-2.4-8.6-7.1-8.6c-5,0-9.5,2.5-13.5,7.5l-16.7,20.5l4-16.1
		c0.4-1.7,0.6-3.2,0.6-4.6c0-4.9-2.2-7.3-6.6-7.3c-5.3,0-10.2,2.6-14.4,7.7l-17.2,20.3l6.3-25.8h-20.2l-4.4,18.2
		c0.7,2.8,1,5.7,1,8.8c0,10-3.1,18.2-9.1,24.5l-0.8,3.4h11.4c2.8,0,5.2-1.2,7.1-3.5L137.7,37l-4.5,17.4c-0.6,2.1-0.8,4-0.8,5.8
		c0,5.5,2.5,8.2,7.6,8.2c3.4,0,7.5-2.8,12.3-8.6L171.2,37c-1.6,7.6-2.9,13.4-3.7,17.4c-0.2,0.8-0.2,1.6-0.2,2.5
		c0,2.7,0.8,5.1,2.3,7.2s3.2,3.2,5,3.2h22.7c7.4,0,11.6-4.3,12.7-12.9L186.9,54.3"/>
	<path class="st1" d="M80.6,40.2c0,3.2-2.6,5.8-5.8,5.8H53.3c-3.2,0-5.8-2.6-5.8-5.8c0-3.2,2.6-5.8,5.8-5.8h21.5
		C78,34.4,80.6,37,80.6,40.2"/>
	<g>
		<path class="st0" d="M92.9,18.7C87.4,14.3,81,13.2,81,13.2C76.9,12.6,70.2,12,66.1,12H55.2v0.1H55c-4.1,0-7.5,3.3-7.5,7.3
			s3.4,7.3,7.5,7.3h13c3.5,0.2,7.3,0.4,10,0.7c0,0,1.6,0.2,4.4,2.2c3,2.2,4.4,5.5,4.4,10c0,4.6-1.3,7.9-3.9,10
			c-2.5,2-3.5,2.1-3.5,2.1c-4.1,0.5-10.8,0.9-15,0.9H20c-4.1,0-7.5,3.3-7.5,7.3s3.4,7.3,7.5,7.3h47.1c4.1,0,10.9-0.5,14.9-1.2
			c0,0,6.8-1.1,11.9-5.6c5.8-5.1,8.7-12.1,8.7-20.9C102.7,31,99.4,23.9,92.9,18.7"/>
	</g>
	<path class="st0" d="M259,54.3l12.9-42h-39.2c-9.8,0-18,3-24.7,8.9c-7.3,6.5-11,15.4-11,26.6c0,6.2,1.7,11.3,5,15.2
		c3.3,3.9,7.7,5.8,13,5.8c7.3,0,13.4-3.3,18.4-10l-6.8-13.3l-7.8,1.9l3.9-25.6l15.2,21l-6.5,1.6l2.1,14.5c0,5.6,3.7,8.4,11.1,8.4h26
		c9,0,14.6-4.3,16.8-12.9L259,54.3"/>
	<polygon class="st2" points="23.9,79.2 29.8,79.2 29.8,79.8 27.2,79.8 27.2,87.4 26.5,87.4 26.5,79.8 23.9,79.8 	"/>
	<path class="st2" d="M33.7,83.9c0.1,0,0.3,0,0.5-0.1c0.2,0,0.3-0.1,0.4-0.1c0.1-0.1,0.2-0.1,0.2-0.3c0-0.1,0-0.2,0-0.3
		c0-0.3-0.1-0.6-0.3-0.9c-0.2-0.2-0.6-0.3-1.1-0.3c-0.2,0-0.5,0-0.6,0.1c-0.2,0-0.4,0.1-0.5,0.2s-0.3,0.2-0.4,0.4
		c-0.1,0.2-0.2,0.4-0.2,0.6H31c0-0.4,0.1-0.6,0.2-0.9c0.1-0.2,0.3-0.4,0.5-0.6s0.5-0.3,0.8-0.3c0.3-0.1,0.6-0.1,0.9-0.1
		c0.3,0,0.6,0,0.8,0.1c0.3,0.1,0.5,0.2,0.7,0.3c0.2,0.1,0.3,0.3,0.5,0.6c0.1,0.2,0.2,0.5,0.2,0.9v3.2c0,0.3,0,0.4,0.1,0.5
		s0.3,0.1,0.6-0.1v0.5c-0.1,0-0.1,0-0.2,0.1c-0.1,0-0.2,0-0.3,0s-0.2,0-0.3,0s-0.2-0.1-0.3-0.1c-0.1-0.1-0.1-0.1-0.2-0.2
		c0-0.1-0.1-0.2-0.1-0.3c0-0.1,0-0.2,0-0.3c-0.3,0.3-0.6,0.6-1,0.7c-0.4,0.2-0.8,0.3-1.2,0.3c-0.3,0-0.5,0-0.7-0.1s-0.4-0.2-0.6-0.3
		c-0.2-0.1-0.3-0.3-0.4-0.5s-0.2-0.5-0.2-0.7c0-1,0.7-1.6,2.1-1.8L33.7,83.9z M34.8,84.3c-0.3,0.1-0.6,0.2-0.9,0.2
		c-0.3,0-0.6,0.1-0.9,0.1c-0.5,0-0.9,0.2-1.2,0.4c-0.3,0.2-0.4,0.5-0.4,0.9c0,0.2,0,0.3,0.1,0.5c0.1,0.1,0.2,0.2,0.3,0.3
		c0.1,0.1,0.3,0.2,0.4,0.2c0.2,0,0.3,0.1,0.5,0.1c0.3,0,0.5,0,0.8-0.1s0.5-0.2,0.7-0.3c0.2-0.1,0.4-0.3,0.5-0.5s0.2-0.5,0.2-0.8
		L34.8,84.3L34.8,84.3z"/>
	<path class="st2" d="M37.5,79.2h0.8v1h-0.8V79.2z M37.5,81.5h0.7v5.9h-0.7V81.5z"/>
	<polygon class="st2" points="45.1,86.5 46.6,81.5 47.3,81.5 45.4,87.4 44.7,87.4 43.4,82.4 43.3,82.4 42,87.4 41.2,87.4 39.4,81.5 
		40.1,81.5 41.6,86.5 43,81.5 43.8,81.5 	"/>
	<path class="st2" d="M51.1,83.9c0.1,0,0.3,0,0.5-0.1c0.2,0,0.3-0.1,0.4-0.1c0.1-0.1,0.2-0.1,0.2-0.3c0-0.1,0-0.2,0-0.3
		c0-0.3-0.1-0.6-0.3-0.9c-0.2-0.2-0.6-0.3-1.1-0.3c-0.2,0-0.5,0-0.6,0.1c-0.2,0-0.4,0.1-0.5,0.2s-0.3,0.2-0.4,0.4
		c-0.1,0.2-0.2,0.4-0.2,0.6h-0.7c0-0.4,0.1-0.6,0.2-0.9c0.1-0.2,0.3-0.4,0.5-0.6s0.5-0.3,0.8-0.3c0.3-0.1,0.6-0.1,0.9-0.1
		c0.3,0,0.6,0,0.8,0.1c0.3,0.1,0.5,0.2,0.7,0.3c0.2,0.1,0.3,0.3,0.5,0.6c0.1,0.2,0.2,0.5,0.2,0.9v3.2c0,0.3,0,0.4,0.1,0.5
		s0.3,0.1,0.6-0.1v0.5c-0.1,0-0.1,0-0.2,0.1c-0.1,0-0.2,0-0.3,0s-0.2,0-0.3,0s-0.2-0.1-0.3-0.1c-0.1-0.1-0.1-0.1-0.2-0.2
		c0-0.1-0.1-0.2-0.1-0.3c0-0.1,0-0.2,0-0.3c-0.3,0.3-0.6,0.6-1,0.7c-0.4,0.2-0.8,0.3-1.2,0.3c-0.3,0-0.5,0-0.7-0.1s-0.4-0.2-0.6-0.3
		c-0.2-0.1-0.3-0.3-0.4-0.5c-0.1-0.2-0.2-0.5-0.2-0.7c0-1,0.7-1.6,2.1-1.8L51.1,83.9z M52.3,84.3c-0.3,0.1-0.6,0.2-0.9,0.2
		c-0.3,0-0.6,0.1-0.9,0.1c-0.5,0-0.9,0.2-1.2,0.4c-0.3,0.2-0.4,0.5-0.4,0.9c0,0.2,0,0.3,0.1,0.5c0.1,0.1,0.2,0.2,0.3,0.3
		c0.1,0.1,0.3,0.2,0.4,0.2c0.2,0,0.3,0.1,0.5,0.1c0.3,0,0.5,0,0.8-0.1s0.5-0.2,0.7-0.3c0.2-0.1,0.4-0.3,0.5-0.5s0.2-0.5,0.2-0.8
		L52.3,84.3L52.3,84.3z"/>
	<path class="st2" d="M55.5,87.4h-0.7v-5.9h0.7v0.8c0.3-0.3,0.6-0.5,0.8-0.7c0.3-0.2,0.6-0.3,1.1-0.3c0.4,0,0.7,0.1,1,0.2
		s0.6,0.3,0.8,0.7c0.1,0.2,0.2,0.4,0.3,0.7c0,0.2,0,0.5,0,0.7v3.9h-0.7v-3.9c0-0.5-0.1-0.9-0.4-1.2c-0.2-0.3-0.6-0.4-1.2-0.4
		c-0.2,0-0.4,0-0.6,0.1c-0.2,0.1-0.3,0.2-0.5,0.3c-0.1,0.1-0.3,0.2-0.4,0.4c-0.1,0.1-0.2,0.3-0.2,0.4c-0.1,0.2-0.1,0.4-0.1,0.5
		c0,0.2,0,0.4,0,0.6v3.1H55.5z"/>
	<path class="st2" d="M64.7,87.4v-8.2h2.8c0.2,0,0.5,0,0.7,0s0.4,0,0.7,0.1c0.2,0,0.4,0.1,0.6,0.2s0.4,0.2,0.6,0.3
		c0.3,0.2,0.5,0.4,0.7,0.7c0.2,0.3,0.3,0.6,0.4,0.9s0.2,0.6,0.2,1c0,0.3,0.1,0.6,0.1,0.9s0,0.6-0.1,0.8c0,0.3-0.1,0.6-0.2,0.8
		c-0.1,0.3-0.2,0.5-0.3,0.8c-0.1,0.2-0.3,0.5-0.5,0.7s-0.4,0.4-0.6,0.5s-0.5,0.2-0.7,0.3c-0.2,0.1-0.5,0.1-0.8,0.1s-0.5,0-0.8,0
		L64.7,87.4L64.7,87.4z M65.5,86.7h1.9c0.4,0,0.7,0,1-0.1c0.3,0,0.6-0.1,0.9-0.3c0.3-0.1,0.5-0.3,0.7-0.6c0.2-0.2,0.3-0.5,0.4-0.8
		s0.2-0.6,0.2-0.9s0.1-0.6,0.1-0.9s0-0.6-0.1-0.9c0-0.3-0.1-0.6-0.2-0.9s-0.3-0.5-0.4-0.8c-0.2-0.2-0.4-0.4-0.7-0.6
		c-0.2-0.1-0.5-0.2-0.9-0.3c-0.3,0-0.7-0.1-1-0.1h-1.9V86.7z"/>
	<path class="st2" d="M73,79.2h0.8v1H73V79.2z M73,81.5h0.7v5.9H73V81.5z"/>
	<path class="st2" d="M80.2,81.5h0.7v5.3c0,0.4,0,0.8-0.1,1.1c-0.1,0.4-0.2,0.7-0.4,1c-0.2,0.3-0.5,0.5-0.8,0.7
		c-0.4,0.2-0.8,0.2-1.4,0.2c-0.4,0-0.8-0.1-1.1-0.2c-0.3-0.1-0.6-0.2-0.8-0.4c-0.2-0.2-0.3-0.4-0.4-0.6s-0.2-0.4-0.2-0.6h0.7
		c0.1,0.2,0.1,0.4,0.3,0.5c0.1,0.1,0.2,0.2,0.4,0.3c0.2,0.1,0.3,0.1,0.5,0.2c0.2,0,0.4,0,0.6,0c0.5,0,0.8-0.1,1.1-0.2
		c0.3-0.2,0.5-0.4,0.6-0.6c0.1-0.3,0.2-0.6,0.3-0.9c0-0.3,0.1-0.7,0.1-1c-0.2,0.4-0.5,0.6-0.9,0.8c-0.4,0.2-0.8,0.3-1.2,0.3
		c-0.4,0-0.8-0.1-1.2-0.3c-0.3-0.2-0.6-0.4-0.8-0.7c-0.2-0.3-0.4-0.6-0.5-1s-0.2-0.8-0.2-1.2c0-0.4,0-0.8,0.1-1.2
		c0.1-0.4,0.3-0.7,0.5-1s0.5-0.5,0.8-0.7s0.7-0.2,1.2-0.2c0.2,0,0.4,0,0.6,0.1s0.4,0.1,0.6,0.2s0.4,0.2,0.5,0.4
		c0.2,0.2,0.3,0.3,0.4,0.5l0,0C80.2,82.3,80.2,81.5,80.2,81.5z M80.2,84.5c0-0.4,0-0.7-0.1-1s-0.2-0.6-0.4-0.8
		c-0.2-0.2-0.4-0.4-0.6-0.5c-0.3-0.1-0.5-0.2-0.9-0.2c-0.3,0-0.6,0.1-0.8,0.2c-0.2,0.1-0.5,0.3-0.6,0.5c-0.2,0.2-0.3,0.4-0.4,0.7
		c-0.1,0.3-0.2,0.6-0.2,1s0,0.7,0.1,1s0.2,0.6,0.4,0.8c0.2,0.2,0.4,0.4,0.6,0.6c0.3,0.1,0.6,0.2,0.9,0.2s0.6-0.1,0.8-0.2
		c0.2-0.1,0.5-0.3,0.6-0.5c0.2-0.2,0.3-0.5,0.4-0.8C80.1,85.1,80.2,84.8,80.2,84.5"/>
	<path class="st2" d="M82.7,79.2h0.8v1h-0.8V79.2z M82.8,81.5h0.7v5.9h-0.7V81.5z"/>
	<path class="st2" d="M87.4,87.4c-0.1,0-0.2,0-0.3,0.1c-0.1,0-0.3,0.1-0.5,0.1c-0.3,0-0.6-0.1-0.8-0.3c-0.2-0.2-0.3-0.5-0.3-0.9
		v-4.3h-0.8v-0.6h0.8v-1.6h0.7v1.6h1.1v0.6h-1.1v4c0,0.1,0,0.3,0,0.4s0,0.2,0.1,0.3c0,0.1,0.1,0.1,0.2,0.1s0.2,0,0.3,0
		c0.1,0,0.2,0,0.3,0c0.1,0,0.2,0,0.3-0.1C87.4,86.8,87.4,87.4,87.4,87.4z"/>
	<path class="st2" d="M91.3,83.9c0.1,0,0.3,0,0.5-0.1c0.2,0,0.3-0.1,0.4-0.1c0.1-0.1,0.2-0.1,0.2-0.3c0-0.1,0-0.2,0-0.3
		c0-0.3-0.1-0.6-0.3-0.9c-0.2-0.2-0.6-0.3-1.1-0.3c-0.2,0-0.5,0-0.6,0.1c-0.2,0-0.4,0.1-0.5,0.2s-0.3,0.2-0.4,0.4
		c-0.1,0.2-0.2,0.4-0.2,0.6h-0.7c0-0.4,0.1-0.6,0.2-0.9c0.1-0.2,0.3-0.4,0.5-0.6s0.5-0.3,0.8-0.3c0.3-0.1,0.6-0.1,0.9-0.1
		s0.6,0,0.8,0.1c0.3,0.1,0.5,0.2,0.7,0.3c0.2,0.1,0.3,0.3,0.5,0.6c0.1,0.2,0.2,0.5,0.2,0.9v3.2c0,0.3,0,0.4,0.1,0.5s0.3,0.1,0.6-0.1
		v0.5c-0.1,0-0.1,0-0.2,0.1c-0.1,0-0.2,0-0.3,0c-0.1,0-0.2,0-0.3,0c-0.1,0-0.2-0.1-0.3-0.1c-0.1-0.1-0.1-0.1-0.2-0.2
		c0-0.1-0.1-0.2-0.1-0.3c0-0.1,0-0.2,0-0.3c-0.3,0.3-0.6,0.6-1,0.7c-0.4,0.2-0.8,0.3-1.2,0.3c-0.3,0-0.5,0-0.7-0.1s-0.4-0.2-0.6-0.3
		c-0.2-0.1-0.3-0.3-0.4-0.5s-0.2-0.5-0.2-0.7c0-1,0.7-1.6,2.1-1.8L91.3,83.9z M92.5,84.3c-0.3,0.1-0.6,0.2-0.9,0.2s-0.6,0.1-0.9,0.1
		c-0.5,0-0.9,0.2-1.2,0.4c-0.3,0.2-0.4,0.5-0.4,0.9c0,0.2,0,0.3,0.1,0.5c0.1,0.1,0.2,0.2,0.3,0.3c0.1,0.1,0.3,0.2,0.4,0.2
		c0.2,0,0.3,0.1,0.5,0.1c0.3,0,0.5,0,0.8-0.1s0.5-0.2,0.7-0.3c0.2-0.1,0.4-0.3,0.5-0.5s0.2-0.5,0.2-0.8L92.5,84.3L92.5,84.3z"/>
	<rect x="95.2" y="79.2" class="st2" width="0.7" height="8.2"/>
	<polygon class="st2" points="101.1,87.4 101.1,79.2 102.2,79.2 104.9,86.4 105,86.4 107.6,79.2 108.8,79.2 108.8,87.4 108,87.4 
		108,80.1 108,80.1 105.3,87.4 104.6,87.4 101.9,80.1 101.8,80.1 101.8,87.4 	"/>
	<path class="st2" d="M111,84.6c0,0.3,0,0.6,0.1,0.9s0.2,0.5,0.4,0.7c0.2,0.2,0.4,0.4,0.6,0.5c0.3,0.1,0.5,0.2,0.9,0.2
		s0.8-0.1,1.2-0.4c0.3-0.2,0.5-0.6,0.6-1h0.8c-0.1,0.3-0.2,0.5-0.3,0.8c-0.1,0.2-0.3,0.4-0.5,0.6s-0.4,0.3-0.7,0.4
		c-0.3,0.1-0.6,0.1-1,0.1c-0.5,0-0.9-0.1-1.2-0.2c-0.3-0.2-0.6-0.4-0.8-0.7c-0.2-0.3-0.4-0.6-0.5-1s-0.2-0.8-0.2-1.2
		c0-0.4,0.1-0.8,0.2-1.2c0.1-0.4,0.3-0.7,0.5-1s0.5-0.5,0.8-0.7s0.7-0.2,1.1-0.2c0.8,0,1.5,0.3,1.9,0.8c0.5,0.6,0.7,1.4,0.7,2.4H111
		V84.6z M114.9,84c0-0.3,0-0.6-0.1-0.8c-0.1-0.3-0.2-0.5-0.4-0.7c-0.2-0.2-0.4-0.3-0.6-0.4s-0.5-0.2-0.8-0.2s-0.6,0.1-0.8,0.2
		c-0.2,0.1-0.4,0.3-0.6,0.5s-0.3,0.4-0.4,0.7c-0.1,0.3-0.2,0.5-0.2,0.8L114.9,84L114.9,84z"/>
	<path class="st2" d="M121.6,79.2h0.7v8.2h-0.7v-1l0,0c-0.1,0.2-0.2,0.4-0.4,0.5c-0.2,0.1-0.3,0.3-0.5,0.4s-0.4,0.2-0.6,0.2
		c-0.2,0.1-0.4,0.1-0.6,0.1c-0.5,0-0.9-0.1-1.2-0.2c-0.3-0.2-0.6-0.4-0.8-0.7c-0.2-0.3-0.4-0.6-0.5-1s-0.1-0.8-0.1-1.2
		c0-0.4,0.1-0.8,0.2-1.2c0.1-0.4,0.3-0.7,0.5-1s0.5-0.5,0.8-0.7s0.7-0.3,1.2-0.3c0.4,0,0.8,0.1,1.2,0.3c0.4,0.2,0.7,0.5,0.9,0.8
		L121.6,79.2L121.6,79.2z M121.6,84.4c0-0.3,0-0.7-0.1-1s-0.2-0.6-0.4-0.8c-0.2-0.2-0.4-0.4-0.6-0.5s-0.5-0.2-0.8-0.2
		c-0.4,0-0.7,0.1-0.9,0.2c-0.3,0.1-0.5,0.3-0.6,0.6c-0.2,0.2-0.3,0.5-0.4,0.8s-0.1,0.7-0.1,1c0,0.4,0.1,0.7,0.2,1s0.2,0.5,0.4,0.7
		c0.2,0.2,0.4,0.3,0.6,0.5c0.2,0.1,0.5,0.2,0.8,0.2s0.6-0.1,0.9-0.2s0.5-0.3,0.6-0.5c0.2-0.2,0.3-0.5,0.4-0.8
		C121.6,85.1,121.6,84.8,121.6,84.4"/>
	<path class="st2" d="M124.2,79.2h0.8v1h-0.8V79.2z M124.2,81.5h0.7v5.9h-0.7V81.5z"/>
	<path class="st2" d="M129.5,83.9c0.1,0,0.3,0,0.5-0.1c0.2,0,0.3-0.1,0.4-0.1c0.1-0.1,0.2-0.1,0.2-0.3c0-0.1,0-0.2,0-0.3
		c0-0.3-0.1-0.6-0.3-0.9c-0.2-0.2-0.6-0.3-1.1-0.3c-0.2,0-0.5,0-0.6,0.1c-0.2,0-0.4,0.1-0.5,0.2c-0.1,0.1-0.3,0.2-0.4,0.4
		c-0.1,0.2-0.2,0.4-0.2,0.6h-0.7c0-0.4,0.1-0.6,0.2-0.9c0.1-0.2,0.3-0.4,0.5-0.6s0.5-0.3,0.8-0.3c0.3-0.1,0.6-0.1,0.9-0.1
		c0.3,0,0.6,0,0.8,0.1c0.3,0.1,0.5,0.2,0.7,0.3c0.2,0.1,0.3,0.3,0.5,0.6c0.1,0.2,0.2,0.5,0.2,0.9v3.2c0,0.3,0,0.4,0.1,0.5
		s0.3,0.1,0.6-0.1v0.5c-0.1,0-0.1,0-0.2,0.1c-0.1,0-0.2,0-0.3,0s-0.2,0-0.3,0s-0.2-0.1-0.3-0.1c-0.1-0.1-0.1-0.1-0.2-0.2
		c0-0.1-0.1-0.2-0.1-0.3c0-0.1,0-0.2,0-0.3c-0.3,0.3-0.6,0.6-1,0.7c-0.4,0.2-0.8,0.3-1.2,0.3c-0.3,0-0.5,0-0.7-0.1s-0.4-0.2-0.6-0.3
		c-0.2-0.1-0.3-0.3-0.4-0.5s-0.2-0.5-0.2-0.7c0-1,0.7-1.6,2.1-1.8L129.5,83.9z M130.6,84.3c-0.3,0.1-0.6,0.2-0.9,0.2
		c-0.3,0-0.6,0.1-0.9,0.1c-0.5,0-0.9,0.2-1.2,0.4c-0.3,0.2-0.4,0.5-0.4,0.9c0,0.2,0,0.3,0.1,0.5c0.1,0.1,0.2,0.2,0.3,0.3
		c0.1,0.1,0.3,0.2,0.4,0.2c0.2,0,0.3,0.1,0.5,0.1c0.3,0,0.5,0,0.8-0.1s0.5-0.2,0.7-0.3c0.2-0.1,0.4-0.3,0.5-0.5s0.2-0.5,0.2-0.8v-1
		H130.6z"/>
	<path class="st2" d="M139.2,83.9c0.1,0,0.3,0,0.5-0.1c0.2,0,0.3-0.1,0.4-0.1c0.1-0.1,0.2-0.1,0.2-0.3c0-0.1,0-0.2,0-0.3
		c0-0.3-0.1-0.6-0.3-0.9c-0.2-0.2-0.6-0.3-1.1-0.3c-0.2,0-0.5,0-0.6,0.1c-0.2,0-0.4,0.1-0.5,0.2s-0.3,0.2-0.4,0.4
		c-0.1,0.2-0.2,0.4-0.2,0.6h-0.7c0-0.4,0.1-0.6,0.2-0.9c0.1-0.2,0.3-0.4,0.5-0.6s0.5-0.3,0.8-0.3c0.3-0.1,0.6-0.1,0.9-0.1
		c0.3,0,0.6,0,0.8,0.1c0.3,0.1,0.5,0.2,0.7,0.3c0.2,0.1,0.3,0.3,0.5,0.6c0.1,0.2,0.2,0.5,0.2,0.9v3.2c0,0.3,0,0.4,0.1,0.5
		s0.3,0.1,0.6-0.1v0.5c-0.1,0-0.1,0-0.2,0.1c-0.1,0-0.2,0-0.3,0s-0.2,0-0.3,0s-0.2-0.1-0.3-0.1c-0.1-0.1-0.1-0.1-0.2-0.2
		c0-0.1-0.1-0.2-0.1-0.3c0-0.1,0-0.2,0-0.3c-0.3,0.3-0.6,0.6-1,0.7c-0.4,0.2-0.8,0.3-1.2,0.3c-0.3,0-0.5,0-0.7-0.1s-0.4-0.2-0.6-0.3
		c-0.2-0.1-0.3-0.3-0.4-0.5c-0.1-0.2-0.2-0.5-0.2-0.7c0-1,0.7-1.6,2.1-1.8L139.2,83.9z M140.4,84.3c-0.3,0.1-0.6,0.2-0.9,0.2
		c-0.3,0-0.6,0.1-0.9,0.1c-0.5,0-0.9,0.2-1.2,0.4c-0.3,0.2-0.4,0.5-0.4,0.9c0,0.2,0,0.3,0.1,0.5c0.1,0.1,0.2,0.2,0.3,0.3
		c0.1,0.1,0.3,0.2,0.4,0.2c0.2,0,0.3,0.1,0.5,0.1c0.3,0,0.5,0,0.8-0.1s0.5-0.2,0.7-0.3c0.2-0.1,0.4-0.3,0.5-0.5s0.2-0.5,0.2-0.8v-1
		H140.4z"/>
	<path class="st2" d="M143.7,87.4H143v-5.9h0.7v0.8c0.3-0.3,0.6-0.5,0.8-0.7c0.3-0.2,0.6-0.3,1.1-0.3c0.4,0,0.7,0.1,1,0.2
		s0.6,0.3,0.8,0.7c0.1,0.2,0.2,0.4,0.3,0.7c0,0.2,0,0.5,0,0.7v3.9H147v-3.9c0-0.5-0.1-0.9-0.4-1.2c-0.2-0.3-0.6-0.4-1.2-0.4
		c-0.2,0-0.4,0-0.6,0.1c-0.2,0.1-0.3,0.2-0.5,0.3c-0.1,0.1-0.3,0.2-0.4,0.4c-0.1,0.1-0.2,0.3-0.2,0.4c-0.1,0.2-0.1,0.4-0.1,0.5
		c0,0.2,0,0.4,0,0.6L143.7,87.4L143.7,87.4z"/>
	<path class="st2" d="M154,79.2h0.7v8.2H154v-1l0,0c-0.1,0.2-0.2,0.4-0.4,0.5s-0.3,0.3-0.5,0.4s-0.4,0.2-0.6,0.2
		c-0.2,0.1-0.4,0.1-0.6,0.1c-0.5,0-0.9-0.1-1.2-0.2c-0.3-0.2-0.6-0.4-0.8-0.7c-0.2-0.3-0.4-0.6-0.5-1s-0.1-0.8-0.1-1.2
		c0-0.4,0.1-0.8,0.2-1.2c0.1-0.4,0.3-0.7,0.5-1s0.5-0.5,0.8-0.7s0.7-0.3,1.2-0.3c0.4,0,0.8,0.1,1.2,0.3c0.4,0.2,0.7,0.5,0.9,0.8
		L154,79.2L154,79.2z M154,84.4c0-0.3,0-0.7-0.1-1s-0.2-0.6-0.4-0.8c-0.2-0.2-0.4-0.4-0.6-0.5c-0.2-0.1-0.5-0.2-0.8-0.2
		c-0.4,0-0.7,0.1-0.9,0.2c-0.3,0.1-0.5,0.3-0.6,0.6c-0.2,0.2-0.3,0.5-0.4,0.8c-0.1,0.3-0.1,0.7-0.1,1c0,0.4,0.1,0.7,0.2,1
		c0.1,0.3,0.2,0.5,0.4,0.7s0.4,0.3,0.6,0.5c0.2,0.1,0.5,0.2,0.8,0.2s0.6-0.1,0.9-0.2c0.3-0.1,0.5-0.3,0.6-0.5
		c0.2-0.2,0.3-0.5,0.4-0.8C153.9,85.1,154,84.8,154,84.4"/>
	<polygon class="st2" points="159.9,87.4 159.9,79.2 161,79.2 163.7,86.4 163.8,86.4 166.4,79.2 167.6,79.2 167.6,87.4 166.8,87.4 
		166.8,80.1 166.8,80.1 164.1,87.4 163.4,87.4 160.7,80.1 160.6,80.1 160.6,87.4 	"/>
	<path class="st2" d="M172.1,83.9c0.1,0,0.3,0,0.5-0.1c0.2,0,0.3-0.1,0.4-0.1c0.1-0.1,0.2-0.1,0.2-0.3c0-0.1,0-0.2,0-0.3
		c0-0.3-0.1-0.6-0.3-0.9c-0.2-0.2-0.6-0.3-1.1-0.3c-0.2,0-0.5,0-0.6,0.1c-0.2,0-0.4,0.1-0.5,0.2s-0.3,0.2-0.4,0.4
		c-0.1,0.2-0.2,0.4-0.2,0.6h-0.7c0-0.4,0.1-0.6,0.2-0.9c0.1-0.2,0.3-0.4,0.5-0.6s0.5-0.3,0.8-0.3c0.3-0.1,0.6-0.1,0.9-0.1
		c0.3,0,0.6,0,0.8,0.1c0.3,0.1,0.5,0.2,0.7,0.3c0.2,0.1,0.3,0.3,0.5,0.6c0.1,0.2,0.2,0.5,0.2,0.9v3.2c0,0.3,0,0.4,0.1,0.5
		s0.3,0.1,0.6-0.1v0.5c-0.1,0-0.1,0-0.2,0.1c-0.1,0-0.2,0-0.3,0s-0.2,0-0.3,0s-0.2-0.1-0.3-0.1c-0.1-0.1-0.1-0.1-0.2-0.2
		c0-0.1-0.1-0.2-0.1-0.3c0-0.1,0-0.2,0-0.3c-0.3,0.3-0.6,0.6-1,0.7c-0.4,0.2-0.8,0.3-1.2,0.3c-0.3,0-0.5,0-0.7-0.1s-0.4-0.2-0.6-0.3
		c-0.2-0.1-0.3-0.3-0.4-0.5c-0.1-0.2-0.2-0.5-0.2-0.7c0-1,0.7-1.6,2.1-1.8L172.1,83.9z M173.3,84.3c-0.3,0.1-0.6,0.2-0.9,0.2
		c-0.3,0-0.6,0.1-0.9,0.1c-0.5,0-0.9,0.2-1.2,0.4c-0.3,0.2-0.4,0.5-0.4,0.9c0,0.2,0,0.3,0.1,0.5c0.1,0.1,0.2,0.2,0.3,0.3
		c0.1,0.1,0.3,0.2,0.4,0.2c0.2,0,0.3,0.1,0.5,0.1c0.3,0,0.5,0,0.8-0.1s0.5-0.2,0.7-0.3c0.2-0.1,0.4-0.3,0.5-0.5s0.2-0.5,0.2-0.8v-1
		H173.3z"/>
	<path class="st2" d="M176.6,87.4h-0.7v-5.9h0.7v1.1l0,0c0.2-0.5,0.4-0.8,0.7-1s0.7-0.3,1.2-0.3V82c-0.4,0-0.7,0.1-1,0.2
		s-0.5,0.3-0.6,0.5s-0.3,0.5-0.3,0.8c-0.1,0.3-0.1,0.6-0.1,0.9v3H176.6z"/>
	<polygon class="st2" points="179.7,87.4 179.7,79.2 180.4,79.2 180.4,84.3 183.3,81.5 184.2,81.5 182,83.6 184.5,87.4 183.7,87.4 
		181.5,84.1 180.4,85.2 180.4,87.4 	"/>
	<path class="st2" d="M186,84.6c0,0.3,0,0.6,0.1,0.9s0.2,0.5,0.4,0.7s0.4,0.4,0.6,0.5c0.3,0.1,0.5,0.2,0.9,0.2s0.8-0.1,1.2-0.4
		c0.3-0.2,0.5-0.6,0.6-1h0.8c-0.1,0.3-0.2,0.5-0.3,0.8c-0.1,0.2-0.3,0.4-0.5,0.6s-0.4,0.3-0.7,0.4s-0.6,0.1-1,0.1
		c-0.5,0-0.9-0.1-1.2-0.2c-0.3-0.2-0.6-0.4-0.8-0.7c-0.2-0.3-0.4-0.6-0.5-1s-0.2-0.8-0.2-1.2c0-0.4,0.1-0.8,0.2-1.2
		c0.1-0.4,0.3-0.7,0.5-1s0.5-0.5,0.8-0.7s0.7-0.2,1.1-0.2c0.8,0,1.5,0.3,1.9,0.8c0.5,0.6,0.7,1.4,0.7,2.4H186V84.6z M189.9,84
		c0-0.3,0-0.6-0.1-0.8c-0.1-0.3-0.2-0.5-0.4-0.7s-0.4-0.3-0.6-0.4c-0.2-0.1-0.5-0.2-0.8-0.2s-0.6,0.1-0.8,0.2s-0.4,0.3-0.6,0.5
		c-0.2,0.2-0.3,0.4-0.4,0.7c-0.1,0.3-0.2,0.5-0.2,0.8L189.9,84L189.9,84z"/>
	<path class="st2" d="M194.1,87.4c-0.1,0-0.2,0-0.3,0.1c-0.1,0-0.3,0.1-0.5,0.1c-0.3,0-0.6-0.1-0.8-0.3c-0.2-0.2-0.3-0.5-0.3-0.9
		v-4.3h-0.8v-0.6h0.8v-1.6h0.7v1.6h1.1v0.6h-1v4c0,0.1,0,0.3,0,0.4s0,0.2,0.1,0.3c0,0.1,0.1,0.1,0.2,0.1c0.1,0,0.2,0,0.3,0
		s0.2,0,0.3,0s0.2,0,0.3-0.1v0.6H194.1z"/>
	<path class="st2" d="M195.4,79.2h0.8v1h-0.8V79.2z M195.4,81.5h0.7v5.9h-0.7V81.5z"/>
	<path class="st2" d="M198.7,87.4H198v-5.9h0.7v0.8c0.3-0.3,0.6-0.5,0.8-0.7c0.3-0.2,0.6-0.3,1.1-0.3c0.4,0,0.7,0.1,1,0.2
		s0.6,0.3,0.8,0.7c0.1,0.2,0.2,0.4,0.3,0.7c0,0.2,0,0.5,0,0.7v3.9H202v-3.9c0-0.5-0.1-0.9-0.4-1.2c-0.2-0.3-0.6-0.4-1.2-0.4
		c-0.2,0-0.4,0-0.6,0.1c-0.2,0.1-0.3,0.2-0.5,0.3c-0.1,0.1-0.3,0.2-0.4,0.4c-0.1,0.1-0.2,0.3-0.2,0.4c-0.1,0.2-0.1,0.4-0.1,0.5
		c0,0.2,0,0.4,0,0.6L198.7,87.4L198.7,87.4z"/>
	<path class="st2" d="M209,81.5h0.7v5.3c0,0.4,0,0.8-0.1,1.1c-0.1,0.4-0.2,0.7-0.4,1s-0.5,0.5-0.8,0.7c-0.4,0.2-0.8,0.2-1.4,0.2
		c-0.4,0-0.8-0.1-1.1-0.2s-0.6-0.2-0.8-0.4c-0.2-0.2-0.3-0.4-0.5-0.6c-0.1-0.2-0.2-0.4-0.2-0.6h0.7c0.1,0.2,0.1,0.4,0.3,0.5
		c0.1,0.1,0.3,0.2,0.4,0.3c0.2,0.1,0.3,0.1,0.5,0.2c0.2,0,0.4,0,0.6,0c0.5,0,0.8-0.1,1.1-0.2c0.3-0.2,0.5-0.4,0.6-0.6
		c0.1-0.3,0.2-0.6,0.3-0.9c0-0.3,0.1-0.7,0.1-1c-0.2,0.4-0.5,0.6-0.9,0.8c-0.4,0.2-0.8,0.3-1.2,0.3s-0.8-0.1-1.2-0.3
		c-0.3-0.2-0.6-0.4-0.8-0.7c-0.2-0.3-0.4-0.6-0.5-1s-0.2-0.8-0.2-1.2c0-0.4,0-0.8,0.1-1.2c0.1-0.4,0.3-0.7,0.5-1s0.5-0.5,0.8-0.7
		s0.7-0.2,1.2-0.2c0.2,0,0.4,0,0.6,0.1c0.2,0.1,0.4,0.1,0.6,0.2c0.2,0.1,0.4,0.2,0.5,0.4c0.2,0.2,0.3,0.3,0.4,0.5l0,0L209,81.5
		L209,81.5z M209,84.5c0-0.4,0-0.7-0.1-1s-0.2-0.6-0.4-0.8c-0.2-0.2-0.4-0.4-0.6-0.5c-0.3-0.1-0.5-0.2-0.9-0.2
		c-0.3,0-0.6,0.1-0.8,0.2s-0.5,0.3-0.6,0.5c-0.2,0.2-0.3,0.4-0.4,0.7c-0.1,0.3-0.2,0.6-0.2,1s0,0.7,0.1,1s0.2,0.6,0.4,0.8
		c0.2,0.2,0.4,0.4,0.6,0.6c0.3,0.1,0.6,0.2,0.9,0.2c0.3,0,0.6-0.1,0.8-0.2s0.5-0.3,0.6-0.5c0.2-0.2,0.3-0.5,0.4-0.8
		C208.9,85.1,209,84.8,209,84.5"/>
	<path class="st2" d="M214.1,87.4l3.2-8.2h0.9l3.1,8.2h-0.8l-0.9-2.6h-3.7l-1,2.6H214.1z M216.2,84.2h3.2l-1.6-4.3L216.2,84.2z"/>
	<path class="st2" d="M222.9,85.5c0.1,0.5,0.3,0.9,0.6,1.1s0.7,0.3,1.2,0.3c0.3,0,0.5,0,0.7-0.1s0.3-0.1,0.5-0.2
		c0.1-0.1,0.2-0.2,0.3-0.3c0.1-0.1,0.1-0.3,0.1-0.4c0-0.3-0.1-0.5-0.3-0.6s-0.4-0.3-0.7-0.3c-0.3-0.1-0.6-0.1-0.9-0.2
		c-0.3-0.1-0.6-0.1-0.9-0.3c-0.3-0.1-0.5-0.3-0.7-0.5s-0.3-0.5-0.3-0.9c0-0.5,0.2-0.9,0.5-1.2c0.4-0.3,0.9-0.5,1.5-0.5
		s1.2,0.1,1.6,0.4c0.4,0.3,0.6,0.8,0.7,1.4H226c-0.1-0.5-0.2-0.8-0.5-1s-0.6-0.3-1.1-0.3c-0.4,0-0.8,0.1-1,0.3
		c-0.2,0.2-0.3,0.4-0.3,0.7c0,0.3,0.1,0.5,0.3,0.6s0.4,0.3,0.7,0.3c0.3,0.1,0.6,0.2,0.9,0.2c0.3,0.1,0.6,0.2,0.9,0.3
		c0.3,0.1,0.5,0.3,0.7,0.5s0.3,0.5,0.3,0.9c0,0.3-0.1,0.5-0.2,0.7c-0.1,0.2-0.3,0.4-0.5,0.5s-0.5,0.3-0.8,0.3
		c-0.3,0.1-0.6,0.1-1,0.1s-0.7-0.1-0.9-0.2c-0.3-0.1-0.5-0.2-0.7-0.4c-0.2-0.2-0.3-0.4-0.4-0.6c-0.1-0.2-0.2-0.5-0.2-0.8h0.7V85.5z"
		/>
	<path class="st2" d="M228.7,85.5c0.1,0.5,0.3,0.9,0.6,1.1s0.7,0.3,1.2,0.3c0.3,0,0.5,0,0.6-0.1c0.2-0.1,0.3-0.1,0.5-0.2
		c0.1-0.1,0.2-0.2,0.3-0.3c0.1-0.1,0.1-0.3,0.1-0.4c0-0.3-0.1-0.5-0.3-0.6S231.3,85,231,85c-0.3-0.1-0.6-0.1-0.9-0.2
		c-0.3-0.1-0.6-0.1-0.9-0.3c-0.3-0.1-0.5-0.3-0.7-0.5s-0.3-0.5-0.3-0.9c0-0.5,0.2-0.9,0.5-1.2c0.4-0.3,0.9-0.5,1.5-0.5
		s1.2,0.1,1.6,0.4c0.4,0.3,0.6,0.8,0.7,1.4h-0.7c-0.1-0.5-0.2-0.8-0.5-1s-0.6-0.3-1.1-0.3c-0.4,0-0.8,0.1-1,0.3
		c-0.2,0.2-0.3,0.4-0.3,0.7c0,0.3,0.1,0.5,0.3,0.6s0.4,0.3,0.7,0.3c0.3,0.1,0.6,0.2,0.9,0.2c0.3,0.1,0.6,0.2,0.9,0.3
		c0.3,0.1,0.5,0.3,0.7,0.5s0.3,0.5,0.3,0.9c0,0.3-0.1,0.5-0.2,0.7c-0.1,0.2-0.3,0.4-0.5,0.5s-0.5,0.3-0.8,0.3
		c-0.3,0.1-0.6,0.1-1,0.1s-0.7-0.1-0.9-0.2c-0.3-0.1-0.5-0.2-0.7-0.4c-0.2-0.2-0.3-0.4-0.4-0.6c-0.1-0.2-0.2-0.5-0.2-0.8h0.7V85.5z"
		/>
	<path class="st2" d="M236.5,87.5c-0.4,0-0.7-0.1-1.1-0.2c-0.3-0.1-0.6-0.3-0.9-0.6c-0.2-0.3-0.4-0.6-0.6-1
		c-0.1-0.4-0.2-0.8-0.2-1.4c0-0.4,0.1-0.8,0.2-1.2c0.1-0.4,0.3-0.7,0.5-1s0.5-0.5,0.9-0.7c0.3-0.2,0.7-0.2,1.2-0.2s0.9,0.1,1.2,0.2
		c0.3,0.2,0.6,0.4,0.9,0.7c0.2,0.3,0.4,0.6,0.5,1s0.2,0.8,0.2,1.2c0,0.5-0.1,0.9-0.2,1.3c-0.1,0.4-0.3,0.7-0.6,1
		c-0.2,0.3-0.5,0.5-0.9,0.6C237.3,87.5,236.9,87.5,236.5,87.5 M238.5,84.4c0-0.3,0-0.7-0.1-1s-0.2-0.6-0.4-0.8
		c-0.2-0.2-0.4-0.4-0.6-0.5c-0.3-0.1-0.6-0.2-0.9-0.2c-0.4,0-0.7,0.1-0.9,0.2c-0.3,0.1-0.5,0.3-0.6,0.6c-0.2,0.2-0.3,0.5-0.4,0.8
		c-0.1,0.3-0.1,0.6-0.1,0.9c0,0.4,0,0.7,0.1,1s0.2,0.6,0.4,0.8c0.2,0.2,0.4,0.4,0.6,0.5c0.3,0.1,0.5,0.2,0.9,0.2s0.7-0.1,0.9-0.2
		c0.3-0.1,0.5-0.3,0.6-0.6c0.2-0.2,0.3-0.5,0.4-0.8C238.5,85.1,238.5,84.8,238.5,84.4"/>
	<path class="st2" d="M244.8,83.3c-0.1-0.4-0.3-0.8-0.6-1s-0.7-0.4-1.1-0.4c-0.3,0-0.6,0.1-0.9,0.2c-0.3,0.1-0.5,0.3-0.6,0.6
		c-0.2,0.2-0.3,0.5-0.4,0.8c-0.1,0.3-0.1,0.6-0.1,0.9s0,0.6,0.1,0.9s0.2,0.6,0.3,0.8c0.2,0.2,0.4,0.4,0.6,0.6
		c0.3,0.1,0.6,0.2,0.9,0.2c0.5,0,0.9-0.1,1.2-0.4s0.5-0.7,0.6-1.2h0.7c-0.1,0.3-0.2,0.6-0.3,0.9s-0.3,0.5-0.5,0.7s-0.5,0.3-0.7,0.5
		c-0.3,0.1-0.6,0.2-1,0.2c-0.5,0-0.9-0.1-1.2-0.2c-0.3-0.2-0.6-0.4-0.8-0.7c-0.2-0.3-0.4-0.6-0.5-1s-0.2-0.8-0.2-1.2
		c0-0.4,0.1-0.8,0.2-1.2c0.1-0.4,0.3-0.7,0.5-1s0.5-0.5,0.8-0.7s0.7-0.3,1.2-0.3c0.7,0,1.2,0.2,1.7,0.5c0.4,0.3,0.7,0.8,0.8,1.5
		C245.5,83.3,244.8,83.3,244.8,83.3z"/>
	<path class="st2" d="M247.1,79.2h0.8v1h-0.8V79.2z M247.2,81.5h0.7v5.9h-0.7V81.5z"/>
	<path class="st2" d="M252.4,83.9c0.1,0,0.3,0,0.5-0.1c0.2,0,0.3-0.1,0.4-0.1c0.1-0.1,0.2-0.1,0.2-0.3c0-0.1,0-0.2,0-0.3
		c0-0.3-0.1-0.6-0.3-0.9c-0.2-0.2-0.6-0.3-1.1-0.3c-0.2,0-0.5,0-0.6,0.1c-0.2,0-0.4,0.1-0.5,0.2s-0.3,0.2-0.4,0.4
		c-0.1,0.2-0.2,0.4-0.2,0.6h-0.7c0-0.4,0.1-0.6,0.2-0.9c0.1-0.2,0.3-0.4,0.5-0.6s0.5-0.3,0.8-0.3c0.3-0.1,0.6-0.1,0.9-0.1
		c0.3,0,0.6,0,0.8,0.1c0.3,0.1,0.5,0.2,0.7,0.3c0.2,0.1,0.3,0.3,0.5,0.6c0.1,0.2,0.2,0.5,0.2,0.9v3.2c0,0.3,0,0.4,0.1,0.5
		s0.3,0.1,0.6-0.1v0.5c-0.1,0-0.1,0-0.2,0.1c-0.1,0-0.2,0-0.3,0s-0.2,0-0.3,0s-0.2-0.1-0.3-0.1c-0.1-0.1-0.1-0.1-0.2-0.2
		c0-0.1-0.1-0.2-0.1-0.3c0-0.1,0-0.2,0-0.3c-0.3,0.3-0.6,0.6-1,0.7c-0.4,0.2-0.8,0.3-1.2,0.3c-0.3,0-0.5,0-0.7-0.1s-0.4-0.2-0.6-0.3
		c-0.2-0.1-0.3-0.3-0.4-0.5c-0.1-0.2-0.2-0.5-0.2-0.7c0-1,0.7-1.6,2.1-1.8L252.4,83.9z M253.6,84.3c-0.3,0.1-0.6,0.2-0.9,0.2
		c-0.3,0-0.6,0.1-0.9,0.1c-0.5,0-0.9,0.2-1.2,0.4c-0.3,0.2-0.4,0.5-0.4,0.9c0,0.2,0,0.3,0.1,0.5c0.1,0.1,0.2,0.2,0.3,0.3
		c0.1,0.1,0.3,0.2,0.4,0.2c0.2,0,0.3,0.1,0.5,0.1c0.3,0,0.5,0,0.8-0.1s0.5-0.2,0.7-0.3c0.2-0.1,0.4-0.3,0.5-0.5s0.2-0.5,0.2-0.8v-1
		H253.6z"/>
	<path class="st2" d="M258.2,87.4c-0.1,0-0.2,0-0.3,0.1c-0.1,0-0.3,0.1-0.5,0.1c-0.3,0-0.6-0.1-0.8-0.3c-0.2-0.2-0.3-0.5-0.3-0.9
		v-4.3h-0.8v-0.6h0.8v-1.6h0.7v1.6h1.1v0.6H257v4c0,0.1,0,0.3,0,0.4s0,0.2,0.1,0.3c0,0.1,0.1,0.1,0.2,0.1s0.2,0,0.3,0
		c0.1,0,0.2,0,0.3,0c0.1,0,0.2,0,0.3-0.1L258.2,87.4L258.2,87.4z"/>
	<path class="st2" d="M259.5,79.2h0.8v1h-0.8V79.2z M259.5,81.5h0.7v5.9h-0.7V81.5z"/>
	<path class="st2" d="M264.4,87.5c-0.4,0-0.7-0.1-1.1-0.2c-0.3-0.1-0.6-0.3-0.9-0.6c-0.2-0.3-0.4-0.6-0.6-1
		c-0.1-0.4-0.2-0.8-0.2-1.4c0-0.4,0.1-0.8,0.2-1.2c0.1-0.4,0.3-0.7,0.5-1s0.5-0.5,0.9-0.7c0.3-0.2,0.7-0.2,1.2-0.2s0.9,0.1,1.2,0.2
		c0.3,0.2,0.6,0.4,0.9,0.7c0.2,0.3,0.4,0.6,0.5,1s0.2,0.8,0.2,1.2c0,0.5-0.1,0.9-0.2,1.3s-0.3,0.7-0.6,1c-0.2,0.3-0.5,0.5-0.9,0.6
		C265.2,87.5,264.8,87.5,264.4,87.5 M266.4,84.4c0-0.3,0-0.7-0.1-1s-0.2-0.6-0.4-0.8c-0.2-0.2-0.4-0.4-0.6-0.5
		c-0.3-0.1-0.6-0.2-0.9-0.2c-0.4,0-0.7,0.1-0.9,0.2c-0.3,0.1-0.5,0.3-0.6,0.6c-0.2,0.2-0.3,0.5-0.4,0.8s-0.1,0.6-0.1,0.9
		c0,0.4,0,0.7,0.1,1s0.2,0.6,0.4,0.8c0.2,0.2,0.4,0.4,0.6,0.5c0.3,0.1,0.5,0.2,0.9,0.2s0.7-0.1,0.9-0.2c0.3-0.1,0.5-0.3,0.6-0.6
		c0.2-0.2,0.3-0.5,0.4-0.8C266.4,85.1,266.4,84.8,266.4,84.4"/>
	<path class="st2" d="M269.2,87.4h-0.7v-5.9h0.7v0.8c0.3-0.3,0.6-0.5,0.8-0.7c0.3-0.2,0.6-0.3,1.1-0.3c0.4,0,0.7,0.1,1,0.2
		s0.6,0.3,0.8,0.7c0.1,0.2,0.2,0.4,0.3,0.7c0,0.2,0,0.5,0,0.7v3.9h-0.7v-3.9c0-0.5-0.1-0.9-0.4-1.2c-0.2-0.3-0.6-0.4-1.2-0.4
		c-0.2,0-0.4,0-0.6,0.1s-0.3,0.2-0.5,0.3c-0.1,0.1-0.3,0.2-0.4,0.4c-0.1,0.1-0.2,0.3-0.2,0.4c-0.1,0.2-0.1,0.4-0.1,0.5
		c0,0.2,0,0.4,0,0.6v3.1H269.2z"/>
</g>
</svg>
