<?xml version="1.0" encoding="utf-8"?>
<!-- Generator: Adobe Illustrator 25.4.1, SVG Export Plug-In . SVG Version: 6.00 Build 0)  -->
<svg version="1.1" id="圖層_1" xmlns="http://www.w3.org/2000/svg" xmlns:xlink="http://www.w3.org/1999/xlink" x="0px" y="0px"
	 viewBox="0 0 180 100" style="enable-background:new 0 0 180 100;" xml:space="preserve">
<style type="text/css">
	.st0{fill:#F7271B;}
</style>
<g>
	<g>
		<path class="st0" d="M59.8,44.3c-2.5,0-4.1,1.6-4.6,3.8h9C63.9,45.7,62.2,44.3,59.8,44.3z"/>
		<path class="st0" d="M35.8,45.2c-3.2,0-5.2,2.2-5.2,5.3c0,3.1,2.1,5.4,5.2,5.4s5.3-2.2,5.3-5.4C41.1,47.4,39,45.2,35.8,45.2z"/>
		<path class="st0" d="M100.7,40.1c-4.8,0-8.6,1.9-9.2,6.9c0,0,0,0,0,0C89.9,24.4,72.1,6.5,49,6.5c-18.2,0-33.8,11.2-40.3,27.1h15.4
			l-0.8,5.2H11.2v5.5h11l-0.8,5H11.2v3.2c0,2,0.8,2.9,2.4,2.9h10.4l-0.8,5.2H11.7c-0.6,0-1.1-0.1-1.6-0.1v0c0,0-2-0.2-3.2-1.8
			c0,0-0.5-0.6-0.8-1.6c-0.1-0.3-0.1-0.3-0.1-0.5c0.1,0.6,0.2,1.5,0.3,1.8c0.3,1.8,0.8,3.3,0.8,3.5C12.3,80.1,29.1,93.5,49,93.5
			c20.4,0,37.6-14,42.3-32.9h-5.8V49.9c0-2.9-1.1-4.7-3.9-4.7c-2.8,0-3.9,1.8-3.9,4.7v10.6h-5.9V48.5c0-5.8,4.2-8.3,9.8-8.3
			c5.6,0,9.8,2.6,9.8,8.3l0,12.1h5.9V49.9c0-2.9,0.8-4.7,3.6-4.7c0.9,0,2,0.3,2.3,0.5l1.1-5.1C103.6,40.5,101.9,40.1,100.7,40.1z
			 M47,49.4c0,7.3-4.3,11.6-11.5,11.6c-6.6,0-11.1-4.4-11.1-10.4c0-6.2,4.2-10.4,10.6-10.4c2.9,0,5,1.1,6.1,2.3v-8.9H47V49.4z
			 M61.8,56.6c1.7,0,3.3-0.5,4.8-1.2L66.1,60c-1.7,0.7-3.7,1-5.7,1c-6.7,0-11.5-3.9-11.5-10.6c0-5.8,4.2-10.2,10.7-10.2
			c7.3,0,11,4.7,10.9,11.9H55.4C55.9,55.3,59.1,56.6,61.8,56.6z"/>
		<path class="st0" d="M113.9,40.1c-6.5,0-10.7,4.4-10.7,10.2c0,6.7,4.7,10.6,11.5,10.6c2,0,4.1-0.3,5.7-1l0.5-4.6
			c-1.5,0.7-3.1,1.2-4.8,1.2c-2.7,0-5.9-1.3-6.4-4.6h15.1C125,44.8,121.3,40.1,113.9,40.1z M109.5,48.1c0.5-2.2,2.1-3.8,4.6-3.8
			c2.4,0,4.1,1.4,4.4,3.8H109.5z"/>
		<path class="st0" d="M142.2,33.6v8.9c-1.1-1.1-3.2-2.3-6.1-2.3c-6.3,0-10.6,4.2-10.6,10.4c0,6,4.5,10.4,11.1,10.4
			c7.2,0,11.5-4.3,11.5-11.6V33.6H142.2z M136.8,55.9c-3.2,0-5.2-2.3-5.2-5.4c0-3.1,2-5.3,5.2-5.3c3.2,0,5.3,2.1,5.3,5.3
			C142.1,53.7,140,55.9,136.8,55.9z"/>
	</g>
</g>
</svg>
