<?xml version="1.0" encoding="utf-8"?>
<!-- Generator: Adobe Illustrator 25.4.1, SVG Export Plug-In . SVG Version: 6.00 Build 0)  -->
<svg version="1.1" id="圖層_1" xmlns="http://www.w3.org/2000/svg" xmlns:xlink="http://www.w3.org/1999/xlink" x="0px" y="0px"
	 viewBox="0 0 300 70" style="enable-background:new 0 0 300 70;" xml:space="preserve">
<style type="text/css">
	.st0{fill:url(#SVGID_1_);}
	.st1{fill:url(#SVGID_00000109747120374571845490000013976732851597036477_);}
	.st2{fill:url(#SVGID_00000161593151573491529190000006109836929484897679_);}
	.st3{fill:url(#SVGID_00000059308816167091950720000010325454186919929770_);}
	.st4{fill:url(#SVGID_00000101096284134235482380000017974994762869148343_);}
	.st5{fill:url(#SVGID_00000174581594935051076490000008576933188510499261_);}
	.st6{fill:url(#SVGID_00000121981018048022117190000018290408504039040190_);}
	.st7{fill:url(#SVGID_00000036251008869148472760000013539753767011684783_);}
	.st8{fill:url(#SVGID_00000099656850822058087030000007111426665482250170_);}
	.st9{fill:url(#SVGID_00000036219614227058181600000010298598271343958718_);}
	.st10{fill:url(#SVGID_00000044157344242456127230000013034779265075706296_);}
	.st11{fill:url(#SVGID_00000121245097931770448160000009209215043408019892_);}
	.st12{fill:url(#SVGID_00000114055713225664002850000005725836326467679143_);}
	.st13{fill:url(#SVGID_00000170253307321566677550000004437624629013253051_);}
	.st14{fill:#EE3E33;}
	.st15{fill:#0073BA;}
</style>
<g>
	<g>
		
			<linearGradient id="SVGID_1_" gradientUnits="userSpaceOnUse" x1="44.743" y1="26.4093" x2="44.743" y2="26.4093" gradientTransform="matrix(1 0 0 -1 0 72)">
			<stop  offset="0" style="stop-color:#0155A4"/>
			<stop  offset="1" style="stop-color:#80D2EC"/>
		</linearGradient>
		<path class="st0" d="M44.7,45.6"/>
		
			<linearGradient id="SVGID_00000071521618385505930340000008094739915895640972_" gradientUnits="userSpaceOnUse" x1="60.893" y1="27.7895" x2="60.0047" y2="47.4351" gradientTransform="matrix(0.9983 -5.901947e-02 -5.901947e-02 -0.9983 16.9695 78.3667)">
			<stop  offset="0" style="stop-color:#005DAB"/>
			<stop  offset="1" style="stop-color:#65CDF5"/>
		</linearGradient>
		<path style="fill:url(#SVGID_00000071521618385505930340000008094739915895640972_);" d="M52.8,46.3c0,0,25-28.7,39.5-17.9
			c12.9,9.8,1.2,20.5,1.2,20.5l-13.2,2.5c0,0,12.3-8.1,9.9-16.4C87.8,26.8,63.1,39,52.8,46.3z"/>
		
			<linearGradient id="SVGID_00000170986933394237361660000004321641692493170365_" gradientUnits="userSpaceOnUse" x1="217.0177" y1="571.8002" x2="181.7668" y2="561.5922" gradientTransform="matrix(-1 0 0 1 279.4058 -535.9277)">
			<stop  offset="0" style="stop-color:#447EC0"/>
			<stop  offset="1" style="stop-color:#84D2EA"/>
		</linearGradient>
		<path style="fill:url(#SVGID_00000170986933394237361660000004321641692493170365_);" d="M93.4,29.4c0,0-9.5-11.5-35.7,11.9
			C57.6,41.3,81.4,17.4,93.4,29.4z"/>
		
			<linearGradient id="SVGID_00000178915482215287020130000004605351593700230563_" gradientUnits="userSpaceOnUse" x1="100.4154" y1="501.1177" x2="99.4736" y2="521.9461" gradientTransform="matrix(-0.9983 5.901947e-02 5.901947e-02 0.9983 101.2013 -468.234)">
			<stop  offset="0" style="stop-color:#005DAB"/>
			<stop  offset="1" style="stop-color:#65CDF5"/>
		</linearGradient>
		<path style="fill:url(#SVGID_00000178915482215287020130000004605351593700230563_);" d="M55.6,44.4c0,0-30,22.9-42.2,13.7
			c-12.6-9.5-2.6-21.3-2.6-21.3l10.6-3c0,0-9.2,8.9-5.2,17.3C19.8,59.4,44.3,50.1,55.6,44.4z"/>
		
			<linearGradient id="SVGID_00000121997724244600328330000007974765875794781834_" gradientUnits="userSpaceOnUse" x1="-9.6066" y1="34.1334" x2="81.9281" y2="34.1334" gradientTransform="matrix(0.9946 -0.1041 -0.1041 -0.9946 20.6719 82.6156)">
			<stop  offset="0" style="stop-color:#68CCE9"/>
			<stop  offset="0.2545" style="stop-color:#0155A4"/>
			<stop  offset="0.5498" style="stop-color:#447EC0"/>
			<stop  offset="0.6067" style="stop-color:#529DD0"/>
			<stop  offset="0.6683" style="stop-color:#5EB7DE"/>
			<stop  offset="0.7238" style="stop-color:#65C6E6"/>
			<stop  offset="0.7672" style="stop-color:#68CCE9"/>
			<stop  offset="1" style="stop-color:#0155A4"/>
		</linearGradient>
		<path style="fill:url(#SVGID_00000121997724244600328330000007974765875794781834_);" d="M98.4,38.2c0.9,8.3-2.5,13.4-5.4,16.3
			c-3.4,3.5-8.2,5.7-13.3,6.3c-4.3,0.4-8.8-0.3-14-2.5c-4.5-1.9-9.3-4.8-15.7-8.3c-2.9-1.6-11.1-7.6-20.1-11.3
			c-10.2-4.2-22.5-1.5-22.4,9.6c-0.4-4.1,0.7-8.5,3.2-11.9c2.1-2.8,6.2-6.4,13.3-7.2c8.5-0.9,19.4,2.5,31,9.8
			c11.9,7.5,16.5,11.6,27.3,11.3C88.1,50.3,98.3,48.4,98.4,38.2z"/>
		
			<linearGradient id="SVGID_00000046314713562018974860000004718132239954434692_" gradientUnits="userSpaceOnUse" x1="44.8461" y1="27.9035" x2="79.5132" y2="27.9035" gradientTransform="matrix(0.9946 -0.1041 -0.1041 -0.9946 20.6719 82.6156)">
			<stop  offset="0" style="stop-color:#447EC0"/>
			<stop  offset="0.1412" style="stop-color:#529DD0"/>
			<stop  offset="0.2941" style="stop-color:#5EB7DE"/>
			<stop  offset="0.4316" style="stop-color:#65C6E6"/>
			<stop  offset="0.5394" style="stop-color:#68CCE9"/>
			<stop  offset="1" style="stop-color:#447EC0"/>
		</linearGradient>
		<path style="fill:url(#SVGID_00000046314713562018974860000004718132239954434692_);" d="M61.7,43.7l1,0.6l1,0.6
			c0.7,0.4,1.4,0.8,2.1,1.3c1.4,0.8,2.8,1.6,4.3,2.4s2.9,1.5,4.4,2.1s3,1.2,4.6,1.7c1.6,0.5,3.1,0.9,4.8,1.1c1.6,0.2,3.2,0.2,4.8,0
			c1.6-0.3,3.1-0.8,4.5-1.7c0.7-0.4,1.3-1,1.9-1.5c0.3-0.3,0.6-0.6,0.8-0.9c0.3-0.3,0.5-0.6,0.7-1c-0.9,1.4-2,2.6-3.3,3.6
			c-0.7,0.5-1.4,0.9-2.2,1.2c-0.8,0.3-1.6,0.5-2.4,0.7c-1.6,0.3-3.3,0.3-4.9,0.1c-1.6-0.2-3.3-0.6-4.8-1.1c-3.1-1-6.2-2.4-9.1-3.9
			c-1.4-0.8-2.9-1.6-4.2-2.5c-0.7-0.4-1.4-0.9-2.1-1.3l-1-0.7L61.7,43.7z"/>
		
			<linearGradient id="SVGID_00000130623071206378590300000017461077416288893874_" gradientUnits="userSpaceOnUse" x1="260.8993" y1="574.2073" x2="352.6292" y2="574.2073" gradientTransform="matrix(-0.9946 0.1041 0.1041 0.9946 298.0948 -560.2751)">
			<stop  offset="0" style="stop-color:#65CDF5"/>
			<stop  offset="0.2545" style="stop-color:#005DAB"/>
			<stop  offset="0.5498" style="stop-color:#378BCB"/>
			<stop  offset="0.5895" style="stop-color:#449ED7"/>
			<stop  offset="0.6578" style="stop-color:#56B8E7"/>
			<stop  offset="0.7191" style="stop-color:#61C7F1"/>
			<stop  offset="0.7672" style="stop-color:#65CDF5"/>
			<stop  offset="0.9996" style="stop-color:#005DAB"/>
		</linearGradient>
		<path style="fill:url(#SVGID_00000130623071206378590300000017461077416288893874_);" d="M7.4,49.5c-1.5-8,2.3-13.5,5.1-16.4
			c3.4-3.5,8.2-5.7,13.3-6.3c4.3-0.4,8.8,0.3,14,2.5c4.5,1.9,9.3,4.8,15.7,8.3c2.9,1.6,11.1,7.6,20.1,11.3
			c10.2,4.2,22.8,0.4,22.7-10.7c0.4,4.1-1,9.7-3.5,13.1c-2.1,2.8-6.2,6.4-13.3,7.2c-8.5,0.9-19.4-2.5-31-9.8
			c-11.9-7.7-16.8-10.8-27-12C17.8,36,7.4,39.3,7.4,49.5z"/>
		
			<linearGradient id="SVGID_00000075842101267566477420000008350769395623303042_" gradientUnits="userSpaceOnUse" x1="265.2593" y1="572.8948" x2="301.4683" y2="572.8948" gradientTransform="matrix(-1.0015 0.1406 0.109 1.041 302.1379 -590.8747)">
			<stop  offset="0" style="stop-color:#80D2EC"/>
			<stop  offset="1" style="stop-color:#0155A4"/>
		</linearGradient>
		<path style="fill:url(#SVGID_00000075842101267566477420000008350769395623303042_);" d="M62,41.7l1.2,0.7l1.2,0.7
			c0.8,0.5,1.6,0.9,2.4,1.4c1.6,0.9,3.3,1.7,5,2.5c0.8,0.4,1.7,0.8,2.5,1.1c0.4,0.2,0.9,0.4,1.3,0.5c0.4,0.2,0.9,0.3,1.3,0.5
			c1.7,0.6,3.6,1,5.4,1.2c1.8,0.2,3.7,0.1,5.5-0.2c1.8-0.3,3.6-1,5.2-2c0.8-0.5,1.5-1.1,2.2-1.8c0.6-0.7,1.2-1.5,1.6-2.4
			c0.4-0.9,0.7-1.8,0.9-2.7c0.1-0.5,0.2-1,0.2-1.4c0.1-0.5,0.1-1,0.1-1.5c0,0.5,0,1,0,1.5c0,0.5-0.1,1-0.2,1.5
			c-0.2,1-0.5,1.9-0.9,2.8c-0.4,0.9-1,1.7-1.6,2.5c-0.6,0.7-1.4,1.4-2.2,1.9s-1.7,1-2.6,1.3c-0.9,0.3-1.8,0.6-2.7,0.8
			c-1.9,0.4-3.8,0.4-5.6,0.2c-1.9-0.2-3.7-0.6-5.5-1.2c-0.4-0.2-0.9-0.3-1.3-0.5s-0.9-0.4-1.3-0.5c-0.9-0.4-1.7-0.8-2.5-1.2
			c-1.7-0.8-3.3-1.7-4.9-2.6c-0.8-0.5-1.6-1-2.4-1.4c-0.4-0.2-0.8-0.5-1.2-0.7L62,41.7z"/>
		<g>
			
				<linearGradient id="SVGID_00000147210223493746971490000004436618505912192667_" gradientUnits="userSpaceOnUse" x1="-19.2864" y1="65.8498" x2="19.0228" y2="65.8498" gradientTransform="matrix(1.0716 -0.3729 -0.5888 -0.8409 89.1012 73.1671)">
				<stop  offset="0" style="stop-color:#447EC0"/>
				<stop  offset="1" style="stop-color:#84D2EA"/>
			</linearGradient>
			<path style="fill:url(#SVGID_00000147210223493746971490000004436618505912192667_);" d="M46.9,10.6c7.8-2.4,16.4-1.2,23,4.4
				c5.2,4.4,7.5,9,7.5,9C73,4.5,53.1,0.7,43.6,4.5c-4.1,1.7-8.1,3.7-10.7,7.1c-2.5,3.1-3.9,7.7-4.6,11.6
				C28.3,23.1,36.4,13.7,46.9,10.6z"/>
			
				<linearGradient id="SVGID_00000042728456949682513310000003716110482078282896_" gradientUnits="userSpaceOnUse" x1="33.5783" y1="53.6719" x2="6.192" y2="49.5382" gradientTransform="matrix(1.1666 -0.2 -0.3662 -0.8979 44.3102 68.2864)">
				<stop  offset="6.820437e-04" style="stop-color:#65CDF5"/>
				<stop  offset="0.3855" style="stop-color:#457FC0"/>
				<stop  offset="0.4838" style="stop-color:#407DBF"/>
				<stop  offset="0.5934" style="stop-color:#3376BB"/>
				<stop  offset="0.708" style="stop-color:#1D6BB4"/>
				<stop  offset="0.8188" style="stop-color:#005DAB"/>
			</linearGradient>
			<path style="fill:url(#SVGID_00000042728456949682513310000003716110482078282896_);" d="M46.6,10.2c7.8-2.4,16.7-0.8,23.3,4.7
				c5.2,4.4,7.5,9,7.5,9C72.8,3.5,52.8,1.2,43.3,5c-4.1,1.7-7.8,3.8-10.4,7.1c-2.5,3.1-3.9,7.2-4.6,11.1
				C28.3,23.1,36.1,13.4,46.6,10.2z"/>
			
				<linearGradient id="SVGID_00000087413177664215465760000003268750889903977136_" gradientUnits="userSpaceOnUse" x1="42.4792" y1="38.3855" x2="27.7315" y2="65.8171" gradientTransform="matrix(1.2317 -0.2897 -0.4216 -0.8039 43.978 63.5521)">
				<stop  offset="0" style="stop-color:#447EC0"/>
				<stop  offset="1" style="stop-color:#84D2EA"/>
			</linearGradient>
			<path style="fill:url(#SVGID_00000087413177664215465760000003268750889903977136_);" d="M44.6,4.1c1.8-0.6,3.8-0.9,5.7-1
				c2-0.1,4,0,6,0.3c2,0.3,3.9,0.8,5.7,1.5c1.8,0.7,3.5,1.5,5,2.5s2.9,2.2,4.1,3.4c1.2,1.3,2.2,2.6,3,4c1.6,2.8,2.6,5.9,3,9
				c-0.7-3-1.8-6-3.5-8.8c-0.4-0.7-0.9-1.3-1.4-2c-0.5-0.6-1.1-1.3-1.6-1.9c-1.2-1.2-2.5-2.3-4-3.3s-3.1-1.8-4.8-2.5
				c-1.7-0.7-3.6-1.2-5.5-1.5c-1-0.1-2-0.2-2.9-0.3c-1-0.1-1.9-0.1-2.9-0.1C48.5,3.4,46.6,3.6,44.6,4.1z"/>
		</g>
		
			<linearGradient id="SVGID_00000049216331371219443930000005522814210092041393_" gradientUnits="userSpaceOnUse" x1="29.046" y1="24.143" x2="29.046" y2="24.143" gradientTransform="matrix(0.9983 -5.901947e-02 -5.901947e-02 -0.9983 16.9695 78.3667)">
			<stop  offset="0" style="stop-color:#0155A4"/>
			<stop  offset="1" style="stop-color:#80D2EC"/>
		</linearGradient>
		<path style="fill:url(#SVGID_00000049216331371219443930000005522814210092041393_);" d="M44.5,52.6"/>
		
			<linearGradient id="SVGID_00000019652476542558926070000015932072943424201371_" gradientUnits="userSpaceOnUse" x1="71.9079" y1="36.2141" x2="108.1169" y2="36.2141" gradientTransform="matrix(1.0898 -0.1013 1.948739e-03 -1.022 -71.046 88.2067)">
			<stop  offset="0" style="stop-color:#005DAB"/>
			<stop  offset="1" style="stop-color:#65CDF5"/>
		</linearGradient>
		<path style="fill:url(#SVGID_00000019652476542558926070000015932072943424201371_);" d="M46.9,46.3l-1.2-0.7l-1.2-0.7
			c-0.8-0.5-1.6-1-2.5-1.4c-1.7-0.9-3.3-1.8-5-2.7c-0.9-0.4-1.7-0.8-2.6-1.2c-0.4-0.2-0.9-0.4-1.3-0.6c-0.4-0.2-0.9-0.4-1.3-0.5
			c-1.8-0.6-3.7-1.1-5.7-1.3c-1.9-0.2-4-0.3-6,0c-2,0.3-4,0.8-5.9,1.8c-0.9,0.5-1.8,1-2.5,1.7c-0.8,0.7-1.4,1.4-2,2.3
			c-0.6,0.8-1,1.7-1.3,2.6C8,46.1,7.9,46.5,7.8,47c-0.1,0.5-0.2,0.9-0.3,1.4c0-0.5,0.1-1,0.2-1.4c0.1-0.5,0.2-0.9,0.4-1.4
			c0.3-0.9,0.7-1.9,1.3-2.7c0.5-0.9,1.2-1.7,2-2.4c0.8-0.7,1.6-1.3,2.6-1.8c0.9-0.5,1.9-0.9,2.9-1.2c1-0.3,2-0.5,3-0.7
			c2-0.3,4.1-0.3,6.2,0c2,0.2,3.9,0.7,5.7,1.4c0.5,0.2,0.9,0.3,1.4,0.5c0.4,0.2,0.9,0.4,1.3,0.6c0.9,0.4,1.7,0.8,2.6,1.2
			c1.7,0.9,3.4,1.8,5,2.8c0.8,0.5,1.6,1,2.4,1.5c0.4,0.3,0.8,0.5,1.2,0.8L46.9,46.3z"/>
		
			<linearGradient id="SVGID_00000004538961641339317340000004685927093842373795_" gradientUnits="userSpaceOnUse" x1="42.9708" y1="20.8458" x2="7.8201" y2="10.6667" gradientTransform="matrix(1 0 0 -1 0 72)">
			<stop  offset="0" style="stop-color:#447EC0"/>
			<stop  offset="1" style="stop-color:#84D2EA"/>
		</linearGradient>
		<path style="fill:url(#SVGID_00000004538961641339317340000004685927093842373795_);" d="M11.8,56.5c0,0,7.5,12.1,36.9-7.5
			C48.7,49.1,23.1,66.9,11.8,56.5z"/>
	</g>
	<g>
		<g>
			<path class="st14" d="M129.4,55.9h-11.2c-1.8,0-3.2-1.5-3.2-3.2V27c0-1.8,1.5-3.2,3.2-3.2h11.2c0.9,0,1.8,0.8,1.8,1.8
				c0,1-0.8,1.9-1.8,1.9h-9.7c-0.4,0-0.7,0.3-0.7,0.7v6.9c0,0.3,0.3,0.6,0.7,0.6h8.3c1,0,1.8,0.8,1.8,1.9c0,1-0.8,1.9-1.8,1.9h-8.3
				c-0.4,0-0.7,0.3-0.7,0.6v11.4c0,0.3,0.3,0.6,0.7,0.6h9.7c0.9,0,1.8,0.8,1.8,1.9C131.1,55.1,130.3,55.9,129.4,55.9z"/>
			<path class="st14" d="M146.9,55.8h-7.2c-0.4,0-0.7,0.3-0.7,0.7V65c0,1.1-0.8,2-2,2c-1.1,0-1.9-0.9-1.9-2V35.6
				c0-1.8,1.4-3.2,3.2-3.2h9.6c1.8,0,3.2,1.4,3.2,3.2v15.8C151.2,53.9,149.2,55.8,146.9,55.8z M139.1,36.6v14.9
				c0,0.4,0.3,0.7,0.7,0.7h7c0.3,0,0.6-0.3,0.6-0.7V36.6c0-0.4-0.3-0.7-0.6-0.7h-7C139.4,36,139.1,36.3,139.1,36.6z"/>
			<path class="st14" d="M160.3,28.5c0,1-0.8,1.9-1.8,1.9h-0.3c-1,0-1.8-0.8-1.8-1.9c0-1,0.8-1.8,1.8-1.8h0.3
				C159.5,26.7,160.3,27.5,160.3,28.5z M160.3,34.4v19.5c0,1.1-0.8,2-1.9,2c-1.1,0-1.9-0.9-1.9-2V34.4c0-1,0.8-1.9,1.9-1.9
				C159.5,32.5,160.3,33.4,160.3,34.4z"/>
		</g>
		<g>
			<path class="st15" d="M204.2,55.8c-1.1,0-1.9-0.9-1.9-2V26.4c0-1.1,0.8-2,1.9-2s1.9,0.9,1.9,2v27.3
				C206.1,54.9,205.2,55.8,204.2,55.8z"/>
			<path class="st15" d="M223.6,55.8h-8.9c-1.8,0-3.2-1.5-3.2-3.2V35.6c0-1.8,1.4-3.2,3.2-3.2h10c1.6,0.6,3.1,1.4,3.1,3.2v15.8
				C227.8,53.9,226,55.8,223.6,55.8z M215.1,36.8v14.6c0,0.3,0.3,0.6,0.6,0.6h7.8c0.4,0,0.7-0.3,0.7-0.6V36.8c0-0.3-0.3-0.7-0.7-0.7
				h-7.8C215.4,36.1,215.1,36.4,215.1,36.8z"/>
			<path class="st15" d="M236.4,55.8c-1.7,0-3.1-1.5-3.1-3.2V34.2c0-1,0.7-1.8,1.7-1.8s1.8,0.8,1.8,1.8v17.1c0,0.4,0.3,0.6,0.6,0.6
				h7.8c0.4,0,0.7-0.2,0.7-0.6V34.2c0-1,0.8-1.8,1.9-1.8c1,0,1.8,0.8,1.8,1.8v17.2c0,2.3-1.9,4.3-4.2,4.3
				C245.4,55.8,236.4,55.8,236.4,55.8z"/>
			<path class="st15" d="M266.8,55.8h-8.5c-1.8,0-3.2-1.5-3.2-3.2V35.6c0-1.8,1.4-3.2,3.2-3.2h8.2c0.4,0,0.7-0.3,0.7-0.7v-5.3
				c0-1.1,0.9-2,2-2c1.1,0,2,0.8,2,2v25.1C271.1,53.9,269.1,55.8,266.8,55.8z M258.9,36.7v14.9c0,0.4,0.3,0.7,0.6,0.7h7
				c0.4,0,0.7-0.3,0.7-0.7V36.7c0-0.4-0.3-0.7-0.7-0.7h-7C259.1,36,258.9,36.3,258.9,36.7z"/>
		</g>
		<g>
			<path class="st14" d="M186.6,35.7c-1.2-0.6-2.3-0.8-3.5-0.8c-0.8,0-1.5,0.1-2.2,0.3c0.5,0.1,0.9,0.3,1.4,0.5
				c1.2,0.5,2.1,1.3,2.9,2.2h4.4l0,0C188.7,36.9,187.8,36.2,186.6,35.7z"/>
			<path class="st14" d="M181.9,50.9c-0.4,0.2-0.7,0.3-1.1,0.4c0.7,0.2,1.5,0.3,2.2,0.3c1.2,0,2.3-0.2,3.3-0.7s2-1.2,2.9-2.1h-4.4
				C183.9,49.7,182.9,50.4,181.9,50.9z"/>
			<path class="st14" d="M170.3,43.2v-0.1l0,0c0-3.4,1.3-6.4,3.7-8.9c1.9-1.9,4.1-3.1,6.7-3.5c-0.7-0.1-1.5-0.2-2.2-0.2
				c-3.4,0-6.4,1.2-8.9,3.7c-2.4,2.5-3.7,5.4-3.7,8.9l0,0v0.1c0,3.5,1.2,6.6,3.7,9.1c2.5,2.5,5.5,3.8,9,3.8c0.7,0,1.5-0.1,2.2-0.2
				c-2.5-0.4-4.8-1.6-6.8-3.6C171.6,49.7,170.3,46.7,170.3,43.2z"/>
			<g>
				<g>
					<path class="st15" d="M197.1,37.9h-5.1c-0.8-0.9-1.7-1.7-2.9-2.2c-1.2-0.6-2.3-0.8-3.5-0.8c-2.2,0-4.1,0.8-5.7,2.5
						s-2.4,3.6-2.4,6c0,2.2,0.8,4.1,2.4,5.9c1.6,1.7,3.5,2.5,5.7,2.5c1.2,0,2.3-0.2,3.3-0.7c1-0.5,2-1.2,2.9-2.1h5.2
						c-0.9,2.2-2.4,3.9-4.5,5.2c-2.1,1.3-4.4,2-6.9,2c-3.5,0-6.6-1.3-9-3.8c-2.5-2.5-3.7-5.5-3.7-9.1c0-3.5,1.2-6.5,3.7-9
						s5.4-3.7,8.9-3.7c2.5,0,4.8,0.7,7.1,2C194.6,33.8,196.1,35.6,197.1,37.9z"/>
				</g>
			</g>
		</g>
	</g>
</g>
</svg>
