<?xml version="1.0" encoding="utf-8"?>
<!-- Generator: Adobe Illustrator 25.4.1, SVG Export Plug-In . SVG Version: 6.00 Build 0)  -->
<svg version="1.1" id="圖層_1" xmlns="http://www.w3.org/2000/svg" xmlns:xlink="http://www.w3.org/1999/xlink" x="0px" y="0px"
	 viewBox="0 0 300 60" style="enable-background:new 0 0 300 60;" xml:space="preserve">
<style type="text/css">
	.st0{fill:none;}
	.st1{fill:#009E41;}
	.st2{fill:#008BD5;}
</style>
<g>
	<g>
		<rect y="8.2" class="st0" width="300" height="38.5"/>
		<g>
			<rect y="8.2" class="st1" width="52" height="17.3"/>
			<rect y="29.4" class="st2" width="52" height="17.3"/>
		</g>
		<g>
			<polygon class="st2" points="71.3,9.5 71.3,45.3 78.5,45.3 78.5,29.7 93.7,29.7 93.7,22.8 78.5,22.8 78.5,16.4 94,16.4 94,9.5 
							"/>
			<path class="st2" d="M115.1,40.2c0-3,0-8.6,0-11.6c0-3.8-2-8.7-10.4-8.7c-3.3,0-6,0.7-7.8,1.5v6.4c2.1-1.3,4.4-2,6.9-2
				c2.3,0,4.5,0.8,4.5,3.4c0,0.1,0,0.1,0,0.2c-1.1-0.4-2.5-0.7-4-0.7c-5.7,0-10,3-10,8.9c0,5.8,4.7,8,8.5,8c2.4,0,4.4-0.8,5.7-1.8
				c0.1,0.7,0.3,1.4,0.6,1.7h7.5C115.8,44.6,115.1,43.2,115.1,40.2z M101.2,36.8c0-2,1.7-3.3,4.1-3.3c1.2,0,2.2,0.3,3,0.7
				c0,1.5,0,3.1,0,4.3c-0.7,0.6-1.9,1.3-3.6,1.3C102.5,39.8,101.2,38.5,101.2,36.8z"/>
			<path class="st2" d="M263,40.2c0-3,0-8.6,0-11.6c0-3.8-2-8.7-10.4-8.7c-3.3,0-6,0.7-7.8,1.5v6.4c2.1-1.3,4.4-2,6.9-2
				c2.3,0,4.5,0.8,4.5,3.4c0,0.1,0,0.1,0,0.2c-1.1-0.4-2.5-0.7-4-0.7c-5.7,0-10,3-10,8.9c0,5.8,4.7,8,8.5,8c2.4,0,4.4-0.8,5.7-1.8
				c0.1,0.7,0.3,1.4,0.5,1.7h7.5C263.6,44.6,263,43.2,263,40.2z M249.1,36.8c0-2,1.7-3.3,4.1-3.3c1.2,0,2.2,0.3,3,0.7
				c0,1.5,0,3.1,0,4.3c-0.7,0.6-1.9,1.3-3.6,1.3C250.3,39.8,249.1,38.5,249.1,36.8z"/>
			<path class="st2" d="M145.4,20.1c-3,0-5.1,0.7-7.1,2.9c-1.4-1.8-3.7-2.9-6.4-2.9c-2.2,0-4.3,0.6-6.2,2.3v-2.1h-6.4v25h6.8V28.5
				c0.8-1,2-1.9,3.6-1.9c2.1,0,3.2,1.4,3.2,4v14.8h7v-17c0.8-1,1.9-1.7,3.6-1.7c2.2,0,3.2,1.6,3.2,4v14.8h7V28
				C153.6,23.3,150.6,20.1,145.4,20.1z"/>
			<rect x="169.7" y="9.5" class="st2" width="6.8" height="35.8"/>
			<polygon class="st2" points="222.7,20.7 213.6,9.5 206.2,9.5 206.2,45.3 213.6,45.3 213.6,20.7 222.7,32.6 231.7,20.7 
				231.7,45.3 239.2,45.3 239.2,9.5 231.7,9.5 			"/>
			<rect x="158.2" y="20.3" class="st2" width="6.8" height="25"/>
			<path class="st2" d="M161.6,9c-2.4,0-4.4,2-4.4,4.4c0,2.4,2,4.4,4.4,4.4c2.5,0,4.4-2,4.4-4.4C166,11,164,9,161.6,9z"/>
			<path class="st2" d="M273.3,23v-2.6h-6.5v25h6.8V29.6c1-1.3,2.6-2.4,4.9-2.4c1.8,0,3.1,0.7,3.8,1.3v-7.5
				c-0.8-0.6-2.2-0.9-3.3-0.9C277.1,20,275,20.8,273.3,23z"/>
			<path class="st2" d="M297.1,39c-2.2,0-3-1.7-3-3.5v-8.5h5.8v-6.5h-5.8v-9.4l-6.7,2.9v6.6h-3.7v6.5h3.7v9.5c0,5.2,2.1,9.2,8.2,9.2
				c1.8,0,3.4-0.3,4.5-0.7V38C299.5,38.6,298.6,39,297.1,39z"/>
			<polygon class="st2" points="184.8,51.8 192.5,51.8 204,20.3 196.5,20.3 191.8,33.8 186.6,20.3 178.8,20.3 188.2,43 			"/>
		</g>
	</g>
</g>
</svg>
