<?xml version="1.0" encoding="utf-8"?>
<!-- Generator: Adobe Illustrator 25.4.1, SVG Export Plug-In . SVG Version: 6.00 Build 0)  -->
<svg version="1.1" id="圖層_1" xmlns="http://www.w3.org/2000/svg" xmlns:xlink="http://www.w3.org/1999/xlink" x="0px" y="0px"
	 viewBox="0 0 300 100" style="enable-background:new 0 0 300 100;" xml:space="preserve">
<style type="text/css">
	.st0{fill:#FFFFFF;}
	.st1{fill:#F90000;}
	.st2{fill-rule:evenodd;clip-rule:evenodd;fill:#DE0515;}
	.st3{fill:#0083CE;}
	.st4{fill:none;stroke:#000000;stroke-width:0.5039;stroke-miterlimit:10;}
</style>
<g>
	<rect x="126.9" y="71.8" class="st0" width="48.4" height="15.4"/>
	<path d="M175,86.9h-47.8V72.1H175V86.9z M127.7,86.4h46.8V72.7h-46.8V86.4z"/>
	<g>
		<path d="M144.7,85.2h-12.5v-0.6h2.2V77h3c0.2-0.3,0.3-0.7,0.6-1.3h-5.5V75h5.7c0.2-0.7,0.4-1.1,0.4-1.5l0.7,0.2
			c-0.2,0.6-0.3,1.1-0.4,1.3h5.5v0.6h-5.7c-0.1,0.3-0.3,0.7-0.5,1.3h4.2v7.6h2.2V85.2z M141.8,78.9v-1.3h-6.5v1.3H141.8z
			 M141.8,80.8v-1.3h-6.5v1.3H141.8z M141.8,82.7v-1.3h-6.5v1.3H141.8z M141.8,84.6v-1.3h-6.5v1.3H141.8z"/>
		<path d="M161.7,76.7h-1.3v2.4c0.2-0.1,0.6-0.4,1-0.7l0.1,0.8c-0.3,0.2-0.7,0.5-1.1,0.8v4.5c0,0.3-0.1,0.6-0.3,0.7
			c-0.2,0.2-0.5,0.3-1,0.3h-0.7l-0.2-0.7h1.1c0.3,0,0.4-0.1,0.4-0.4v-4.1c-0.3,0.2-0.8,0.4-1.5,0.8l-0.3-0.7c0.4-0.2,1-0.5,1.8-1
			v-2.9H158V76h1.7v-2.4h0.7V76h1.3V76.7z M170.5,79.6l-0.4,0.6c-1-0.7-2.3-1.2-3.7-1.7v1.8h2.9v5.2h-0.8v-0.6h-5v0.6h-0.7v-5.2h2.9
			V78c-1.1,1-2.3,1.7-3.5,2.3l-0.4-0.6c1.5-0.6,2.6-1.3,3.4-2.1h-3v-0.7h3.6v-2.2c-0.8,0-1.9,0.1-3.1,0.1l-0.2-0.7
			c1.8,0,3.2,0,4.2-0.1c1-0.1,2-0.2,2.9-0.5l0.3,0.6c-0.9,0.2-2,0.4-3.4,0.6v2.2h3.9v0.7h-3.9v0.2C168.2,78.5,169.5,79.1,170.5,79.6
			z M164.6,76.3l-0.7,0.3c-0.2-0.4-0.5-0.8-0.9-1.2l0.6-0.3C164.1,75.5,164.4,75.9,164.6,76.3z M165.8,82.3V81h-2.1v1.2H165.8z
			 M165.8,84.2v-1.3h-2.1v1.3H165.8z M168.7,82.3V81h-2.2v1.2H168.7z M168.7,84.2v-1.3h-2.2v1.3H168.7z M169.5,75.2
			c-0.3,0.5-0.7,0.9-1.2,1.4l-0.6-0.4c0.5-0.4,0.9-0.9,1.2-1.3L169.5,75.2z"/>
	</g>
	<circle class="st1" cx="151.6" cy="79.7" r="4"/>
	<g id="XMLID_00000136378674167004677450000000869727936497487275_">
		<path id="XMLID_00000098188090778229174100000005635349416439206024_" class="st2" d="M16.9,22c0,0,4.2,13,20.7,12.8
			C48,34.1,56.1,22.3,66.1,14.1c4.2-3.4,14.1-8.4,23.1-3c4.6,3.1,5.6,7.4,4.3,12.2c-2.3-3.4-6.1-5.5-11.5-5.7
			c-1.3,0-1.4-0.1-3.1,0.1C69.7,18.9,61.4,28.5,57,32.4c-4.2,4.3-19.7,17.9-33.5,5.4C20.1,34.7,17.6,29.9,16.9,22z"/>
		<path id="XMLID_00000003064319185418794280000016121585036308026553_" class="st2" d="M24.8,35c0,0,4.2,13,20.7,12.8
			C55.9,47,64.1,35.3,74.1,27.1c4.2-3.4,14.1-8.4,23.1-3c4.6,3.1,5.6,7.4,4.3,12.2c-2.3-3.4-6.1-5.5-11.5-5.7
			c-1.3,0-1.4-0.1-3.1,0.1C77.6,31.8,69.4,41.4,65,45.3c-4.2,4.3-19.7,17.9-33.5,5.4C28.1,47.6,25.5,42.8,24.8,35z"/>
		<g id="XMLID_00000055707703332382593880000002026007217328018097_">
			<path id="XMLID_00000070076339437986423900000000526322776179442363_" d="M105.2,46.2l3.7-2.2c2.6,4.7,5.5,7.1,8.9,7.1
				c1.4,0,2.8-0.3,4.1-1c1.3-0.7,2.2-1.6,2.9-2.7c0.7-1.1,1-2.3,1-3.6c0-1.4-0.5-2.9-1.5-4.2c-1.3-1.9-3.8-4.2-7.4-6.9
				c-3.6-2.7-5.8-4.7-6.7-5.9c-1.5-2-2.3-4.2-2.3-6.6c0-1.9,0.4-3.6,1.3-5.1c0.9-1.5,2.2-2.7,3.8-3.6c1.6-0.9,3.4-1.3,5.3-1.3
				c2,0,3.9,0.5,5.7,1.5c1.8,1,3.6,2.8,5.6,5.5l-3.5,2.7c-1.6-2.1-3-3.6-4.1-4.2c-1.1-0.7-2.4-1-3.7-1c-1.7,0-3.2,0.5-4.3,1.6
				c-1.1,1.1-1.7,2.3-1.7,3.9c0,0.9,0.2,1.8,0.6,2.7c0.4,0.9,1.1,1.8,2.1,2.9c0.6,0.5,2.4,2,5.6,4.3c3.7,2.7,6.3,5.2,7.7,7.3
				c1.4,2.1,2.1,4.3,2.1,6.5c0,3.1-1.2,5.8-3.6,8.1c-2.4,2.3-5.2,3.4-8.6,3.4c-2.6,0-5-0.7-7.1-2.1C109,51.8,107,49.5,105.2,46.2z"
				/>
			<path id="XMLID_00000091016326276251474570000002953102163514668722_" d="M130.7,15.4v-4.2h23.6v4.2h-9.6v38.8h-4.4V15.4H130.7z"
				/>
			<path id="XMLID_00000018958166869648732970000007269123096746682506_" d="M156.1,11.2h4.3v25.9c0,3.1,0.1,5,0.2,5.8
				c0.2,1.7,0.7,3.1,1.5,4.3c0.8,1.1,2,2.1,3.6,2.9c1.6,0.8,3.2,1.2,4.9,1.2c1.4,0,2.8-0.3,4.1-0.9c1.3-0.6,2.4-1.4,3.3-2.5
				c0.9-1.1,1.5-2.4,1.9-3.9c0.3-1.1,0.4-3.3,0.4-6.7V11.2h4.3v25.9c0,3.8-0.4,6.9-1.1,9.3c-0.7,2.4-2.2,4.4-4.5,6.2
				c-2.2,1.8-5,2.6-8.2,2.6c-3.5,0-6.4-0.8-8.9-2.5c-2.5-1.7-4.1-3.8-5-6.6c-0.5-1.7-0.8-4.7-0.8-9.1V11.2z"/>
			<path id="XMLID_00000097464749906628682440000016064600283294799013_" d="M190.7,54.2v-43h8.9c6.4,0,11.1,0.5,14,1.5
				c4.2,1.5,7.4,4,9.8,7.6c2.3,3.6,3.5,7.9,3.5,12.9c0,4.3-0.9,8.1-2.8,11.4c-1.9,3.3-4.3,5.7-7.2,7.2c-3,1.6-7.1,2.3-12.5,2.3
				H190.7z M194.8,50.2h5c5.9,0,10.1-0.4,12.4-1.1c3.2-1.1,5.8-2.9,7.6-5.7c1.9-2.7,2.8-6.1,2.8-10c0-4.1-1-7.7-3-10.6
				c-2-2.9-4.8-5-8.4-6c-2.7-0.8-7.1-1.2-13.3-1.2h-3V50.2z"/>
			<path id="XMLID_00000176755861668134630030000003027992372317349533_" d="M230.1,11.2h4.3v43h-4.3V11.2z"/>
			<path id="XMLID_00000123410270298287875320000009356839557564476068_" d="M260.2,10.1c6.5,0,12,2.2,16.3,6.5
				c4.4,4.3,6.6,9.7,6.6,16c0,6.3-2.2,11.6-6.6,16c-4.4,4.4-9.7,6.6-16,6.6c-6.4,0-11.8-2.2-16.1-6.5c-4.4-4.4-6.6-9.6-6.6-15.8
				c0-4.1,1-8,3-11.5c2-3.5,4.7-6.3,8.2-8.3C252.5,11.1,256.2,10.1,260.2,10.1z M260.4,14.3c-3.2,0-6.2,0.8-9,2.5
				c-2.8,1.7-5.1,3.9-6.7,6.7c-1.6,2.8-2.4,5.9-2.4,9.4c0,5.1,1.8,9.4,5.3,12.9c3.5,3.5,7.8,5.3,12.8,5.3c3.3,0,6.4-0.8,9.3-2.4
				c2.8-1.6,5.1-3.8,6.6-6.6c1.6-2.8,2.4-5.9,2.4-9.4c0-3.4-0.8-6.5-2.4-9.3c-1.6-2.8-3.8-5-6.7-6.6
				C266.7,15.2,263.6,14.3,260.4,14.3z"/>
		</g>
		<polygon id="XMLID_00000122679742991544972380000004506750527763556486_" class="st3" points="249.8,17.9 249.8,47.5 278.7,32.7 
					"/>
		<path id="XMLID_00000039854568692127666910000016322769836277846942_" class="st4" d="M233,10"/>
		<g id="XMLID_00000091731795240729863050000015741212544999993484_">
			<path id="XMLID_00000028318793657123155830000009298840251953417384_" d="M52.8,85.4c-0.1,0.8-0.3,1.8-0.6,3.2
				c-0.4,1.4-0.7,2.1-1,2.4c-0.3,0.2-0.7,0.3-1,0.3c-0.6,0-1-0.3-1.4-0.8c-0.4-0.5-0.6-1.8-0.8-3.8c-0.2-2-0.3-4.1-0.3-6.3V67.1
				H31.8v9c0,5.8-1.2,10.8-3.6,15L27,90c2.2-4.3,3.3-9,3.3-14V65.6H49V83c0,1.1,0.1,2.4,0.3,4c0.2,1.6,0.4,2.4,0.5,2.4
				c0.1,0.1,0.2,0.1,0.2,0.1c0.5,0,0.9-1.7,1.3-5L52.8,85.4z M47.4,90.3L46.1,91c-0.3-0.8-0.6-1.5-1-2.1c-3,0.5-7.4,1-13.2,1.5
				L31.4,89c3.5-0.2,6-0.4,7.7-0.6v-5.2h-4.8v-8h4.8v-3.4h-5.9v-1.5h13.4v1.5h-6v3.4h4.7v8h-4.7v5.1c1.4-0.1,2.7-0.3,3.9-0.6
				c-0.3-0.6-0.8-1.3-1.5-2.2l1.3-0.8C45.8,86.9,46.9,88.8,47.4,90.3z M39.1,81.6v-5h-3.3v5H39.1z M43.8,81.6v-5h-3.2v5H43.8z"/>
			<path id="XMLID_00000072992848720614208350000014402439431867708574_" d="M74.2,84.2c-0.4,2.5-1.1,4.8-2,7l-1.4-0.6
				c0.9-1.8,1.6-4.1,2-6.8L74.2,84.2z M82.5,82.1l-1.4,0.6c-0.1-0.6-0.4-1.1-0.6-1.7c-3.2,0.9-6.2,1.5-8.9,1.9l-0.5-1.6
				c2.2-1.9,4.1-4.2,5.9-7c-1.9,0.3-3.6,0.6-5.2,0.7l-0.4-1.6c1.9-2.2,3.6-5,5.2-8.5l1.3,0.7c-1.3,2.8-2.8,5.4-4.6,7.7
				c1.8-0.2,3.4-0.4,4.7-0.7c0.7-1,1.3-2.3,2-3.7l1.4,0.6c-2.3,4.8-4.9,8.7-7.7,11.5c1.9-0.4,4.1-0.8,6.3-1.3
				c-0.3-0.8-0.7-1.5-1.1-2l1.3-0.6C81.2,78.8,82,80.5,82.5,82.1z M78.5,89.8L77,90.3c-0.3-2.2-0.8-4.1-1.6-5.9l1.5-0.4
				C77.6,85.8,78.1,87.8,78.5,89.8z M81.8,87.1l-1.3,0.6c-0.5-1.3-1-2.6-1.7-3.8l1.4-0.6C80.9,84.7,81.5,85.9,81.8,87.1z M95.9,89.8
				H81v-1.5h7.2V68.6h-6.3V67h13.5v1.6h-5.7v19.6h6.2V89.8z"/>
			<path id="XMLID_00000067931224697826517800000009985850759363333255_" d="M211.2,85.5c-1.1,1.6-2.5,3-4.1,4.3l-1-1.2
				c1.4-1,2.8-2.3,4-4L211.2,85.5z M221.9,76.6h-15.8v-1.4h7.3c-0.3-0.8-0.6-1.4-0.8-1.9h-4.8v-7.7h12.3v7.7h-5.8
				c0.2,0.5,0.5,1.1,0.7,1.9h6.9V76.6z M219.9,83.6h-5.1v5.5c0,0.7-0.2,1.3-0.6,1.6c-0.4,0.3-1.1,0.5-2,0.5h-1.1l-0.5-1.4
				c1,0,1.7,0,2.1,0c0.5,0,0.7-0.3,0.7-0.9v-5.2h-5.2v-5.2h11.8V83.6z M218.7,68.6V67h-9.3v1.6H218.7z M218.7,71.8v-1.7h-9.3v1.7
				H218.7z M218.5,82.2v-2.4h-8.9v2.4H218.5z M220.4,88.7l-1.3,0.9c-0.7-1.4-1.5-2.8-2.5-4.1l1.2-0.9
				C218.8,85.7,219.6,87.1,220.4,88.7z M231.4,82.7c-2.4,3.4-5.6,6.3-9.5,8.6L221,90c4.3-2.5,7.4-5.3,9.3-8.5L231.4,82.7z
				 M230.6,65.8c-2.1,2.7-4.9,4.9-8.3,6.7l-0.9-1.3c3.9-2,6.6-4.2,8.2-6.5L230.6,65.8z M230.9,73.9c-1.9,2.6-4.8,5-8.6,7.1l-0.9-1.3
				c3.8-2.1,6.6-4.4,8.4-6.9L230.9,73.9z"/>
			<path id="XMLID_00000126295273587044646640000003866202088420261043_" d="M256.6,65.3c-0.4,1.5-0.9,3-1.4,4.5l-0.8,2v19.4H253
				V74.9c-1,1.7-1.8,3-2.4,3.8l-1.1-1.2c2.3-3,4.2-7.2,5.7-12.7L256.6,65.3z M274.9,88.7L274,90c-1.7-0.9-3.6-2.4-5.7-4.5
				c0,0.6,0.1,1.2,0.1,1.5c0,1.3-0.2,2.2-0.5,2.8c-0.3,0.6-0.7,1-1.3,1.2c-0.5,0.2-1.5,0.3-3,0.3c-0.5,0-0.9,0-1.2,0l-0.4-1.5
				c2.4,0.1,3.8,0,4.2-0.3c0.4-0.2,0.7-1,0.7-2.3c0-0.6,0-1.3-0.1-2.2c-2.3,1.9-5.7,3.6-10.1,5l-0.9-1.2c4.6-1.4,8.2-3.1,10.7-5.2
				c-0.1-0.3-0.3-1-0.7-1.9c-2.4,1.8-5.4,3.3-9.2,4.4l-0.8-1.3c3.9-1.1,7-2.6,9.2-4.3c-0.3-0.5-0.7-0.9-1.1-1.3
				c-2,1.1-4.5,2.1-7.7,2.9l-0.7-1.4c3.2-0.6,6.1-1.7,8.6-3.4h-5.9v-5.2c-0.5,0.5-1.1,0.9-1.7,1.3l-0.8-1.4c3.3-2.6,5.7-4.9,7-7.1
				l1.3,0.8c-0.3,0.5-0.6,0.9-0.9,1.4h7.1v1.4c-0.7,1-1.6,2-2.5,3.1h5.3v5.8h-6.6c-0.5,0.5-1,0.8-1.4,1.1c1,1.1,1.8,2.4,2.3,3.8
				c1.7-0.9,3.5-2.1,5.2-3.7l1,1c-1.5,1.4-3.3,2.7-5.5,3.9C270.3,85.7,272.5,87.5,274.9,88.7z M268.4,68.2h-6.3
				c-1.1,1.2-2.1,2.2-3.1,3.1h6.8C266.8,70.2,267.7,69.2,268.4,68.2z M265,75.8v-3.1h-5.4v3.1H265z M271.7,75.8v-3.1h-5.3v3.1H271.7
				z"/>
		</g>
	</g>
</g>
</svg>
