<?xml version="1.0" encoding="utf-8"?>
<!-- Generator: Adobe Illustrator 24.3.0, SVG Export Plug-In . SVG Version: 6.00 Build 0)  -->
<svg version="1.1" id="圖層_1" xmlns="http://www.w3.org/2000/svg" xmlns:xlink="http://www.w3.org/1999/xlink" x="0px" y="0px"
	 viewBox="0 0 340.2 283.5" style="enable-background:new 0 0 340.2 283.5;" xml:space="preserve">
<g>
	<g>
		<g>
			<rect x="140.1" y="123.4" width="50.6" height="16.8"/>
			<g>
				<polygon points="133.9,123.4 113.3,123.4 95.4,157 116,157 				"/>
				<polygon points="133.9,224.6 133.9,167.2 122.5,167.2 128,156.7 116.4,156.7 98.5,190.3 110.1,190.3 116.3,178.7 116.3,224.6 
									"/>
				<polygon points="148.3,207.9 148.3,224.6 165.3,224.6 180.9,224.6 185,224.6 185,165.3 190.7,165.3 190.7,148.5 140.1,148.5 
					140.1,165.3 165.3,165.3 165.3,207.9 				"/>
			</g>
		</g>
		<path d="M191.3,52.4v-9v-7.8h-30.4l13.4-25.1h-20.6l-13.4,25.1h-31v7.8v9V95h-6.7v16.8H198V95h-6.7V52.4z M172,95h-4.2V52.4h4.2
			V95z M152.6,52.4V95H148V52.4H152.6z M128.6,52.4h4.2V95h-4.2V52.4z"/>
		<g>
			<path d="M47.7,78.2h-9.2h-5.4H17.9L0,111.8h20.6l12.5-23.5v23.5h13.6h5.6h5.4l6.1-11.4v11.4H76h7h12.2V98.2H83.1v-6.5h12.2V78.1
				L47.7,78.2L47.7,78.2z M63.9,98.2H54l-1.6,3v-9.5h11.5V98.2z"/>
			<rect y="24.4" width="29.6" height="16.8"/>
			<rect y="53.9" width="29.6" height="16.8"/>
			<path d="M76.1,10.5H52.4H33.1v16.8v5.3v16.8v5.4v16.6v0.2h62.2v-0.2V54.8v-5.3V32.7v-5.3V10.5H76.1z M76.1,54.8H52.4v-5.3h23.7
				C76.1,49.5,76.1,54.8,76.1,54.8z M76.1,32.7H52.4v-5.3h23.7C76.1,27.4,76.1,32.7,76.1,32.7z"/>
		</g>
		<g>
			<polygon points="62.9,172.9 70.4,172.9 70.4,224.6 89.7,224.6 89.7,172.9 95.4,172.9 95.4,156.1 74,156.1 91.5,123.4 70.9,123.4 
				52.9,157 52.9,224.6 62.9,224.6 			"/>
			<path d="M11.7,224.6l3.2-5.9v5.9h19.3v-5.9l3.2,5.9h11.7l-11.2-21.1h11.2v-16.7h-15v-5.5h14.8v-16.8H31.5l10.9-8H49v-16.8H34.1
				v-16.3H14.8v16.3H0v16.8h6.6l10.9,8H0v16.8h14.8v5.5H0v16.8h11.2L0,224.6H11.7z M29.8,156.5l-5.3,3.9l-5.3-3.9H29.8z"/>
		</g>
		<g>
			<polygon points="232,198.1 231.1,198.7 231.1,193.8 241.6,193.8 241.6,185.3 231.1,185.3 231.1,181.1 241.6,181.1 241.6,164.3 
				200.9,164.3 200.9,181.1 211.4,181.1 211.4,185.3 200.9,185.3 200.9,193.8 211.4,193.8 211.4,198.7 210.5,198.1 198,198.1 
				211.2,207.9 200.9,207.9 200.9,224.6 241.6,224.6 241.6,207.9 231.3,207.9 244.6,198.1 			"/>
			<polygon points="225,146.6 232.6,160.8 244.3,160.8 230.9,135.6 226.4,127.3 214.7,127.3 196.8,160.8 217.4,160.8 			"/>
			<path d="M279.5,124.3h-19.7v15.9v3.8h-2.7h-9.9v16.8v63.8h9.9v-21.4h15.4v4.6h-6.9v16.8h6.9h18.8h0.9v-63.8v-8.5V144h-12.7v-3.8
				L279.5,124.3L279.5,124.3z M257.1,185.5v-3h15.4v3H257.1z M272.5,163.6h-15.4v-2.8h15.4V163.6z"/>
			<polygon points="300.1,123.4 288.5,123.4 279.5,140.2 291.2,140.2 			"/>
			<polygon points="239.2,123.4 248.2,140.2 259.8,140.2 250.9,123.4 			"/>
		</g>
	</g>
	<g>
		<path d="M17.3,251.9h-6.1v0.2c2,1.7,3.8,3.8,5.5,6.2l-3.8,3.2c-0.4-1.9-1-3.6-1.7-5.1v15.4l-5.1,1v-9.6c-0.7,1.3-1.8,2.7-3.3,4.1
			l-1.9-1.6c2.5-4.4,4.2-9,5-13.8h-5v-2.5h5.2v-3.5c-1.5,0.2-3,0.3-4.3,0.3l-0.5-2.6c4-0.5,8.2-1.7,12.9-3.5l2.5,3.9
			c-1.5,0.5-3.3,0.9-5.4,1.1v4.2H12l2-1.8l3.3,2.9V251.9z M33.6,261.2l-4.3,0.6v10l-5.2,0.9v-10.2L13.6,264l-0.5-2.5L24,260v-20
			l5.2,1v17.8l0.8-1.3l3.3,2.2L33.6,261.2z M23.5,256.2l-3.8,3.6c-0.9-2.7-2.1-5-3.3-7l1.9-1.6C20.7,253.1,22.4,254.8,23.5,256.2z
			 M23.4,247.3l-4.2,3.2c-0.6-2.4-1.4-4.8-2.6-7.3l2-1.4C20.6,243.7,22.3,245.5,23.4,247.3z"/>
		<path d="M70.1,267.7l-4,5.1c-4.2-2.3-6.7-3.9-7.5-4.7c-3,2-6.6,3.5-10.8,4.7l-1.2-2.5c3-1.1,6-3,9.1-5.6c-2-3-3.3-6-3.9-9h-1.1
			l0.1,0.2c-0.4,0.3-1.3,1.1-2.8,2.2c-0.6,0.4-0.9,0.7-1.1,0.8v10.2c0,0.9-0.3,1.6-1,2.3c-0.7,0.7-1.4,1-2.4,1h-2.9
			c0-0.1,0-0.2,0-0.2c0-1.7-0.9-2.5-2.8-2.5l0.1-2l2.7,0.1c0.6,0,0.9-0.3,0.9-0.8v-5.4l-2.9,1.4l-1.1-5.6c1.4-0.3,2.8-0.7,4-1.1
			v-7.2h-4v-2.5h4v-6.5l5.4,0.9v5.6h0.3l1.3-1.3l2.1,2.1v-2h5.8v-5.3l5.5,1v4.3H65l2-1.8l3.3,2.9v1.4H62v5.3h1.7l2.3-1.6l4.4,3.9
			l-1.6,1.2c-1.2,2.6-3.1,5.3-5.7,8.1C64.5,265.9,66.9,266.9,70.1,267.7z M56.4,253.2v-5.3h-5.3v1.2h-4.3v5.7l2.7-1.1l0.9,1.7v-2.2
			L56.4,253.2L56.4,253.2z M62.8,255.7h-8.3c1,2.5,2.4,4.6,4.4,6.2C61,259.6,62.3,257.6,62.8,255.7z"/>
		<path d="M106.7,251.9h-5.5l-0.4,3.5l-1.3,0.1l4.1,2.6l-1.1,1.1v8.5L100,268c1.9,0.4,4,0.9,6.2,1.5l-2.5,3.5
			c-3.1-1.4-6.5-2.6-10.2-3.7l1.2-1.5h-9.2l2,1.6c-3.3,1.8-7.5,3-12.6,3.6l-0.9-2.2c2.8-0.8,5-1.6,6.4-2.5l-2.7,0.5v-13.6l1,0.3
			l0.4-3.4h-5.3v-2.5h5.6l0.5-4.2H79c-0.3,1.4-0.7,2.8-1.2,4.1l-4-2c1.3-1.9,2.2-4,2.9-6.2l2.9,0.6c0,0.1,0,0.3-0.1,0.5
			c0,0.2-0.1,0.3-0.1,0.4h8v-2.5l5.3,1v1.5h8l1.9-1.5l3.9,2.9l-1.5,1l-2.7,3.5l-0.5-0.2l-0.4,0.4l-0.1,0.6h0.8l1.5-1.4l3,2.6
			L106.7,251.9L106.7,251.9z M97.9,255.6l-2.1,0.3l0.1-0.9H84.1l-0.1,0.4l-4.2,0.3l3.3,0.8H97L97.9,255.6z M97.9,245.2H81.1l3.8,1.1
			h11.7L97.9,245.2z M97.2,259.5v-0.7h-14v0.7H97.2z M97.2,262.3v-0.7h-14v0.7H97.2z M97.2,265.2v-0.8h-14v0.8H97.2z M88.1,251.9
			h-3.7l-0.1,0.8H88L88.1,251.9z M88.5,248.5h-3.8l-0.1,0.8h3.8L88.5,248.5z M96.1,251.9h-3.4l-0.1,0.8H96L96.1,251.9z M96.4,248.5
			H93l-0.1,0.8h3.5V248.5z M101,245.2h-2.2l2,1.5L101,245.2z"/>
		<path d="M123.6,264.4c-3.4,1.7-7.4,3.2-12.1,4.6l-1-4.9l3.7-0.5v-9h-3.6v-2.5h3.6v-7.2h-3.7v-2.5h8.3l1.5-1.4l3,2.6v1.3h-3.9v7.3
			l1.3-1.2l2.5,2.6v1.1h-3.9v8.1l3.6-0.9L123.6,264.4z M143.2,269.3c-0.7,1.9-1.9,2.9-3.6,2.9H136c-2.3,0-3.5-1.1-3.5-3.2v-8.4
			l3.9,0.7v-1.1h-7.7v0.7l2.8,0.7c-0.4,5.4-3.8,9.1-10,11.3l-2-2.1c4.3-2.8,6.6-5.9,6.9-9.3l-2.7,0.5v-21.9l5,1.8h7.6l2-1.8l4.3,3.3
			l-1.2,1.2v16.2l-4.1,0.8v5c0,0.6,0.2,0.9,0.7,0.9h0.6c0.2,0,0.4-0.2,0.6-0.7l1-3.5l2.2,0.5c-0.3,1.2-0.4,2-0.4,2.5
			C142,267.4,142.4,268.3,143.2,269.3z M136.4,247v-2.6h-7.7v2.6H136.4z M136.4,252.2v-2.7h-7.7v2.7H136.4z M136.4,257.6v-2.9h-7.7
			v2.9H136.4z"/>
		<path d="M163.4,258.5l-1.6,1.5v11.7l-5.8,1v-2.3h-2.4v1.5l-5.8,1v-18l5.8,2.2h2.4l2.6-2.2L163.4,258.5z M176.4,243.8l-1.6,1.5v8.6
			l-5.8,1v-2.4h-10.8v1.5l-5.8,1v-14.9l5.8,2.2H169l2.6-2.2L176.4,243.8z M156,267.8v-8.3h-2.4v8.3H156z M169,250v-5.2h-10.8v5.2
			H169z M179.7,258.5l-1.6,1.5v11.7l-5.8,1v-2.3h-2.7v1.5l-5.8,1v-18l5.8,2.2h2.7l2.6-2.2L179.7,258.5z M172.3,267.8v-8.3h-2.7v8.3
			H172.3z"/>
		<path d="M216.2,265.1h-6.8v6.8l-5.5,1v-7.8h-7.8v-2.5h1.8l-0.6-1.5c2.5-1,4.3-2.2,5.3-3.6h-1.1v0.5l-4.5,0.9V253h-7.4v4.2h1.2
			l2.2-1.9l4.1,3.7l-1.3,1.3v11.6l-4.6,0.9v-13.1h-1.4v0.6c0,4.2-1.4,8.4-4.1,12.5l-2-1.6c0.8-3,1.2-7,1.2-12v-18.3l4.9,1v8.7h1.1
			v-10.4l4.3,0.9v9.2l0.8-0.9l1.1,1.4v-8.3l4.5,1.8c1.1-1.5,2-2.9,2.5-4l5.5,1.4c-1.4,1.2-2.8,2.1-4.1,2.8h4.3l2.2-2l4.3,3.4
			l-1.4,1.3v11.1l-4.5,0.9v-1.6h-3.3l-0.5,0.8l3,0.8v3.4h1.6l2-1.8l3.3,2.9v1.4L216.2,265.1L216.2,265.1z M203.9,262.5v-2
			c-1.2,0.8-2.4,1.4-3.6,2H203.9z M203.8,249.3v-2.5h-2.3v2.5H203.8z M203.7,251.9h-2.2v3.1h1.9
			C203.6,253.9,203.7,252.9,203.7,251.9z M210.3,255v-3.1h-2.5c0,1.1-0.1,2.2-0.3,3.1H210.3z M210.3,249.3v-2.5h-2.4v2.5H210.3z"/>
		<path d="M252.7,267.5l-3.9,5.3c-6.8-6.2-10.9-11.7-12.2-16.6c-0.7,2.7-2.4,5.7-5.2,8.8c-2.8,3.2-5.9,5.7-9.5,7.7l-2-2.4
			c3.3-2.5,6.2-5.9,8.7-10.2c2.4-4.3,3.6-9,3.6-14.1v-5.9l6.3,1.3v4.5c0,1.3-0.2,3-0.5,5.3c0.8,2.2,2.5,4.9,5.2,7.9
			C246,262.2,249.2,265,252.7,267.5z"/>
		<path d="M260.3,251.2c0,2.6,0,4.5-0.1,5.8l-3.6-1.5c0.5-2.9,0.7-6.1,0.8-9.6l2.7,0.2c0,0.3,0.1,0.8,0.1,1.4
			C260.2,249.1,260.3,250.4,260.3,251.2z M289.3,272.2h-21.7v-2.5h8.8v-9h-7.2v-2.5h7.2v-7.4h-2.7c-0.7,2-1.7,3.8-2.9,5.4l-2.4-1
			c0.1-0.2,0.3-0.9,0.6-2.2l-1.9,0.8c-0.5-3.3-0.9-5.4-1.1-6.3v24.4l-5,0.8V240l5,0.9v4.4l1.6-0.7c0.7,1.3,1.4,2.8,2.1,4.3
			c0.3-2.2,0.5-4.3,0.6-6.2l5.1,0.9c-0.3,1.8-0.6,3.2-0.9,4.4h1.8v-8.2l5.7,1.1v7.1h1.9l1.9-1.8l3.3,2.9v1.4h-7v7.3h1.3l2-1.8
			l3.3,2.9v1.4h-6.6v9h1.9l2-1.8l3.3,2.9L289.3,272.2L289.3,272.2z"/>
	</g>
</g>
</svg>
