<?xml version="1.0" encoding="utf-8"?>
<!-- Generator: Adobe Illustrator 24.3.0, SVG Export Plug-In . SVG Version: 6.00 Build 0)  -->
<svg version="1.1" id="圖層_1" xmlns="http://www.w3.org/2000/svg" xmlns:xlink="http://www.w3.org/1999/xlink" x="0px" y="0px"
	 viewBox="0 0 182.3 79.4" style="enable-background:new 0 0 182.3 79.4;" xml:space="preserve">
<g>
	<g>
		<g>
			<g>
				<path d="M97.3,51.8v-2.6h1c0.6,0,1-0.2,1.5-0.7s0.7-1.2,0.7-2.2v-18c0-0.9-0.2-1.6-0.8-2.1c-0.3-0.3-0.8-0.5-1.3-0.5h-1.2v-2.6
					c1.2-0.6,2.2-1.3,3.1-2c0.7-0.6,1.5-1.4,2.6-2.4h2.1v28.1c0,0.8,0.2,1.5,0.6,1.9c0.5,0.3,1,0.6,1.6,0.6h0.9v2.6L97.3,51.8
					L97.3,51.8z"/>
				<path d="M126.8,51.8h-12.2V49l2.6-4c1.5-2.4,3-5.2,4.3-8.4c1.3-2.9,1.9-5.2,1.9-7c0-1.9-0.5-3.4-1.3-4.4s-1.6-1.6-2.7-1.6
					c-0.6,0-1.3,0.2-1.9,0.7c-0.6,0.3-1.2,1-1.6,1.9l-1.2-1.9c2.2-3.8,4.5-5.7,7.2-5.7c1.7,0,3.1,0.8,4.2,2.6
					c0.9,1.6,1.4,3.6,1.4,5.9c0,2.1-0.3,4.1-1.2,6.1c-0.6,1.6-1.6,3.5-3,5.8c-1.4,2.2-2.8,4.4-4.2,6.6h5.4c0.6,0,1-0.2,1.4-0.6
					c0.3-0.3,0.7-1,1-2h1.7L126.8,51.8z"/>
			</g>
		</g>
		<g>
			<g>
				<path d="M150.5,51.8v-2.6h1c0.6,0,1-0.2,1.5-0.7s0.7-1.2,0.7-2.2v-18c0-0.9-0.2-1.6-0.8-2.1c-0.3-0.3-0.8-0.5-1.3-0.5h-1.2v-2.6
					c1.2-0.6,2.2-1.3,3.1-2c0.7-0.6,1.5-1.4,2.6-2.4h2.1v28.1c0,0.8,0.2,1.5,0.6,1.9c0.5,0.3,1,0.6,1.6,0.6h0.9v2.6L150.5,51.8
					L150.5,51.8z"/>
				<path d="M179.9,44.4v8h-4.2v-8h-8.2v-4.5l9.1-21.1h3.4v20.4h2.3v5.4h-2.4L179.9,44.4L179.9,44.4z M175.7,25.5L169.8,39h5.8
					L175.7,25.5L175.7,25.5z"/>
			</g>
		</g>
		<rect x="131.8" y="43.1" transform="matrix(0.7071 -0.7071 0.7071 0.7071 9.7826 112.1479)" width="17" height="2.3"/>
		<g>
			<g>
				<path d="M13.8,51.8H1.6V49l2.6-4c1.5-2.4,3-5.2,4.3-8.4c1.3-2.9,1.9-5.2,1.9-7c0-1.9-0.5-3.4-1.3-4.4s-1.6-1.6-2.7-1.6
					c-0.6,0-1.3,0.2-1.9,0.7c-0.6,0.3-1.2,1-1.6,1.9l-1.2-1.9c2.2-3.8,4.5-5.7,7.2-5.7c1.7,0,3.1,0.8,4.2,2.6
					c0.9,1.6,1.4,3.6,1.4,5.9c0,2.1-0.3,4.1-1.2,6.1c-0.6,1.6-1.6,3.5-3,5.8c-1.4,2.2-2.8,4.4-4.2,6.6h5.4c0.6,0,1-0.2,1.4-0.6
					c0.3-0.3,0.7-1,1-2h1.7L13.8,51.8z"/>
				<path d="M33.7,47.9c-1.4,3-3.1,4.5-5.1,4.5c-2.2,0-4.1-1.7-5.4-5.1c-1.3-3.4-2-7.3-2-11.9c0-4.7,0.7-8.6,2-12
					c1.3-3.3,3.1-4.9,5.4-4.9c2,0,3.7,1.4,5,4.3c1.5,3.1,2.2,7.3,2.2,12.7C35.8,40.8,35.1,44.9,33.7,47.9z M31,29.9
					c0-2.6-0.1-4.4-0.3-5.6c-0.3-2-1-2.9-2.1-2.9s-1.6,0.8-2,2.4c-0.2,1.6-0.5,3.6-0.5,6.1v11.5c0,2.3,0.1,4.1,0.3,5.1
					c0.3,1.9,1,2.8,2.1,2.8c0.9,0,1.6-0.9,2-2.7c0.2-1.4,0.5-3.3,0.5-5.6V29.9z"/>
				<path d="M52.1,51.8H39.8V49l2.6-4c1.5-2.4,3-5.2,4.3-8.4c1.3-2.9,1.9-5.2,1.9-7c0-1.9-0.5-3.4-1.3-4.4s-1.6-1.6-2.7-1.6
					c-0.6,0-1.3,0.2-1.9,0.7c-0.6,0.3-1.2,1-1.6,1.9L40,24.3c2.2-3.8,4.5-5.7,7.2-5.7c1.7,0,3.1,0.8,4.2,2.6
					c0.9,1.6,1.4,3.6,1.4,5.9c0,2.1-0.3,4.1-1.2,6.1c-0.6,1.6-1.6,3.5-3,5.8c-1.4,2.2-2.8,4.4-4.2,6.6h5.4c0.6,0,1-0.2,1.4-0.6
					c0.3-0.3,0.7-1,1-2h1.7L52.1,51.8z"/>
				<path d="M71.2,51.8H59V49l2.6-4c1.5-2.4,3-5.2,4.3-8.4c1.3-2.9,1.9-5.2,1.9-7c0-1.9-0.5-3.4-1.3-4.4s-1.6-1.6-2.7-1.6
					c-0.6,0-1.3,0.2-1.9,0.7c-0.6,0.3-1.2,1-1.6,1.9l-1.2-1.9c2.2-3.8,4.5-5.7,7.2-5.7c1.7,0,3.1,0.8,4.2,2.6
					c0.9,1.6,1.4,3.6,1.4,5.9c0,2.1-0.3,4.1-1.2,6.1c-0.6,1.6-1.6,3.5-3,5.8c-1.4,2.2-2.8,4.4-4.2,6.6h5.4c0.6,0,1-0.2,1.4-0.6
					c0.3-0.3,0.7-1,1-2H73L71.2,51.8z"/>
			</g>
		</g>
		<rect x="77.3" y="43.1" transform="matrix(0.7071 -0.7071 0.7071 0.7071 -6.18 73.6442)" width="17" height="2.3"/>
	</g>
	<g>
		<g>
			<path d="M6.9,77.9c-0.8,1-1.7,1.5-2.7,1.5c-1.2,0-2.2-0.8-3-2.4S0,73.5,0,71s0.5-4.5,1.5-6.1c1-1.6,2-2.5,3.4-2.5
				c1.1,0,1.9,0.6,2.6,1.7c0.7,1.1,1.1,2.7,1.1,4.7c0,1.6-0.3,3-0.9,4.4c-0.7,1.5-1.4,2.1-2.3,2.1c-0.4,0-0.7-0.2-0.8-0.5
				c-0.2-0.3-0.2-0.7-0.2-1.3v-0.6c-0.1,0.3-0.2,0.6-0.2,0.8C4,74.3,3.8,74.8,3.6,75c-0.1,0.2-0.3,0.2-0.5,0.2S2.6,75,2.4,74.6
				S2,73.8,2,73c0-1.6,0.2-3.1,0.7-4.6s1.1-2.2,1.7-2.2c0.2,0,0.3,0.2,0.5,0.5c-0.1,0.2,0,0.3,0,0.6L5,66.6l1.5-0.1l-0.8,6
				c0,0.3-0.1,0.6-0.1,0.8s0,0.4,0,0.5c0,0.5,0.1,0.7,0.2,0.7c0.3,0,0.7-0.6,1.2-1.8s0.7-2.5,0.7-3.8c0-1.6-0.3-2.9-0.9-4
				c-0.6-1.1-1.3-1.6-2.2-1.6c-1.1,0-2,0.8-2.8,2.4c-0.7,1.6-1.1,3.6-1.1,6c0,2,0.3,3.8,1,5.1c0.7,1.3,1.5,2,2.5,2
				c0.8,0,1.6-0.5,2.4-1.4s1.2-2.1,1.6-3.7h0.7C8.4,75.5,7.8,76.9,6.9,77.9z M4.4,67.5c-0.2,0-0.3,0.4-0.6,1.2
				c-0.2,0.8-0.4,1.7-0.6,2.8v1.3c0,0.2,0,0.5,0.1,0.6c0,0.1,0.1,0.2,0.2,0.2c0.2-0.1,0.3-0.6,0.6-1.3c0.2-0.8,0.4-1.6,0.6-2.4
				c0-0.2,0.1-0.4,0.1-0.7s0-0.6,0-0.7C4.7,67.8,4.7,67.5,4.4,67.5z"/>
			<path d="M31,67.4l-3,2.5c-0.5-1-1.1-2-1.9-3c-3.9,1.2-7.8,2-11.6,2.2l2.9,1.1h7.4l1.6-1.3l2.9,2.1l-1,0.9v6.3l-3.4,0.6v-1.5h-7.5
				v1L14,78.9v-9.7c-0.4,0-0.8,0.1-1.3,0.1L11.4,66c1.3,0,2.4,0,3.2,0c1.6-2.1,2.9-4.2,4-6.5l3.8,1c-1.3,2.2-2.9,4-4.6,5.6
				c2.3-0.1,4.7-0.3,7.2-0.7c-0.5-0.7-1.1-1.2-1.8-1.9l1.6-1.5C27.1,63.7,29.1,65.5,31,67.4z M25,75.9v-4.1h-7.5v4.1H25z"/>
			<path d="M43.2,75.2c-2.5,1.4-5.2,2.6-8.4,3.7l-1.6-3.3c1.2-0.2,2.5-0.4,3.8-0.7v-8.1h-3.5v-1.5H37v-5.9l3.4,0.7v14.1
				c0.8-0.2,1.5-0.5,2-0.6L43.2,75.2z M52.5,76.9c-0.4,1.1-1.1,1.7-2.1,1.7h-4.7c-1.4,0-2-0.7-2-1.9V59.5l3.4,0.7v6.2
				c1.1-1,1.9-2,2.5-3l3,2c-1.6,1.3-3.4,2.4-5.5,3.2v6.6c0,0.4,0.2,0.6,0.6,0.6h1.5c0.3,0,0.5-0.2,0.6-0.4l0.6-2.4l1.4,0.3
				c-0.1,0.4-0.1,0.7-0.1,1.1C51.5,75.5,51.8,76.2,52.5,76.9z"/>
			<path d="M74.2,61.8l-0.9,0.9v15.5L70,78.8v-0.9H58.9v0.5L55.6,79V59.5l3.3,1.2h10.9l1.4-1.2L74.2,61.8z M65.7,62.2h-6.8v2.4h5
				c-0.1-0.4-0.2-1.1-0.2-2L65.7,62.2z M65.4,71.9c-0.2-1-0.5-2.1-0.8-3.4l-0.2,0.2v3.1l-2,0.4v-0.7h-0.7V72l-2,0.4v-6.1l2,0.7h0.7
				l0.9-0.7l1.2,1c0-0.2-0.1-0.7-0.2-1.3H59v7.1c2-0.2,3.9-0.5,5.7-0.7l0.1,0.4C65,72.4,65.2,72,65.4,71.9z M69.9,76.4v-2.2
				c-0.5,1.3-1.1,1.9-1.9,1.9s-1.5-0.7-2-2.1c-0.6,0.7-1.3,1.4-2.3,2.2l-0.9-0.8c0.3-0.4,0.7-0.8,1.1-1.4c-1.3,0.5-2.8,1-4.4,1.4
				L59,73.7v2.6L69.9,76.4L69.9,76.4z M62.3,70.1v-1.5h-0.7v1.5H62.3z M69.9,65.1v-2.8h-2c0.4,0.2,0.8,0.7,1.2,1.1l-1.8,1.1
				c-0.2-0.7-0.5-1.3-0.9-1.9l0.5-0.3H66c0.1,0.7,0.2,1.5,0.2,2.4h1.5l0.8-0.7L69.9,65.1z M69.9,73.9v-7.8h-3.4
				c0.2,1,0.3,1.7,0.4,2.4c0.3-0.7,0.6-1.6,0.8-2.4l2.1,1.1c-0.6,1.7-1.3,3.2-2.2,4.5c0,0.1,0,0.2,0.1,0.3c0.1,0.3,0.2,0.5,0.2,0.5
				s0.3-0.6,0.6-1.6l1.1,0.5c-0.1,0.5-0.2,0.9-0.2,1.2C69.6,73,69.7,73.5,69.9,73.9z"/>
			<path d="M95.8,67.1l-2.1,2.5c-0.2-0.2-0.6-0.4-0.7-0.7v0.5h-7.4v-0.6c-0.9,0.8-1.5,1.3-1.9,1.6l-1-1.1c0.6-0.6,1-1,1.2-1.4
				c-0.2-0.2-0.4-0.7-0.7-1.2c-0.4,0.3-0.7,0.6-0.8,0.7l-0.8-0.8c0.7-1,1.6-2.6,2.5-4.8l-0.7,0.7l-2.5,4.3c1.1,1.1,1.8,2.5,2.2,4.1
				h9.3l1.1-1.1l2,1.7v0.8h-5.1v4.6c0,1.3-0.6,2-1.8,2H87c0,0,0,0,0-0.1c0-0.9-0.6-1.4-1.8-1.5l0.2-1.3H87c0,0,0,0,0.1,0
				c0.2,0,0.4-0.2,0.4-0.4v-3.4h-4.2c0,0.2,0,0.3,0,0.6c0,1.6-0.7,2.5-2.1,2.5h-0.8c0-0.1,0-0.1,0-0.2c0-0.8-0.2-1.2-0.8-1.4v4.7
				L76.8,79V59.5l2.9,1.1h0.9l1.1-1.1l2.5,1.8c0.2-0.5,0.3-1.1,0.5-1.8l2.5,0.6c-0.2,0.7-0.3,1.1-0.6,1.6h0.2l1-0.7l1.3,1.2
				c-0.2-0.7-0.4-1.3-0.5-1.8L90,60c0.2,0.5,0.3,0.7,0.3,0.7h2.4l0.9-0.6l2,1.6L95,62.3c-0.5,1-1.1,1.9-1.7,2.7
				C94.1,65.8,94.8,66.5,95.8,67.1z M80.8,71.7c0-1.9-0.3-3.6-1-5l0.9-4.4h-1.1v10.1c0.2,0,0.4,0,0.6,0
				C80.6,72.4,80.8,72.1,80.8,71.7z M87.2,73.8c-1.3,1.6-2.8,2.9-4.4,3.8l-1.1-1.2c0.9-0.7,1.9-2,2.9-3.9L87.2,73.8z M85.6,65.7
				c-0.2-0.3-0.4-0.7-0.7-0.9c-0.2,0.2-0.4,0.6-0.7,0.8c0.2,0.2,0.6,0.5,0.9,0.8C85.2,66.2,85.4,65.9,85.6,65.7z M86.7,63.1H86
				c-0.2,0.2-0.3,0.4-0.3,0.5c0.4,0.2,0.7,0.4,0.7,0.5C86.5,64,86.5,63.6,86.7,63.1z M91.3,67.1c-0.6-0.8-1.1-2.1-1.7-3.8l-0.3,0.2
				c-0.5,1.5-1.4,2.9-2.8,4.3h4L91.3,67.1z M95.8,75.6l-2.4,2.1c-0.6-1.1-1.4-2.5-2.5-3.8l1.3-1.1C93.6,73.6,94.8,74.6,95.8,75.6z
				 M92.8,62.3h-1.6c0.4,0.7,0.7,1.2,0.9,1.5C92.4,63.3,92.7,62.8,92.8,62.3z"/>
			<path d="M117.4,63.6l-1,2.8c-0.6-0.1-1.1-0.2-1.5-0.3l1,0.7l-0.7,0.6v4.1l-1.4,0.5l1.5,1.2l-0.7,0.7v4.4l-3,0.6v-0.7h-8.3v0.3
				l-3.1,0.6v-6.9l-0.7,0.2v-6.2c-0.4,0.2-0.8,0.2-1.1,0.3L98,65.2c3.7-1.6,6.5-3.4,8.4-5.6l3.7,1l-0.7,0.5
				C111.4,62.5,114.1,63.4,117.4,63.6z M112.6,65.4c-0.4-0.1-0.8-0.3-1.2-0.6v0.4h-7.7v-0.7c-0.6,0.2-1.2,0.5-2.1,0.8l1.2,0.4h9.3
				L112.6,65.4z M112.3,71.6v-0.2h-9.5v0.2l-0.7,0.2l1.4,0.3h8.3L112.3,71.6z M104.7,69.9c-0.8-0.9-1.4-1.5-1.7-1.7l0.8-0.8h-1V70
				L104.7,69.9L104.7,69.9z M111.8,74.3v-0.7h-8.3v0.7H111.8z M111.8,76.5v-0.7h-8.3v0.7H111.8z M106.1,68.6v-1.3h-2.3
				C104.5,67.5,105.3,68,106.1,68.6z M106.1,69.9v-1.1l-1.1,1.1H106.1z M109.8,63.8c-0.9-0.7-1.5-1.1-1.9-1.6
				c-0.9,0.7-1.8,1.3-2.7,1.6H109.8z M110.4,67.3h-1.5v2.5c0.2-0.2,0.6-0.7,0.9-1.3C110.1,67.9,110.4,67.5,110.4,67.3z M112.3,69.9
				v-1.7c-0.5,0.7-1.1,1.3-2,1.7H112.3z M112.3,68.1v-0.8h-1.6L112.3,68.1z"/>
			<path d="M139.1,76.8c-0.2,1.3-0.8,2-1.8,2c-1.1,0-2.1-0.6-3-1.8c-1,0.7-2,1.2-3.2,1.7l-0.5-0.8c-0.3,0.7-0.8,0.9-1.6,0.9h-1.1
				v-0.1c0-0.8-0.7-1.2-1.9-1.2v-1.1l1.4,0.1l0,0c0.3,0,0.5-0.2,0.5-0.6v-0.2c-0.4,0.1-1,0.2-1.6,0.2l-0.5-2.2
				c1-0.1,1.7-0.2,2.2-0.2v-1.2h-2v-1.5h2V70c-0.3,0.1-0.7,0.2-1.1,0.2l-0.2-1.2c1.5-0.4,2.6-0.8,3.4-1.2h-3.7v-1.5h4.2v-0.7h-3.7
				v-1.5h3.8v-0.7h-4V64h-6.9v-1.5h1.9v-2.9l2.7,0.6v2.3l0.7-0.7l1.4,1.3V62h3.1c-0.4-0.5-1.1-0.9-1.9-1.3l1.2-1.1
				c1.4,0.2,2.5,0.7,3.4,1.5l-1.1,1h1.9c0.7-0.9,1.3-1.6,1.7-2.5l2.8,0.8c-0.7,0.7-1.6,1.2-2.5,1.6h1.4l0.9-0.8l1.7,1.6v0.8h-2.3
				l1.6,1.4v0.7h-0.7l1.6,1.4v0.8h-5.7l1.7,0.4v2.5h1.9l0.7-0.7l1.5,1.3v0.8h-2.1l1.4,0.6c-0.7,1-1.4,1.7-2,2.4
				c0.4,0.5,0.7,0.7,0.7,0.7c0.2,0,0.4-0.7,0.9-2.1l1,0.3c-0.2,0.6-0.2,1.1-0.2,1.6C138.7,76.1,138.7,76.5,139.1,76.8z M126,66.9h-6
				v-1.5h3.6l0.8-0.7l1.6,1.5V66.9z M126.1,69.8h-6v-1.5h3.7l0.9-0.8l1.6,1.5L126.1,69.8L126.1,69.8z M126.3,72.6l-0.7,0.7v5.1
				l-2.5,0.4V78h-0.7v0.7l-2.5,0.4v-8.2l2.5,0.9h0.7l1.1-0.9L126.3,72.6z M123.2,76.4v-3.2h-0.7v3.2H123.2z M133.2,75.2
				c-0.4-1.1-0.7-2-0.7-2.9h-1.7v0.8c0.4-0.1,0.8-0.2,1.2-0.5l0.6,1c-0.6,0.6-1.1,0.9-1.8,1.1v2.2c0,0.2,0,0.2,0,0.3
				C131.7,76.5,132.5,75.9,133.2,75.2z M132.4,70.7v-3h-1.3l1.2,1.2c-0.6,0.2-1.1,0.4-1.5,0.6v1.2C130.8,70.7,132.4,70.7,132.4,70.7
				z M136.3,63.5h-2.4v0.7h1.7L136.3,63.5z M137.1,65.6h-3.2v0.7h2.5L137.1,65.6z M136,72.3h-0.8c0,0.2,0.1,0.6,0.2,0.9
				C135.5,72.9,135.7,72.6,136,72.3z M138.3,69.3l-1.9,1.4c-0.2-0.7-0.7-1.5-1.2-2.2l1-0.7C137,68.2,137.8,68.7,138.3,69.3z"/>
			<path d="M160.6,64.1l-1.1,1.1v7.7l-3.7,0.7V72h-3.3v6.3l-3.7,0.6V72h-3.1v1l-3.7,0.7V62l3.7,1.3h3.1v-3.8l3.7,0.7v3h3.3l1.5-1.2
				L160.6,64.1z M149,70.5v-5.6h-3.1v5.6H149z M155.9,70.5v-5.6h-3.3v5.6H155.9z"/>
			<path d="M166.8,66.6c0,0.1,0,0.3,0,0.6c0,3.1-0.2,5.8-0.6,8.1l-3.4-1.6c0.7-1.6,1.1-4.1,1.5-7.5L166.8,66.6z M180.5,76.2
				c-0.4,1.6-1.3,2.4-2.7,2.4h-7.4c-0.8,0-1.5-0.2-2-0.8c-0.6-0.5-0.8-1.1-0.8-2V63.5l3.7,0.7v10.7c0,0.4,0.2,0.6,0.7,0.6h3.9
				c0.3,0,0.6-0.2,0.7-0.5l0.7-3.7l1.6,0.2c0,0.3,0,0.7,0,0.9C178.6,74.3,179.3,75.6,180.5,76.2z M176.6,63.8l-2.6,2.5
				c-1.1-1.7-2.5-3.4-4.2-4.9l1.6-1.6C173.2,60.9,174.9,62.2,176.6,63.8z M182.3,71.5l-3,2c-0.6-2.6-1.4-5-2.5-7l2.1-1.1
				C180.7,68,181.8,70.2,182.3,71.5z"/>
		</g>
	</g>
</g>
</svg>
