<?xml version="1.0" encoding="utf-8"?>
<!-- Generator: Adobe Illustrator 24.3.0, SVG Export Plug-In . SVG Version: 6.00 Build 0)  -->
<svg version="1.1" id="圖層_1" xmlns="http://www.w3.org/2000/svg" xmlns:xlink="http://www.w3.org/1999/xlink" x="0px" y="0px"
	 viewBox="0 0 750 290" style="enable-background:new 0 0 750 290;" xml:space="preserve">
<g>
	<polygon points="140.6,179.2 140,176 133.1,137 132.6,133.7 129.4,134.3 119.7,137 116.5,137.5 117.1,140.7 124,178.7 124.5,181.9 
		127.7,181.3 137.4,179.7 	"/>
	<polygon points="205.8,187.7 205.8,143.9 252.8,143.9 256,143.9 256,140.7 256,131.1 256,127.9 252.8,127.9 144.3,127.9 
		141.1,127.9 141.1,131.1 141.1,140.7 141.1,143.9 144.3,143.9 189.2,143.9 189.2,187.7 137.4,187.7 134.2,187.7 134.2,190.9 
		134.2,201.1 134.2,204.3 137.4,204.3 259.3,204.3 262.5,204.3 262.5,201.1 262.5,190.9 262.5,187.7 259.3,187.7 	"/>
	<path d="M349.1,168.5l-1.6-2.7l-3.7-8.6l-1.1-2.7l-3.2,1.1l-20.9,8.6v-56.7h24.6v-16h-24.6V41.7h26.2V26.2h-68.4v15.5H302v49.7
		h-25.6v16H302v62l-24,7l-3.2,0.5l1.6,3.2l3.7,8.6l1.1,2.7l2.7-0.5c29.4-7.5,50.2-15,62.5-21.4L349.1,168.5z"/>
	<path d="M128.8,126.3l1.1,3.2l3.2-0.5l9.1-2.1l3.2-1.1l-1.1-3.2c-1.6-6.4-6.4-18.2-13.9-36.4l-1.1-2.7l-2.7,1.1l-9.1,3.2l-3.2,1.1
		l1.6,3.2l4.8,11.2l-25.6,2.6c17.1-20.3,28.3-39.6,33.7-57.7l1.1-3.2l-4.3-1.6l-9.1-2.7l-3.2-1.1l-1.1,3.3
		c-3.6,9.8-8,19.3-13.4,28.3l-10.7-9.6c6.2-11.1,11.7-22.5,16.6-34.2l1.1-2.7l-2.7-1.1l-8.6-4.3l-3.2-1.6l-1.1,3.1
		c-4.8,11.2-9.6,21.9-14.4,31L68.3,47l-2.7-1.6L64,48.1l-4.8,8l-1.6,2.8l2.7,1.6c11,6.6,21.1,14.7,29.9,24.1
		c-5.9,8-11.8,15.5-18.2,23l-9.6,1.1l-3.7,0.5l1.1,3.7L62,122l0.5,2.7l2.7-0.5l28.9-2.7v89.3h16v-90.9l16-1.6L128.8,126.3z"/>
	<path d="M690.7,188.8c-46.5-37.4-73.2-70.6-84.5-105.3c-4.6-12.4-7.3-25.3-8-38.5v-2.1l0.5-9.1V16.1h-19.3v18.2
		c0,55.1-15.5,96.8-47,126.7c-11.2,11.2-25.1,18.7-40.6,26.7l-3.7,1.6l2.7,3.2l7.5,9.6l1.6,2.1l2.7-1.6c31-18.7,49.7-34.8,62.6-52.9
		c12.3-18.2,20.3-35.3,25.7-54c9.6,26.7,28.3,52.9,56.7,81.3l0,0l28.3,24.6l2.1,1.6l2.1-1.6l10.7-8l3.2-2.7L690.7,188.8z"/>
	<path d="M250.7,52.5l-2.7-1.1l-9.1-3.7l-3.7-1.6l-1.1,3.8c-2.8,10.6-7.5,20.5-13.9,29.4c-2.1,3.2-2.1,6.4,0,9.1
		c5.9,6.9,12.3,17.1,18.7,31l1.6,3.2l3.2-2.1l8-5.3l2.7-1.6l-1.6-2.7c-7.5-13.4-13.9-23-17.6-27.8c5.6-8.8,10.2-18.1,13.9-27.8
		L250.7,52.5z"/>
	<path d="M74.8,134.8l-3.2-0.5l-0.5,3.7c-1.6,13.9-6.4,31.5-13.9,52.9l-1.1,3.2l3.2,1.1l9.6,2.7l2.7,0.5l1.1-2.7
		c8-21.9,12.8-39.6,14.4-55.1l0.5-3.2l-3.2-0.5L74.8,134.8z"/>
	<polygon points="254.4,41.3 257.6,41.3 257.6,38 257.6,29 257.6,25.7 254.4,25.7 137.9,25.7 134.7,25.7 134.7,29 134.7,38 
		134.7,41.3 137.9,41.3 	"/>
	<path d="M182.8,91c5.4,5.9,11.2,15.5,17.6,28.3l1.6,3.2l3.2-2.1l8-5.3l2.7-1.6l-2.1-2.7c-5.7-9.8-12.1-19.1-19.2-27.8
		c4.3-5.3,9.6-14.4,17.1-26.7l1.6-2.7l-2.7-1.7l-8.6-4.8l-3.2-1.6l-1.1,2.7c-5.4,11.8-11.2,21.9-18.2,29.9l0,0
		C175.3,82.4,180.1,88.8,182.8,91z"/>
	<path d="M172.6,52.5l-2.6-1.6l-8.6-4.3l-3.2-1.6l-1.6,3.7c-4.3,12.3-9.6,22.4-16,30.5c-3.7,4.3,1.1,10.7,3.2,13.4
		c5.4,7.5,10.2,16.6,15,28.3l1.6,3.2l3.2-2.1l8.6-4.8l2.7-1.6l-2.2-2.7c-7-13.4-12.3-23-17.1-28.9c6.1-8.9,11.3-18.4,15.5-28.3
		L172.6,52.5z"/>
	<path d="M469.9,11.3l-33.1,31.6l-17.1-14.4l-2.1-2.1h-67.4v34.2l-7.5,6.4l7.5,6.4v54.5h47.6v17.6h-51.3v16h51.3v26.2h-61v16.6
		h139.6v-16.5h-62v-25.7h54.5v-16h-54.5v-17.7h50.8V66.9l-3.2-2.7L450.2,54l29.4-35.3L469.9,11.3z M413.8,45l10.7,9.1l-10.7,10.2V45
		z M366.7,111.8v-23l24.6,23H366.7z M366.7,57.3V42.9h31.5v37.9l-1.1-0.5L366.7,57.3z M449,111.8h-47.5l17.6-20.9H449V111.8z
		 M449,75.5h-16.5l7.5-8.6l9,7.5V75.5z"/>
	<polygon points="628.1,186.7 632.4,186.7 632.4,184.5 631.9,184.5 621.7,184.5 621.7,186.7 626.5,186.7 626.5,193.1 621.2,193.1 
		621.2,194.7 626.5,194.7 626.5,203.8 628.1,203.8 628.1,194.7 633,194.7 633,193.1 628.1,193.1 	"/>
	<path d="M616.4,184.5H602c-0.3,0-0.5,0.2-0.5,0.5l0,0v8.6c0,2.7-1.1,5.3-2.1,8.5v0.5l1.6,0.5v-0.5c1-1.8,1.8-3.8,2.1-5.9h12.8v4.3
		l0,0c0,0-1.1,0.5-4.3-0.5H611v2.1h0.5c1.2,0.4,2.5,0.6,3.7,0.5c1.1,0,1.6,0,2.1-0.5c0.5,0,0.5-0.5,0.5-1.1v-16
		C617.5,185.1,616.9,184.5,616.4,184.5z M615.3,195.2H603V192h12.3V195.2z M615.3,189.9H603v-3.7h12.3V189.9z"/>
	<polygon points="635.6,184.5 635.1,184.5 634,184.5 634,199.5 635.6,199.5 	"/>
	<path d="M640.4,184h-1.6v17.6l0,0c-1.4,0.3-2.9,0.1-4.3-0.5H634v1.6h0.5c2.7,0.5,4.3,0.5,5.3,0c0.5,0,0.5-0.5,0.5-1.1L640.4,184
		L640.4,184z"/>
	<path d="M65.7,263.7h3.7v-31.5h-3.7v-1.1h12.8l5.9,19.8l5.9-19.8h12.3v1.1h-3.7v31.5h3.7v1.1H87.1v-1.1h3.8v-31.5l-9.6,32.1h-1.1
		l-9.6-32.1v31h4.3v1.1h-8.6v-0.5h-0.6V263.7z"/>
	<path d="M113.3,241.2l4.3,12.3H109L113.3,241.2z M101,264.2h9.6v-1.1h-4.8l3.2-9.1h9.1l3.2,9.1H117v1.1h15.5v-1.1h-2.7L118,230.5
		h-1.6l-11.2,32.6h-3.7C101.2,263.4,101,263.8,101,264.2L101,264.2z"/>
	<path d="M131.5,263.7h3.7v-31.5h-3.7v-1.1h12.8l12.8,21.4v-20.3h-3.7v-1.1h9.1v1.1h-3.7v32.1H155l-18.7-31v29.9h3.7v1.1h-8.6
		L131.5,263.7L131.5,263.7z"/>
	<path d="M170,241.2l4.3,12.3h-8.6L170,241.2z M157.2,264.2h9.6v-1.1H162l3.2-9.1h9.1l2.7,9.1h-4.3v1.1h15.5v-1.1h-2.7l-11.8-32.6
		h-1.6l-11.2,32.6h-3.7V264.2z"/>
	<path d="M211.7,231h1.1l0.5,9.6h-1.1c-0.4-1-0.8-2.1-1.1-3.2c-0.8-1.1-1.7-2.2-2.7-3.2c-1.1-1.6-3.2-2.7-6.4-2.7
		c-1.3,0-2.6,0.4-3.7,1.1c-1.3,0.7-2.2,1.8-2.7,3.2c-0.5,1.6-1.1,5.9-1.1,12.3c-0.1,2.7,0.1,5.4,0.5,8c0.1,1.8,0.5,3.6,1.1,5.3
		c0.5,2.1,2.7,2.7,5.4,2.7c1.4,0,2.8-0.5,3.7-1.6c0.7-1.5,1.1-3.1,1.1-4.8v-7h-3.7v-1.1h15.5v1.1h-4.3v7c-0.5,0.5-0.5,1.1-1.1,1.6
		c-0.7,0.6-1.2,1.3-1.6,2.1c-1.1,1-2.4,1.9-3.7,2.7c-1.9,0.7-3.9,1-5.9,1.1c-4.5,0.2-8.9-1.8-11.8-5.3c-2.7-3.7-4.3-7.5-4.3-11.8
		c-0.1-4.6,1.6-9,4.8-12.3c2.9-3.1,7-4.8,11.2-4.8c1.4-0.1,2.9,0.1,4.3,0.5c1.5,0.6,2.9,1.3,4.3,2.1L211.7,231z"/>
	<path d="M216.5,263.7h4.3v-31.5h-4.3v-1.1h26.2l0.5,9.1h-1.1c-0.3-2-1.3-3.9-2.7-5.4c-1.3-1.7-3.2-2.7-5.4-2.7h-5.9v15h1.6
		c0.6,0.1,1.2-0.1,1.6-0.5c0.9-0.1,1.7-0.7,2.1-1.6c0.5-0.5,0.5-1.1,1.1-1.6c0.3-1,0.4-2.1,0.5-3.2h1.1v14.4H235
		c-0.1-0.9-0.3-1.8-0.5-2.7c-0.2-0.9-0.6-1.8-1.1-2.7c-0.5-1.1-2.1-1.6-4.3-1.6H228v15.5h6.4c1.1-0.1,2.2-0.5,3.2-1.1
		s1.9-1.3,2.7-2.1c0.5-1.1,1.1-1.6,1.6-2.7c0.5-0.5,0.5-2.1,1.1-3.8h0.5l-0.5,10.7h-27C216.3,264.2,216.5,263.9,216.5,263.7
		L216.5,263.7z"/>
	<path d="M256.6,232.1h4.3c1.6,0,2.7,0.5,3.2,1.6c0.8,1.9,1.1,3.9,1.1,5.9c0.1,1.8-0.3,3.7-1.1,5.4c-0.5,1.1-2.1,1.6-3.7,1.6h-3.7
		L256.6,232.1L256.6,232.1z M244.8,264.2h16v-1.1h-4.3v-16h2.7c1.4,0,2.8,0.5,3.7,1.6c1.1,1.2,1.7,2.7,1.6,4.3v4.3
		c0,2.1,0.5,4.3,2.1,5.3s3.2,2.1,5.4,2.1h2.1c0.9-0.2,1.8-0.4,2.7-0.5l-0.5-1.1c-0.4,0.4-1,0.6-1.6,0.5c-1.1,0-1.6-0.5-1.6-1.1
		c-0.5-0.5-0.5-2.1-0.5-4.3c0.1-1.4-0.1-2.9-0.5-4.3c-0.5-1.1-0.5-2.1-1.6-3.2c-0.4-1-1.2-1.7-2.1-2.1c-0.6-0.6-1.3-0.9-2.1-1.1
		c-0.5,0-2.1-0.5-3.2-0.5c1.1-0.1,2.2-0.3,3.2-0.5c1.1,0,1.6-0.5,2.7-1.1c1.6-1.1,2.7-1.6,3.2-2.7c0.7-1.1,1-2.4,1.1-3.7
		c0.1-2.1-0.9-4.2-2.7-5.4c-2.4-1.5-5.2-2.2-8-2.1h-18.2v1.1h3.7v31.5L244.8,264.2L244.8,264.2z"/>
	<path d="M286.5,244.4c1.1-0.7,2.2-1.4,3.2-2.1l1.6-1.6l1.1-1.1c0.5-0.5,0.5-1.1,1.1-1.6s0.5-1.1,1.1-2.1h1.1v8.6h3.8v1.1h-3.8v14.3
		c0,2.1,0.5,2.7,2.1,2.7c1.1,0,2.1-1.1,3.2-3.2h1c-0.5,0.8-0.9,1.7-1.1,2.7c-0.6,0.7-1.3,1.2-2.1,1.6c-1.2,0.5-2.5,0.7-3.7,0.5
		c-3.7,0-5.4-1.6-5.4-4.3v-15H287L286.5,244.4L286.5,244.4z"/>
	<path d="M307.9,253c0-3.7,0-5.9,0.5-7c0.6-1.1,1.9-1.8,3.2-1.6c1.2-0.2,2.3,0.5,2.7,1.6c0.4,1,0.6,2.1,0.5,3.2v9.6
		c0,1.1-0.5,2.7-0.5,3.7c-0.5,1.1-1.1,1.6-3.2,1.6c-1.6,0-2.7-0.5-3.2-1.6c-0.4-1-0.6-2.1-0.5-3.2V254L307.9,253L307.9,253z
		 M304.2,246.5c-2.1,1.9-3.3,4.6-3.2,7.5c0.2,5.8,4.9,10.5,10.7,10.7c5.8-0.2,10.5-4.9,10.7-10.7c-0.2-5.8-4.9-10.5-10.7-10.7
		C309,243.9,306.3,244.4,304.2,246.5L304.2,246.5z"/>
	<path d="M338.9,258.3c0,0.5-0.5,1.1-0.5,1.6c-0.5,0.5-1.1,1.6-1.6,2.1c-0.6,0.6-1.3,0.9-2.1,1.1c-0.8-0.1-1.6-0.5-2.1-1.1
		c-0.5-0.5-0.5-1.1-1.1-1.6v-12.3c0.1-0.8,0.5-1.6,1.1-2.1c0.5-0.5,1.1-1.1,1.6-1.1c0.8,0.1,1.6,0.5,2.1,1.1
		c0.7,0.8,1.2,1.7,1.6,2.7c0.4,0.8,0.6,1.7,0.5,2.7v5.4C338.9,257.8,338.9,257.8,338.9,258.3z M338.9,247.6
		c-0.6-1.1-1.5-2.1-2.7-2.7c-3.3-2-7.5-1.1-9.6,2.1c-1.7,2.1-2.6,4.8-2.7,7.5c0,2.6,0.9,5.1,2.7,7c1.6,2.1,3.7,2.7,6.4,2.7
		c1.7,0.1,3.3-0.3,4.8-1.1c0.3-0.6,0.6-1.1,1.1-1.6c0-0.5,0.5-0.5,0.5-1.1v3.2h9.6v-1.1h-3.2v-32.1h-9.6v1.1h3.2v16L338.9,247.6z"/>
	<path d="M360.8,257.8c0,1-0.4,1.9-1.1,2.7c-0.5,0.7-1.3,1.1-2.1,1.1c-0.5,0-1.6-0.5-1.6-1.1c-0.5-0.5-0.5-1.6-0.5-3.2
		c0-1.1,0-2.1,0.5-2.7s1.1-1.1,1.6-1.1c0.5-0.5,1.6-0.5,3.2-0.5V257.8z M360.8,252.4h-1.6c-1.6,0-2.7,0.5-3.7,0.5s-1.6,0.5-2.7,1.1
		c-1,0.4-1.9,1-2.7,1.6c-0.5,0.5-1.1,1.1-1.1,1.6s-0.5,1.1-0.5,2.1c0.1,2.9,2.4,5.3,5.3,5.4c1.3-0.1,2.6-0.5,3.8-1.1
		c1.1-0.6,2.1-1.5,2.7-2.7c0.4,1,0.9,1.9,1.6,2.7c0.9,0.8,2,1.1,3.2,1.1c1.6,0,3.2-0.5,3.7-1.6l0.5-1.1l-0.5-0.5
		c-0.5,0.5-1.1,1.1-1.6,1.1c-0.6,0-1-0.5-1.1-1.1v-12.8c0-3.2-2.7-4.3-8-4.3c-2.4-0.1-4.9,0.4-7,1.6c-1.6,1.1-2.7,2.1-2.7,3.7
		c0.1,0.8,0.5,1.6,1.1,2.1c0.6,0.4,1.4,0.6,2.1,0.5c0.8-0.1,1.5-0.5,2.1-1.1c0.7-0.5,1.1-1.3,1.1-2.1c0.1-0.6-0.1-1.2-0.5-1.6
		l-0.5-0.5v-0.5c0-0.5,0.5-0.5,1.1-1.1s1.1-0.5,2.1-0.5s1.6,0,2.1,0.5s0.5,1.1,0.5,2.1L360.8,252.4L360.8,252.4z"/>
	<path d="M368.3,244.4h12.8v1.1h-3.2l4.8,11.2l4.2-11.2h-3.7v-1.1h8v1.1h-2.7l-11.2,27.8c-1.6,3.8-3.2,5.4-5.4,5.4
		c-0.8,0-1.6-0.4-2.1-1.1c-1.1-0.5-1.1-1.1-1.1-2.1c0-0.8,0.4-1.6,1.1-2.1c0.6-0.6,1.3-0.9,2.1-1.1c0.5,0,1.1,0,1.1,0.5
		c0.5,0,0.5,0.5,1.1,1.1l0.5,0.5h0.5c0.3,0,0.5-0.2,0.5-0.5l0,0c0-0.5,0.5-1.1,0.5-1.6l3.2-8l-9-19.3h-2.1L368.3,244.4z"/>
</g>
</svg>
