<?xml version="1.0" encoding="utf-8"?>
<!-- Generator: Adobe Illustrator 24.3.0, SVG Export Plug-In . SVG Version: 6.00 Build 0)  -->
<svg version="1.1" id="圖層_1" xmlns="http://www.w3.org/2000/svg" xmlns:xlink="http://www.w3.org/1999/xlink" x="0px" y="0px"
	 viewBox="0 0 1380 220" style="enable-background:new 0 0 1380 220;" xml:space="preserve">
<style type="text/css">
	.st0{fill-rule:evenodd;clip-rule:evenodd;}
</style>
<g>
	<path class="st0" d="M131.2,110.4L131.2,110.4l42.3-40.1l-48.8-46.1L76.2,70.3l0,0l-42.3,40.1L75.9,150l0,0l48.8,46.1l48.8-46.1
		L131.2,110.4L131.2,110.4z"/>
	<path d="M349.8,41.2h-30.9c-3.2-7.5-7-14.7-11.2-21.7l-14.1,3.8c2.7,5.4,6,12.1,8.7,17.9h-38.5v12.3h86.2L349.8,41.2z M295.8,81.5
		c-1.4-9.3-4.1-18.3-8.1-26.9L276,57.3c3.4,8.7,6.5,20.1,7.4,27.3L295.8,81.5z M278.5,141.9c-4,12.8-10.8,26.2-18.6,35.4
		c2.9,1.6,7.8,5.4,10.3,7.2c7.4-9.9,15.7-25.3,20.4-39.2L278.5,141.9z M350.4,131.4v-12.5h-35.6V98.3h37.9V86h-25.1
		c3.8-8.3,7.4-18.8,11-28.4l-13.4-2.7c-3,10.6-6.6,21-10.7,31.1H260v12.3h40.3v20.6h-39.2v12.5h39.2v68.3h14.3v-68.3L350.4,131.4z
		 M323.5,145.9c5.8,9.4,13,23,16.1,31.6l10.5-5.8c-3.4-8.5-10.3-21.3-16.6-30.9L323.5,145.9z M438.4,86.4h-62.7V49
		c20.6-3.1,43.2-8.1,59.3-14.1l-11.6-10.7C409.2,30,384.1,36.1,362,39.6v67.8c0,26.2-1.6,60-18.1,83.5c3.1,1.6,9,6,11.2,9
		c17.9-25.5,20.6-64.2,20.6-92.4v-7h27.1v98.9H417V100h21.5V86.4H438.4z"/>
	<path d="M598.9,141.7v22.8h-46.8v-22.8H598.9z M610.9,175.3v-44.8h-71.8v53.7h12.8v-9L610.9,175.3L610.9,175.3z M650.8,82.8H606
		c5.2-6.9,10.5-15.7,15.2-23.5l-14.8-3.4c-3.1,7.8-9.2,18.8-14.3,26.9H501v117.3h13.9V94.9h33.8c-2.7,15.2-10.5,23.1-33.6,27.1
		c3,3,5.4,6.5,7.2,10.3c27.1-6,36.5-17,39.4-37.4h22.2v12.5c0,11.6,2.5,16.8,14.3,16.8h20.6c4.2,0,9,0,11.4-0.9
		c-0.5-3.5-0.8-7-0.9-10.5c-3.5,0.6-7.1,0.9-10.8,0.9h-17.7c-3.1,0-3.8-1.6-3.8-5.8V95.2h39.8v89.1c0,3.1-1.1,4-4.3,4
		c-3.1,0.2-14.5,0.5-26.8,0c2.1,3.4,3.6,7.2,4.5,11.2c16.8,0,26.6-0.2,32.5-2c5.8-2.2,7.6-5.6,7.6-13.2V82.8H650.8z M531.7,59.1
		c4,7.4,9.4,17.2,12.3,22.8l12.5-5.1c-2.5-5.8-8.1-15-12.3-21.9L531.7,59.1z M586.2,41.9c-2.2-6.5-5.8-15.2-8.5-22.2L564,23.3
		c2.5,5.6,4.9,12.5,6.9,18.6h-81.2v12.5h171.7V41.9L586.2,41.9L586.2,41.9z"/>
	<path d="M774.1,163.6c-13,8.5-38,16.1-58.2,19.5c3.5,3.3,6.5,7,9,11c20.6-4.7,46.3-14.8,60.4-25.5L774.1,163.6z M821.8,170.5
		c18.8,6.9,43.6,17,56.6,23.3l9-9.2c-13.7-6.3-38.5-15.7-57.1-21.9L821.8,170.5z M833.4,67.8c-3.3,6.8-7.2,13.3-11.6,19.5l6.9,2.2
		h-54.4l8.1-2.2c-2.5-7-6-13.6-10.5-19.5H833.4z M809,141.5v-14.8h61.5v-11.2H809v-14.1h71.4V89.5h-45.2c4.2-4.9,9-11.6,13.7-18.1
		l-12.8-3.6h51.3V55.5H857c5.2-7.4,11.6-18.4,17.2-28.4l-15-4c-3.4,8.9-9.6,21.9-15.2,30l7.8,2.5H828V20.7h-13.9v34.8h-23.5V20.6
		h-13.9v34.9h-24l9.8-4c-2.7-7.8-9.8-20.1-16.8-28.9l-12.3,4.3c6,8.9,12.8,20.6,15.7,28.6h-31.7v12.3h50.8l-10.5,2.7
		c4,5.9,7.4,12.2,10.1,18.8h-42.5v11.9h69.3v14.1h-59.3v11.2h59.3v14.8h-77.9v12.2h77.9v46.8H809v-46.8h79v-12.3L809,141.5
		L809,141.5z"/>
	<path d="M1051.6,81.9c-4.3-4.1-9-7.7-14.1-10.7c4.1-3.9,7.9-8.1,11.4-12.5l-10.3-3.4c-2.9,3.9-6.2,7.4-9.8,10.5
		c-5.1-2.7-10.3-5.8-15.2-7.8l-7.4,6.5c4.5,2.2,9.4,4.7,14.1,7.6c-5.9,4.1-12.2,7.7-18.8,10.7c2.9,2.3,5.6,4.9,8.1,7.6
		c6.9-3.7,13.5-8,19.7-12.8c5.8,4,10.7,7.8,14.1,11.4L1051.6,81.9z M1051,46.8c-3.6-2.7-8.3-5.8-13.7-9.2c3.9-3.8,7.5-7.8,10.7-12.1
		l-10.1-2.9c-2.8,3.4-5.9,6.6-9.2,9.6c-5.1-2.7-10.1-5.4-14.8-7.4l-7.2,6.5c4.8,2.1,9.4,4.5,13.9,7.2c-5.5,3.9-11.4,7.2-17.5,10.1
		c2.9,2.2,5.7,4.6,8.3,7.2c6.4-3.5,12.5-7.4,18.3-11.9c4.8,3,9.4,6.3,13.7,10.1L1051,46.8z M959.4,101.8h138.5v24.4h14.3V90.6h-15.4
		c1.6-17.5,3.4-43,4.2-62.4h-45.3v10.1h31.3l-0.7,10.7h-29.8v10.1h29.1l-0.7,10.5h-29.2v10.1h28.7c-0.4,4-0.9,7.4-1.1,11h-108
		l-0.9-11h27.3V69.6h-28l-0.9-10.7h28V48.8h-28.6l-0.9-9.6c10.3-2,21.9-4.5,30.4-7.6l-6.5-9c-9.6,2.9-26.6,7.6-38,9.6l4,58.4h-15.7
		v35.6h13.9L959.4,101.8L959.4,101.8z M1116.2,149.7h-78.8v-3.6c15.7-6.3,32.2-15.2,44.5-24.4l-8.9-7.4l-2.9,0.9h-92.7v11h77
		c-9.9,6-20.4,11.1-31.3,15v8.5h-82.2V162h82.1v22.1c0,2.7-0.9,3.4-4,3.6c-2.9,0-13.9,0-26.2-0.4c2.2,3.9,3.9,8,5.2,12.3
		c15.7,0,25.5,0.2,31.8-2c6-2.2,7.6-5.6,7.6-13.2v-22.6h78.8L1116.2,149.7z"/>
	<path d="M1342.8,49.5h-57.3l12.8-5.8c-3.1-6.9-9.8-16.8-16.6-24l-12.3,5.4c6.1,7.6,11.3,15.9,15.7,24.6h-49.7v13.7h107.4V49.5z
		 M1298,74.8c12.5,12.3,27.3,30.2,33.6,41.9l10.7-9c-6.5-11.2-21.7-28.4-34.5-40.3L1298,74.8z M1261.6,68.1
		c-6.9,13.9-19.2,30.4-32,40.7c3.6,2.8,7.1,5.7,10.3,8.9c13-11.4,26.2-28.2,35.1-43.6L1261.6,68.1z M1231.8,122.2
		c-3.4-5.8-18.6-31.8-23.3-38.5v-7.8h22.2V62h-22.2V20.6H1195v41.6h-25.5v13.9h22.8c-5.6,27.1-17.2,58.2-29.3,74.8
		c3.1,4.3,5.8,9,7.8,13.9c9-13.9,17.7-36.3,24.2-59.5v95.2h13.4V103c5.4,10.7,11.9,23.7,14.3,30.4L1231.8,122.2z M1306.1,102.5
		c-3.9,15.1-10.6,29.4-19.7,42.1c-9.8-12.5-17.4-26.4-22.6-41.4l-12.5,3.6c6.5,18.1,15.2,34.7,26.2,48.8
		c-13,13.9-29.3,25.3-49.2,33.8c3.5,3.2,6.6,6.9,9.2,11c19.7-9,36-20.4,49.2-34c13.9,14.5,30.9,25.6,49.7,32.5
		c2.2-4,6.5-9.9,9.8-12.5c-18.9-6.3-36-16.9-50.1-30.9c11.1-14.8,19.3-31.6,24-49.5L1306.1,102.5z"/>
</g>
</svg>
