<?xml version="1.0" encoding="utf-8"?>
<!-- Generator: Adobe Illustrator 24.3.0, SVG Export Plug-In . SVG Version: 6.00 Build 0)  -->
<svg version="1.1" id="圖層_1" xmlns="http://www.w3.org/2000/svg" xmlns:xlink="http://www.w3.org/1999/xlink" x="0px" y="0px"
	 viewBox="0 0 406 64" style="enable-background:new 0 0 406 64;" xml:space="preserve">
<style type="text/css">
	.st0{fill-opacity:0.6;}
</style>
<g>
	<path d="M113.9,44.3c-0.2-1.3-0.6-2.6-1.1-3.8l-3.8-9.6c-0.5-1.4-1-2.8-1.3-4.3c0.1,1.5,0.2,3.8,0.2,4.4v9.2c0,1.4,0,2.7,0.2,4
		h-3.7c0.2-1.3,0.2-2.7,0.2-4V26.1c0-1.4-0.1-2.7-0.2-4h4.8c0.2,1.1,0.5,2.3,1,3.3l5.3,13.9l5.3-14c0.4-1.1,0.7-2.2,0.9-3.3h4.9
		c-0.2,1.3-0.2,2.7-0.2,4v14.1c0,1.4,0,2.7,0.2,4h-3.7c0.2-1.3,0.2-2.7,0.2-4v-9.2c0.1-2.4,0.2-3.9,0.2-4.3c-0.3,1.4-0.7,2.7-1.2,4
		l-4,9.9c-0.5,1.2-0.9,2.5-1.1,3.7L113.9,44.3z"/>
	<path d="M139.8,42.5c-0.7,0.9-1.7,1.5-2.8,1.8c-0.8,0.2-1.6,0.3-2.4,0.3c-0.7,0.1-1.3,0-1.9-0.2c-0.6-0.2-1.2-0.5-1.7-1
		c-0.5-0.4-0.9-1-1.1-1.6c-0.3-0.6-0.4-1.3-0.3-1.9c0-1,0.3-1.9,0.8-2.7c0.5-0.8,1.3-1.4,2.2-1.8c2.4-0.9,4.8-1.2,7.3-1.1v-1.4
		c0-1.6-1-2.5-3-2.5c-1,0-1.9,0.3-2.7,0.8c-0.5,0.5-0.9,1.1-1,1.8l-3.3-0.6c0.3-1.2,1-2.3,2-3.1c1.4-1.1,3.2-1.6,5-1.4
		c0.9-0.1,1.9,0,2.8,0.3c0.9,0.3,1.7,0.8,2.4,1.4c0.5,0.5,0.8,1.2,1,1.8c0.2,0.7,0.3,1.4,0.2,2.1v7.5c0,1.2,0,2.4,0.2,3.5h-3.5V42.5
		z M139.8,36.7c-5,0-6.9,1-6.9,3.2c0,0.3,0,0.6,0.1,0.9c0.1,0.3,0.3,0.5,0.5,0.8c0.2,0.2,0.5,0.4,0.8,0.4c0.3,0.1,0.6,0.1,0.9,0
		c0.7,0,1.3-0.1,2-0.4c0.6-0.3,1.2-0.6,1.7-1.1c0.6-0.7,1-1.6,0.9-2.5V36.7z"/>
	<path d="M156.5,31.8c-0.8-0.3-1.6-0.4-2.4-0.4c-0.6,0-1.1,0.1-1.7,0.3c-0.5,0.2-1,0.6-1.3,1.1c-0.7,0.8-1,1.8-1.1,2.8v5.2
		c0,1.2,0.1,2.4,0.2,3.7h-3.7c0.1-1.2,0.2-2.4,0.2-3.7v-8.8c0-1.2,0-2.4-0.2-3.6h3.5v2.6c0.4-0.9,1.1-1.7,2-2.3
		c0.9-0.5,1.9-0.8,2.9-0.7c0.8,0,1.6,0.1,2.4,0.3L156.5,31.8z"/>
	<path d="M168.6,40.7c0,1.2,0.1,2.4,0.2,3.7h-4c0.2-1.2,0.2-2.4,0.2-3.7V25.3h-3.5c-1.2,0-2.4,0-3.6,0.2v-3.7
		c1.2,0.2,2.4,0.2,3.5,0.2h10.3c1.3,0,2.6,0,3.8-0.2v3.8c-1.3-0.2-2.6-0.2-3.8-0.2h-3.3L168.6,40.7z"/>
	<path d="M178,37.2c0,1.1,0.3,2.2,1,3.2c0.4,0.5,0.9,0.9,1.4,1.1s1.1,0.4,1.7,0.4c0.6,0,1.2-0.1,1.8-0.3c0.6-0.2,1.1-0.6,1.5-1.1
		c0.3-0.4,0.6-0.9,0.8-1.5l3.1,1.1c-0.4,1-0.9,1.8-1.6,2.6c-0.7,0.7-1.5,1.3-2.5,1.7c-0.9,0.4-1.9,0.5-2.9,0.5
		c-4.6,0-7.5-3.3-7.5-8.5s2.9-8.6,7.3-8.6c1.4-0.1,2.8,0.3,4,1.1c1.2,0.8,2.1,2,2.5,3.3c0.5,1.4,0.8,2.8,0.8,4.3c0,0,0,0.1,0,0.8
		H178z M186,34.4c-0.1-1-0.5-2-1.1-2.7c-0.4-0.4-0.8-0.7-1.3-0.9c-0.5-0.2-1-0.3-1.5-0.2c-1,0-2,0.4-2.7,1.1
		c-0.7,0.7-1.2,1.7-1.2,2.7H186z"/>
	<path d="M202.4,33.6c-0.2-0.6-0.4-1.2-0.8-1.7c-0.3-0.4-0.7-0.8-1.2-1c-0.5-0.2-1-0.3-1.5-0.3c-2.5,0-4.1,2.2-4.1,5.6
		c0,3.5,1.6,5.7,4.3,5.7c0.6,0,1.2-0.1,1.7-0.4c0.5-0.3,1-0.7,1.3-1.2c0.2-0.4,0.4-0.9,0.5-1.4l3.2,0.7c-0.2,0.8-0.6,1.6-1.1,2.4
		c-0.6,0.9-1.5,1.7-2.5,2.2c-1,0.5-2.1,0.7-3.2,0.7c-4.6,0-7.6-3.3-7.6-8.5c-0.1-2.4,0.7-4.7,2.2-6.5c0.7-0.7,1.5-1.3,2.4-1.6
		c0.9-0.4,1.9-0.5,2.8-0.5c1.1,0,2.3,0.2,3.3,0.7c1,0.5,1.9,1.3,2.5,2.3c0.4,0.6,0.7,1.3,0.9,2L202.4,33.6z"/>
	<path d="M211.9,22c-0.1,1.2-0.2,2.5-0.2,3.7v4c0,0.4,0,0.8,0,1.2c0.6-0.9,1.3-1.7,2.3-2.2s2-0.8,3.1-0.7c3.3,0,5.2,2,5.2,5.7v7.1
		c0,1.2,0.1,2.4,0.2,3.7h-3.8c0.1-1.2,0.2-2.4,0.2-3.7v-6.3c0.1-1-0.2-2-0.8-2.8c-0.2-0.3-0.5-0.5-0.8-0.6c-0.3-0.1-0.6-0.2-1-0.2
		c-2,0-3.5,1.4-4.6,4.2v5.7c0,1.2,0,2.4,0.2,3.7h-3.8c0.2-1.2,0.2-2.4,0.2-3.7v-15c0-1.2,0-2.5-0.2-3.7H211.9z"/>
	<path d="M228.8,37.8c0-1.2,0-1.3,0-3.3c-0.7,0.9-1.5,1.7-2.4,2.4c-0.3-1-0.8-2-1.3-3c2.7-1.9,4.9-4.4,6.4-7.4l2.4,1.7
		c-0.3,0.4-0.6,0.8-0.9,1.2c-0.6,0.9-0.8,1.3-1.5,2.2v11c0,1.2,0,2.4,0.2,3.5h-3.2c0.1-1.2,0.2-2.4,0.2-3.6L228.8,37.8z M233.7,22.1
		c-0.3,0.3-0.3,0.3-0.8,0.9c-1.7,2.2-3.7,4.1-6,5.6c-0.4-0.9-1-1.8-1.6-2.6c1.8-1,3.4-2.3,4.7-3.9c0.5-0.6,0.9-1.3,1.2-2L233.7,22.1
		z M237.2,31.8c-1.1,0-2.1,0-3.2,0.2v-3.1c1.1,0.1,2.1,0.2,3.2,0.2h8.9c1.1,0,2.1,0,3.2-0.2v3.1c-1-0.1-2.1-0.2-3.1-0.2H245v11.2
		c0,2.4-0.8,3-3.9,3c-0.9,0-1.7,0-2.9,0c-0.1-1.1-0.4-2.1-0.8-3.2c1.2,0.2,2.4,0.3,3.5,0.3c1.1,0,1.2,0,1.2-0.7V31.8H237.2z
		 M235,21.7c1,0.1,2,0.2,3,0.2h7c1,0,2,0,3-0.2v3.1c-1-0.1-1.9-0.2-2.9-0.2H238c-1,0-2,0.1-3,0.2V21.7z"/>
	<path d="M258.3,31.5h1.2c0.7,0,1.3,0,2-0.1v2.8c-0.7-0.1-1.3-0.1-2-0.1h-1.2v7.6l3.5-0.9v2.7c-3.3,0.9-4.3,1.2-8,2
		c-0.6,0.1-1.1,0.2-1.6,0.4l-0.5-3.2c1.3-0.1,2.7-0.2,4-0.5v-8.1h-1.5c-0.8,0-1.6,0-2.3,0.2v-2.9c0.8,0.1,1.5,0.2,2.3,0.2h1.5v-2.2
		H255c-0.5,0-1,0-1.5,0.1v-1.2c-0.4,0.4-0.6,0.6-1.3,1.2c-0.2-1-0.7-2-1.3-2.8c1-0.8,1.9-1.7,2.7-2.7c0.8-1.1,1.4-2.2,1.9-3.5h2.8
		c0.7,1.7,1.8,3.1,3.2,4.2c-0.5,0.7-1,1.5-1.4,2.3v2.4c-0.6,0-0.9,0-1.6,0h-0.4V31.5z M253,41.4c-0.2-1.9-0.7-3.8-1.3-5.7l2.2-0.6
		c0.6,1.8,1,3.7,1.3,5.6L253,41.4z M255,26.9h4.9c-1.1-1.2-2-2.6-2.7-4c-0.6,1.4-1.4,2.8-2.4,4H255z M258.6,39.7
		c0.5-1.5,0.9-3.1,1.1-4.6l2,0.6c-0.3,1.6-0.7,3.1-1.3,4.6L258.6,39.7z M266.8,22.6c0-0.8,0-1.5-0.1-2.3h2.9
		c-0.1,0.8-0.2,1.6-0.1,2.3v5.5h2.3c0.3,0,0.7,0,1,0c-1.1-1.7-1.9-3.6-2.5-5.5l2.2-1.1c0.8,2.3,2,4.4,3.5,6.3
		c-0.7,0.4-1.4,0.9-2,1.5v14.1c0.1,0.4,0,0.7-0.1,1.1c-0.1,0.4-0.3,0.7-0.6,0.9c-0.5,0.4-1.2,0.6-2.8,0.6c-0.6,0-1,0-2,0
		c-0.1-1-0.3-2-0.6-3c0.8,0.2,1.7,0.3,2.5,0.3c0.8,0,0.9-0.1,0.9-0.6v-2.6h-6.2v3c0,1.2,0,2.3,0.1,3.3h-3.1c0.1-1.1,0.2-2.2,0.2-3.3
		V30.1c0-0.3,0-0.5,0-0.8c-0.6-0.6-1.3-1-2-1.3c1.5-1.9,2.6-4,3.2-6.4l2.4,1c-0.5,1.9-1.3,3.8-2.4,5.5h3.1L266.8,22.6z M271.3,30.8
		h-6.2v2h6.2V30.8z M265.1,37.4h6.2v-2h-6.2V37.4z"/>
	<path d="M281.7,25c-1.1,0.2-1.5,0.3-3,0.5c-0.2-0.9-0.5-1.9-1-2.7c3.1-0.1,6.1-1,8.9-2.4l1.6,2.6l-0.4,0.2c-0.7,0.3-2,0.7-3.3,1.2
		v3.5h1.4c0.7,0,1.3,0,2-0.1v3c-0.7-0.1-1.3-0.2-2-0.1h-1.3c0.8,1.7,2.1,3.2,3.6,4.4c-0.6,0.8-1.1,1.8-1.4,2.7
		c-1-1.1-1.9-2.4-2.5-3.8c0,0.7,0,2,0.1,3.6v5.5c0,1.2,0,2.3,0.1,3.5h-3.1c0.1-1.1,0.2-2.3,0.2-3.5v-4.5c0-0.6,0-1.5,0.2-3.6
		c-0.7,2.3-1.7,4.4-3.2,6.3c-0.3-1.1-0.9-2-1.5-2.9c1.2-1.3,2.2-2.9,3-4.5c0.5-1,0.9-2.1,1.2-3.2H280c-0.8,0-1.5,0-2.3,0.2v-3.1
		c0.8,0.1,1.6,0.2,2.3,0.2h1.6L281.7,25z M295.8,23.8c0-1.1,0-2.2-0.2-3.3h3.2c-0.1,1.1-0.2,2.1-0.2,3.2v12.1
		c0.8-0.2,1.7-0.4,2.5-0.7l0.2,3.3c-0.8,0.1-1.7,0.3-2.5,0.5h-0.2v4.2c0,1.1,0,2.2,0.2,3.3h-3.2c0.1-1.1,0.2-2.2,0.2-3.3v-3.5
		L290,41c-1,0.3-1.9,0.5-2.5,0.7l-0.3-3.3h0.1c0.8,0,1.6-0.2,2.3-0.4l6.3-1.5V23.8z M289.5,29.1c1.8,1.3,3.4,2.7,4.9,4.3l-1.6,2.5
		c-1.4-1.7-3.1-3.3-5-4.5L289.5,29.1z M290.4,22.1c1.9,1.2,3.5,2.7,5,4.4l-1.8,2.5c-1.4-1.8-3.1-3.3-4.9-4.6L290.4,22.1z"/>
	<path d="M305.7,28.3c-0.7,0-1.3,0.1-2,0.1v-3c0.7,0.1,1.3,0.2,2,0.2h1.1v-2.4c0-1,0-1.9-0.2-2.9h3.1c-0.1,0.9-0.2,1.9-0.1,2.8v2.3
		h0.4c0.5,0,1.1,0,1.6-0.1v3c-0.5-0.1-1.1-0.1-1.6-0.1h-0.4v4.3l2.2-0.9v2.8l-2.2,0.9v8.1c0,2.2-0.7,2.8-3.5,2.8c-0.6,0-1,0-1.8,0
		c-0.1-1-0.3-2-0.6-2.9c0.7,0.1,1.4,0.2,2.1,0.2c0.9,0,1,0,1-0.9v-6.1l-0.7,0.3c-0.3,0.1-0.6,0.2-0.9,0.3l-1.1,0.4l-0.6-3.1
		c1.1-0.2,2.2-0.4,3.3-0.8v-5.4H305.7z M317.5,26.9h-2.5c-1,0-2,0-3,0.1V24c1,0.1,2,0.2,3,0.1h2.5v-0.9c0-0.9,0-1.9-0.2-2.8h3.1
		c-0.1,0.9-0.2,1.9-0.1,2.8v0.9h3.6c1,0,2-0.1,3-0.2v3.2c-1-0.1-2-0.2-3-0.2h-3.6v3.6h2.5c0.6,0,1.3,0,1.9-0.1L326,32
		c-0.2,0.4-0.3,0.6-0.8,1.7c-1,2.3-2.4,4.3-4,6.2c2,1.5,4.2,2.7,6.6,3.4c-0.7,0.9-1.3,2-1.6,3.1c-2.6-1.1-4.9-2.6-7-4.5
		c-2.2,2-4.8,3.5-7.6,4.4c-0.3-1-0.8-2-1.5-2.9c2.6-0.7,5-1.9,7.1-3.6c-1.6-1.9-2.8-4.1-3.7-6.5h-1v-2.9c0.9,0.1,1.8,0.2,2.6,0.2
		h2.5L317.5,26.9z M316.3,33.2c0.7,1.7,1.6,3.3,2.9,4.7c1.4-1.3,2.5-2.9,3.3-4.7H316.3z"/>
	<path d="M339.7,22c0-0.6-0.1-1.2-0.2-1.8h3.2c-0.1,0.6-0.1,1.2-0.1,1.7v0.4h7.7c0.9,0,1.8,0,2.7-0.2v2.8c-0.9-0.1-1.8-0.2-2.7-0.1
		h-18c-0.9,0-1.8,0-2.7,0.1v-2.8c0.9,0.1,1.9,0.2,2.8,0.2h7.2L339.7,22z M330.4,35.8c0-0.9,0-1.7-0.1-2.5c0.8,0,1.6,0.1,2.7,0.1
		h16.9c0.8,0,1.7,0,2.5-0.1c0,0.9-0.1,1.5-0.1,2.5V43c0,1.4-0.1,2-0.6,2.4c-0.5,0.4-1.3,0.7-3.1,0.7H347c-0.3,0-0.6,0-0.8,0
		c0-1-0.2-1.9-0.6-2.8c1.1,0.2,2.2,0.2,3.3,0.3c0.5,0,0.6-0.1,0.6-0.6v-7.1h-16.4v7.5c0,1,0,2.1,0.2,3.1h-3.1c0.1-1,0.2-2.1,0.2-3.1
		L330.4,35.8z M333.6,27.9c0-0.7,0-1.3,0-2c0.8,0,1.7,0,2.5,0h10.8c0.8,0,1.5,0,2.3,0c0,0.7,0,1.2,0,2v2.4c0,0.7,0,1.3,0,2
		c-0.8-0.1-1.6-0.1-2.5-0.1H336c-0.8,0-1.6,0-2.5,0.1c0-0.7,0-1.3,0-2V27.9z M346.9,41c0,0.6,0,1.3,0,1.9c-0.5,0-1.5,0-2.2,0h-6.5
		v1.4h-2.7c0.1-0.8,0.1-1.5,0.1-2.3v-3.3c0-0.8,0-1.3,0-1.9c0.7,0,1.4,0,2.1,0h7.1c1,0,1.4,0,2.1,0c0,0.6,0,1.2,0,1.8L346.9,41z
		 M336.3,30h10.1v-1.7h-10.1V30z M338.3,40.6h6.1v-1.5h-6.3L338.3,40.6z"/>
	<path d="M365,41.1c0,1,0,2.2,0.1,2.8h-2.3v-1.3h-4.4v2h-2.5c0-1,0.1-2,0.1-3.1V27.8c0-1,0-1.9-0.1-2.9h2.6c-0.1,1-0.1,1.9,0,2.9
		v12.1h1V24c0-1.1,0-2.2-0.2-3.3h2.7c-0.1,1.1-0.2,2.2-0.1,3.3v15.9h0.9v-12c0-1,0-2-0.1-2.9h2.5c0,0.2,0,0.2,0,0.6
		c2-1.3,3.6-3.2,4.4-5.4l3.1,0.5c-0.1,0.2-0.3,0.4-0.4,0.6c0,0,0,0-0.2,0.4c-0.2,0.4,0,0.1-0.2,0.3h3.2c0.6,0.1,1.2,0.1,1.9,0
		l1.3,1.3l-0.7,1c-0.9,1.3-2,2.6-3.1,3.7c1.9,0.8,3.9,1.4,6,1.8c-0.5,0.9-0.9,1.8-1.1,2.8c-2.5-0.6-5-1.6-7.2-2.9
		c-1.8,1.3-3.9,2.3-6,3c-0.3-0.7-0.7-1.3-1.2-1.9L365,41.1z M365,30.3c1.8-0.5,3.5-1.2,5.1-2.3c-0.7-0.6-1-0.9-1.8-1.7
		c-0.7,0.6-1.4,1.2-2.1,1.8c-0.3-0.6-0.7-1.1-1.2-1.6L365,30.3L365,30.3z M376.7,32.7c0.8,0,1.5,0,2.3-0.1v2.7
		c-0.7-0.1-1.5-0.1-2.2,0h-3.1v1.2h2.3c0.7,0,1.5,0,2.2-0.1v2.6c-0.7-0.1-1.5-0.1-2.2-0.1h-2.3v1.4h3.3c0.8,0,1.6,0,2.4-0.1v2.8
		c-0.8-0.1-1.6-0.2-2.4-0.1h-3.4v1.1c0,0.9,0.1,1.8,0.2,2.7h-3c0.1-0.9,0.2-1.9,0.2-2.8v-0.9h-3.4c-0.7,0-1.3,0-2,0.1V40
		c0.7,0.1,1.4,0.1,2.1,0.1h3.3v-1.4h-2.1c-0.7,0-1.5,0-2.2,0.1v-2.6c0.7,0.1,1.5,0.1,2.2,0.1h2.1v-1.2H368c-0.7-0.1-1.3-0.1-2,0
		v-2.6c0.7,0.1,1.3,0.1,2,0.1h3c0-0.6,0-1.3,0-1.9h2.9c0,0.6,0,1.3,0,1.9H376.7z M370.3,24l-0.3,0.4c0.6,0.8,1.2,1.5,2,2
		c0.8-0.7,1.5-1.5,2.1-2.5H370.3z"/>
	<path d="M384.4,30.8c0-0.7,0-1.1,0-2c-0.5,0.2-0.9,0.4-2,0.8c-0.3-1-0.7-2-1.3-2.9c2.2-0.7,4.4-1.6,6.3-2.9
		c1.6-0.9,3.1-2.2,4.3-3.6h3.2c1.4,1.5,3.1,2.8,5,3.7c1.9,1.1,4,1.9,6.1,2.5c-0.6,0.9-1,1.9-1.3,3l-2-0.9c0,0.2,0,0.2,0,0.7v4.3
		c0,0.8,0,1.7,0,2.5c-0.7,0-1.5,0-2.5,0h-13.4c-1.1,0-1.7,0-2.5,0c0.1-0.8,0.1-1.6,0.1-2.4L384.4,30.8z M385.5,39.9c0-1.2,0-2,0-2.9
		c1.2,0,2,0,3,0h10.6c0.9,0.1,1.7,0.1,2.6,0c-0.1,0.9-0.2,1.8-0.1,2.8v3.5c0,1,0,2.1,0.2,3.1h-2.8v-1.1h-10.8v1h-2.8
		c0.1-1,0.2-2,0.1-3L385.5,39.9z M389,26.1c-1.1,0.7-2.3,1.4-3.6,2H402c-1.3-0.6-2.6-1.3-3.8-2v1.2c-0.7-0.1-1.3-0.1-2-0.1h-5.3
		c-0.7,0-1.3,0-2,0.1L389,26.1z M387,30.4v3.5h2.5c-0.4-0.9-0.9-1.9-1.5-2.7l1.5-0.8H387z M388.2,40.2h10.7v-1h-10.8L388.2,40.2z
		 M388.2,43.2h10.7v-1.1h-10.8L388.2,43.2z M389.9,30.4c0.6,0.8,1,1.7,1.4,2.6l-1.6,0.8h2.6v-3.5H389.9z M396.7,25.3
		c-1.2-0.8-2.4-1.8-3.4-2.8c-0.9,1-1.9,2-3,2.8H396.7L396.7,25.3z M394.5,30.5v3.5h2.3l-1.3-0.7c0.6-0.9,1.2-1.8,1.6-2.8H394.5z
		 M400.2,33.9v-3.6h-2.9l1.8,0.9c-0.4,0.9-1,1.8-1.6,2.6L400.2,33.9z"/>
	<path d="M24.9,23.7c0.2,0,0.4,0,0.5,0.1s0.3,0.2,0.4,0.3c0.2,0.3,0.3,0.6,0.3,0.9v0.8c0,0.2,0,0.4-0.1,0.5s-0.2,0.3-0.3,0.4
		l0.6,2.3h-0.9l-0.5-2h-0.5v2h-0.8v-5.3H24.9z M25.3,25c0-0.1,0-0.1,0-0.2c0-0.1-0.1-0.1-0.1-0.2c0,0-0.1-0.1-0.2-0.1
		c-0.1,0-0.1,0-0.2,0h-0.5v1.7h0.5l0.3-0.1l0.1-0.3V25z"/>
	<path d="M42.5,29.1c-0.3,0-0.7-0.1-0.9-0.4c-0.1-0.1-0.2-0.3-0.3-0.4c-0.1-0.2-0.1-0.3-0.1-0.5V25c0-0.2,0-0.3,0.1-0.5
		c0.1-0.2,0.2-0.3,0.3-0.4c0.2-0.2,0.6-0.3,0.9-0.3c0.2,0,0.3,0,0.5,0.1c0.2,0.1,0.3,0.2,0.4,0.3c0.1,0.1,0.2,0.3,0.3,0.4
		c0.1,0.2,0.1,0.3,0.1,0.5v0.6h-0.8v-0.6l-0.1-0.3l-0.3-0.1l-0.3,0.1L42,24.9v2.9l0.1,0.3l0.3,0.1l0.3-0.1l0.1-0.3v-1h-0.4V26h1.3
		v1.9c0,0.2,0,0.3-0.1,0.5c-0.1,0.2-0.2,0.3-0.3,0.4C43.1,29,42.8,29.1,42.5,29.1"/>
	<path d="M15.8,31.1v9.3h1.9v-6l2.6,6h2v-9.3h-1.9v6.3l-2.5-6.3H15.8z"/>
	<path d="M29.5,40.4V39H26v-2.5h2.5V35H26v-2.5h3.5v-1.4h-5.3v9.3H29.5z"/>
	<path d="M35,35.7l2.4-4.6h-2.1L33.9,34l-1.4-2.9h-2.1l2.4,4.6l-2.4,4.7h2l1.5-3l1.4,3h2L35,35.7z"/>
	<path d="M39.8,40.4h1.9v-7.9h2v-1.4h-5.8v1.4h2V40.4z"/>
	<path d="M16.5,29h-0.8v-5.3h1.1l0.7,3.8l0.7-3.8h1.1V29h-0.8v-3.3L17.9,29h-0.6l-0.8-3.3V29z"/>
	<path d="M21.1,27.8L20.9,29h-0.8l0.9-5.3H22l0.9,5.3h-0.8l-0.2-1.2H21.1z M21.5,25l-0.3,2h0.6L21.5,25z"/>
	<path d="M27.7,27.4V29H27v-5.3h0.8v1.9l1-1.9h0.8l-1.1,2.2l1.3,3.1h-0.9L28,26.9L27.7,27.4z"/>
	<path d="M30.4,29v-5.3h2.3v0.8h-1.5V26h1.1v0.8h-1.1v1.4h1.5V29H30.4z"/>
	<path d="M34,24.6h-0.9v-0.8h2.5v0.8h-0.8V29H34V24.6z"/>
	<path d="M37.1,23.8h-0.8V29h0.8V23.8z"/>
	<path d="M38.7,23.7l1.1,3.6v-3.6h0.8V29h-0.9l-1.1-3.4V29h-0.8v-5.3H38.7z"/>
	<path d="M62.1,35.2h-1.8l-2.5-3.7v3.7h-1.5v-4l-1.3,4h-1.2l-1.4-4v4h-1.5v-6.4h2.1l1.4,4.6l1.3-4.6h2l2.7,4.3v-4.3h1.6L62.1,35.2z
		 M76.4,12.7L61.9,24.3c-1.8-1.2-4-1.7-6.2-1.6c-2.2,0.2-4.2,1.1-5.8,2.6c-0.9,0.9-1.6,1.9-2,3c-0.5,1.1-0.7,2.4-0.6,3.6
		c0,1.4,0.3,2.8,1,4.1c0.6,1.3,1.5,2.4,2.7,3.3c1.1,0.9,2.4,1.5,3.8,1.8c1.4,0.3,2.8,0.3,4.2-0.1c1.4-0.4,2.6-1,3.7-1.9
		s1.9-2.1,2.5-3.4c0.6-1.3,0.8-2.7,0.8-4.2c-0.1-1.4-0.4-2.8-1.1-4.1L76.4,12.7z"/>
	<path class="st0" d="M55.7,4C52.1,3.9,48.4,4.5,45,5.9c-3.4,1.3-6.5,3.4-9.1,6c-0.7,0.7-1.4,1.5-2.1,2.3c2.8,0.8,5.3,2.4,7.3,4.4
		c0.2,0.2,0.5,0.5,0.7,0.7c0.2-0.2,0.5-0.5,0.7-0.7c3.6-3.4,8.3-5.2,13.2-5.2c4.9,0,9.6,1.9,13.2,5.2c1.8,1.7,3.1,3.8,4.1,6.1
		c0.9,2.3,1.4,4.7,1.3,7.2c0,2.5-0.4,5-1.3,7.3c-0.9,2.3-2.3,4.4-4,6.2c-1.7,1.8-3.8,3.1-6.1,4.1c-2.3,0.9-4.7,1.4-7.2,1.3
		c-2.4,0-4.9-0.5-7.1-1.4c-2.2-1-4.3-2.4-6-4.2L42,44.3c-0.3,0.3-0.5,0.6-0.8,0.9c-1.9,1.9-4.2,3.4-6.8,4.3c0.6,0.7,1.2,1.4,1.8,2
		c5.2,5.3,12.3,8.3,19.7,8.4c7.4,0,14.5-2.9,19.8-8.1c2.6-2.6,4.7-5.8,6.1-9.3c1.4-3.5,2-7.2,1.9-10.9c0.1-3.7-0.5-7.4-1.9-10.8
		s-3.4-6.5-6.1-9.1c-2.6-2.6-5.8-4.6-9.2-6c-3.4-1.3-7.1-2-10.8-1.9"/>
	<path d="M49.8,14.2c-0.7-0.8-1.4-1.6-2.1-2.3C42.3,6.8,35.2,4,27.9,4C20.5,4,13.4,6.8,8,11.8c-2.6,2.6-4.7,5.7-6.1,9.1
		C0.6,24.4-0.1,28,0,31.7c0,5.6,1.7,11.1,4.7,15.7s7.4,8.3,12.5,10.4s10.7,2.7,16.1,1.7c5.4-1.1,10.4-3.7,14.4-7.6
		c0.7-0.7,1.4-1.5,2-2.2c-2.7-1-5.1-2.6-7.1-4.6L42,44.3c-0.3,0.3-0.5,0.6-0.8,0.9c-2.6,2.6-6,4.3-9.6,5c-3.6,0.7-7.3,0.3-10.7-1.1
		s-6.3-3.8-8.3-6.9c-2.1-3.1-3.2-6.7-3.2-10.4c-0.1-2.5,0.4-4.9,1.3-7.2c0.9-2.3,2.3-4.3,4.1-6.1c3.6-3.4,8.3-5.2,13.3-5.2
		c4.9,0,9.6,1.9,13.3,5.2c0.2,0.2,0.5,0.5,0.7,0.7c0.2-0.2,0.5-0.5,0.7-0.7C44.6,16.5,47.1,15,49.8,14.2"/>
</g>
</svg>
