<?xml version="1.0" encoding="utf-8"?>
<!-- Generator: Adobe Illustrator 25.4.1, SVG Export Plug-In . SVG Version: 6.00 Build 0)  -->
<svg version="1.1" id="圖層_1" xmlns="http://www.w3.org/2000/svg" xmlns:xlink="http://www.w3.org/1999/xlink" x="0px" y="0px"
	 viewBox="0 0 280 80" style="enable-background:new 0 0 280 80;" xml:space="preserve">
<style type="text/css">
	.st0{fill:#EB1162;}
	.st1{fill:#F8971C;}
	.st2{fill:#3CBA90;}
	.st3{fill:#444444;}
</style>
<g>
	<g>
		<g>
			<g>
				<path class="st0" d="M70.3,14.5l0.9,2.7L32.4,58.5c0,0-14.5-5.4-19.9-15.9l-1.8-5.8c0,0,5.6,10.2,19.4,14.4L70.3,14.5L70.3,14.5
					z"/>
				<path class="st1" d="M73.1,23.3l0.9,2.9L36.7,71.5c0,0-14.7-7.3-19.9-15.7l-1.5-4.6c0,0,5.5,8.3,19.1,13.3L73.1,23.3L73.1,23.3z
					"/>
				<path class="st2" d="M5,19.5c6.6,20.3,22.9,25,22.9,25l40.4-36L5,19.5z M25.7,37.3C18.4,34.4,12.4,29,8.9,22l54.6-11.1
					C63.5,10.8,25.7,37.3,25.7,37.3z"/>
				<path class="st3" d="M101.9,29.3c-0.7-0.4-1.4-0.8-2.2-1c-1-0.3-2.1-0.5-3.3-0.5c-0.6,0-1.2,0.1-1.8,0.2
					C94,28,93.5,28.2,93,28.5c-0.4,0.3-0.8,0.6-1.1,1c-0.3,0.5-0.4,1-0.4,1.5c0,0.7,0.2,1.4,0.7,2c0.5,0.6,1.2,1.1,1.8,1.5
					c0.7,0.5,1.5,0.9,2.3,1.4c0.8,0.5,1.6,1,2.4,1.7c0.7,0.6,1.4,1.4,1.8,2.3c0.5,1,0.8,2.1,0.7,3.3c0,1.4-0.2,2.8-0.8,4
					c-0.5,1.1-1.3,2.1-2.3,2.8c-1.1,0.8-2.3,1.3-3.6,1.6c-1.5,0.3-3.1,0.5-4.6,0.5c-0.9,0-1.8-0.1-2.6-0.2c-0.8-0.1-1.6-0.2-2.3-0.4
					c-0.6-0.1-1.2-0.3-1.8-0.5c-0.4-0.2-0.9-0.3-1.3-0.6l2.7-4.6c0.3,0.2,0.6,0.3,1,0.5c0.5,0.2,1,0.4,1.5,0.5
					c0.6,0.2,1.2,0.3,1.8,0.4c0.6,0.1,1.3,0.2,1.9,0.2c0.7,0,1.4-0.1,2.1-0.2c0.6-0.1,1.2-0.3,1.7-0.6c0.5-0.3,0.9-0.6,1.2-1.1
					c0.2-0.5,0.3-1.1,0.3-1.6c0-0.7-0.2-1.3-0.7-1.8c-0.5-0.6-1.2-1-1.8-1.4l-2.3-1.4c-0.8-0.5-1.6-1.1-2.3-1.7
					C88,36.8,87.4,36,87,35.1c-0.5-1.1-0.8-2.3-0.7-3.4c0-1.4,0.2-2.7,0.8-3.9c0.5-1.1,1.3-2,2.2-2.7c1-0.7,2.1-1.2,3.3-1.5
					c1.3-0.3,2.7-0.5,4-0.5c1.5,0,3,0.2,4.5,0.5c0.6,0.1,1.3,0.3,1.9,0.5c0.5,0.2,1,0.4,1.5,0.7C104.4,24.7,101.9,29.3,101.9,29.3z
					 M112.7,31.6l-2.6,12.3c-0.1,0.6-0.2,1.3-0.2,2c0,0.4,0.1,0.9,0.3,1.2c0.3,0.3,0.7,0.5,1.1,0.4c0.5,0,0.9-0.1,1.4-0.3
					c0.5-0.2,0.9-0.5,1.3-0.9c0.8-0.7,1.5-1.5,2.1-2.5l2.5-12.2h4.9l-2.5,12c-0.1,0.6-0.3,1.2-0.3,1.8c-0.1,0.7-0.2,1.4-0.3,2.2
					c-0.1,0.8-0.1,1.5-0.2,2.2c0,0.7,0,1.3,0,1.7h-3.9l-0.2-3.6H116c-0.4,0.5-0.8,1-1.3,1.5c-0.5,0.5-1,0.9-1.6,1.3
					c-0.6,0.4-1.3,0.7-2,0.9c-0.7,0.2-1.5,0.4-2.2,0.4c-1.1,0.1-2.1-0.3-3-0.9c-0.8-0.6-1.2-1.8-1.2-3.4c0-1.1,0.1-2.2,0.4-3.2
					l2.8-12.8L112.7,31.6L112.7,31.6z M133,31.6v3.6h0.2c0.5-1,1.3-2,2.1-2.8c0.9-0.8,2-1.2,3.2-1.1c0.7,0,1.3,0.1,2,0.3l-1.2,4.3
					l-0.8-0.2c-0.2-0.1-0.5-0.1-0.8-0.1c-1.1,0-2.1,0.4-3,1c-0.9,0.6-1.6,1.5-2.1,2.4l-2.6,12.3h-4.9l4.2-19.9H133L133,31.6z
					 M147.4,42l0.1,3.1h0.1l1.2-3.1l5.4-10.3h5.5l-12.2,20.1h-3l-3.9-20.1h5.4L147.4,42z M173.2,49.6c-0.9,0.8-2,1.4-3.2,1.7
					c-1.5,0.5-3,0.7-4.5,0.7c-1.9,0.1-3.7-0.6-5.1-1.8c-1.3-1.4-2-3.3-1.8-5.3c0-2,0.3-3.9,0.9-5.8c0.6-1.6,1.5-3.1,2.6-4.3
					c1-1.2,2.3-2.1,3.7-2.8c1.3-0.6,2.6-1,4-1c1,0,1.9,0.1,2.8,0.4c0.7,0.2,1.4,0.6,1.9,1.2c0.5,0.5,0.9,1,1.1,1.7
					c0.2,0.7,0.4,1.3,0.4,2c0,1-0.3,2-0.8,2.9c-0.6,0.9-1.4,1.6-2.3,2c-1.1,0.6-2.3,1-3.6,1.2c-1.5,0.3-3.1,0.4-4.6,0.4h-1.2
					c-0.1,0.3-0.1,0.6-0.1,0.9c0,0.2,0,0.5,0,0.7c-0.1,1,0.3,2,0.9,2.7c0.7,0.6,1.7,1,2.6,0.9c1.1,0,2.1-0.2,3.1-0.5
					c0.7-0.3,1.5-0.6,2.1-1.1C172.2,46.5,173.2,49.6,173.2,49.6z M164.2,39.8c0.7,0,1.5,0,2.4-0.1c0.8,0,1.6-0.2,2.3-0.4
					c0.6-0.2,1.3-0.5,1.8-0.9c0.5-0.4,0.7-0.9,0.7-1.5c0-0.4-0.2-0.8-0.4-1.2c-0.5-0.5-1.2-0.7-1.8-0.6c-1.2,0-2.3,0.5-3,1.3
					C165.2,37.4,164.5,38.5,164.2,39.8z M185.3,42.8v3.1h0.2l1.1-3.1l5.4-11.1h5.2l-9.5,17.8c-0.8,1.5-1.5,2.9-2.2,4.1
					c-0.6,1.1-1.3,2.2-2.1,3.2c-0.6,0.8-1.4,1.5-2.2,2.1c-0.7,0.5-1.6,0.8-2.5,0.8c-0.9,0.1-1.8-0.1-2.6-0.6l1.3-4
					c0.2,0.1,0.3,0.1,0.5,0.2c0.2,0,0.3,0,0.5,0c0.7,0,1.4-0.4,1.9-0.9c0.8-0.8,1.5-1.8,2-2.9l-3.7-19.8h5.6L185.3,42.8L185.3,42.8z
					 M214.8,50.3c-2,1.2-4.2,1.8-6.5,1.7c-1.6,0-3.1-0.3-4.6-0.9c-1.3-0.5-2.4-1.4-3.2-2.4c-0.9-1.1-1.5-2.3-1.9-3.6
					c-0.4-1.4-0.6-2.9-0.6-4.4c-0.1-2.7,0.4-5.4,1.3-8c0.8-2,2-3.9,3.5-5.4c1.4-1.4,3.1-2.4,4.9-3.1c1.8-0.7,3.7-1,5.7-1
					c1.3,0,2.6,0.1,3.9,0.3c0.9,0.2,1.7,0.4,2.5,0.8l-2,4.6c-0.6-0.3-1.2-0.5-1.9-0.7c-0.9-0.2-1.9-0.2-2.8-0.2
					c-2.6,0-5.1,1.2-6.8,3.2c-0.9,1.1-1.6,2.4-2,3.8c-0.5,1.6-0.8,3.3-0.7,5c-0.1,1.9,0.5,3.8,1.7,5.3c1.1,1.3,2.8,2,4.5,1.9
					c1,0,2-0.1,3-0.4c0.8-0.2,1.5-0.5,2.2-0.9L214.8,50.3L214.8,50.3z M234.4,43.5c-0.2,1-0.4,2-0.5,3.1c-0.1,1-0.1,2-0.1,2.9v1
					c0,0.3,0,0.6,0.1,0.9h-3.6l-0.6-3.4h-0.2c-0.3,0.5-0.7,1-1.1,1.4c-0.5,0.5-1,0.9-1.5,1.3c-0.5,0.4-1.1,0.7-1.8,0.9
					c-0.6,0.2-1.3,0.3-1.9,0.3c-1.5,0.1-3-0.5-3.9-1.7c-0.9-1.4-1.3-3-1.3-4.6c0-1.9,0.2-3.7,0.7-5.5c0.5-1.7,1.2-3.3,2.3-4.7
					c1-1.4,2.4-2.5,3.9-3.2c1.7-0.8,3.7-1.3,5.6-1.2c1,0,2,0.1,3,0.3c1.1,0.2,2.1,0.4,3.2,0.7L234.4,43.5L234.4,43.5z M225.1,48
					c0.5,0,0.9-0.1,1.4-0.3c0.4-0.2,0.8-0.5,1.2-0.8c0.3-0.3,0.6-0.7,0.9-1c0.3-0.4,0.5-0.7,0.7-1l2-9.3c-0.3-0.1-0.7-0.2-1-0.3
					c-0.4-0.1-0.8-0.1-1.1-0.1c-0.9,0-1.8,0.3-2.5,0.9c-0.8,0.6-1.4,1.4-1.8,2.2c-0.5,1-0.9,2-1.2,3.1c-0.3,1.1-0.4,2.3-0.4,3.5
					c0,0.8,0.1,1.5,0.4,2.2C223.8,47.6,224.4,48,225.1,48L225.1,48z M246.6,43.2H245l-1.7,8.2h-4.9l5.9-27.8h4.9l-3.5,16.4l1.5-0.5
					l5.6-7.9h5.4l-5.9,8l-2.4,1.5l1.8,1.5l3,8.9h-5.2L246.6,43.2z M272.1,49.6c-0.9,0.8-2,1.4-3.2,1.7c-1.5,0.5-3,0.7-4.5,0.7
					c-1.9,0.1-3.7-0.6-5.1-1.8c-1.3-1.4-2-3.3-1.8-5.3c0-2,0.3-3.9,1-5.7c0.6-1.6,1.5-3.1,2.6-4.3c1-1.2,2.3-2.1,3.7-2.8
					c1.3-0.6,2.6-1,4-1c1,0,1.9,0.1,2.8,0.4c0.7,0.2,1.4,0.6,1.9,1.2c0.5,0.5,0.9,1,1.1,1.7c0.2,0.7,0.4,1.3,0.4,2
					c0,1-0.3,2-0.8,2.9c-0.6,0.9-1.4,1.6-2.3,2c-1.1,0.6-2.3,1-3.6,1.2c-1.5,0.3-3.1,0.4-4.6,0.4h-1.2c-0.1,0.3-0.1,0.6-0.1,0.9
					c0,0.2,0,0.5,0,0.7c-0.1,1,0.3,2,0.9,2.7c0.7,0.6,1.7,1,2.6,0.9c1.1,0,2.1-0.2,3.1-0.5c0.7-0.3,1.4-0.6,2.1-1.1
					C271.1,46.5,272.1,49.6,272.1,49.6z M263.1,39.8c0.7,0,1.5,0,2.4-0.1c0.8,0,1.6-0.2,2.3-0.4c0.6-0.2,1.3-0.5,1.8-0.9
					c0.5-0.4,0.7-0.9,0.7-1.5c0-0.4-0.2-0.8-0.4-1.2c-0.5-0.5-1.2-0.7-1.8-0.6c-1.2,0-2.3,0.5-3,1.3
					C264.1,37.4,263.5,38.5,263.1,39.8L263.1,39.8z"/>
			</g>
		</g>
	</g>
</g>
</svg>
