<?xml version="1.0" encoding="utf-8"?>
<!-- Generator: Adobe Illustrator 24.3.0, SVG Export Plug-In . SVG Version: 6.00 Build 0)  -->
<svg version="1.1" id="圖層_1" xmlns="http://www.w3.org/2000/svg" xmlns:xlink="http://www.w3.org/1999/xlink" x="0px" y="0px"
	 viewBox="0 0 535 320" style="enable-background:new 0 0 535 320;" xml:space="preserve">
<style type="text/css">
	.st0{fill:url(#SVGID_1_);}
	.st1{fill:#EFA422;}
	.st2{fill:url(#SVGID_2_);}
	.st3{fill:url(#SVGID_3_);}
	.st4{fill-rule:evenodd;clip-rule:evenodd;fill:#E12A77;}
	.st5{fill-rule:evenodd;clip-rule:evenodd;fill:#E46699;}
	.st6{clip-path:url(#SVGID_5_);fill:url(#SVGID_6_);}
	.st7{clip-path:url(#SVGID_8_);fill:#E32D21;}
	.st8{clip-path:url(#SVGID_8_);fill:#EC8989;}
	.st9{clip-path:url(#SVGID_10_);}
	.st10{fill:#E32920;}
	.st11{clip-path:url(#SVGID_12_);fill:#E23146;}
	.st12{fill:#5B5253;}
</style>
<g>
	<g>
		<linearGradient id="SVGID_1_" gradientUnits="userSpaceOnUse" x1="113.4216" y1="205.7276" x2="113.4216" y2="26.3542">
			<stop  offset="0" style="stop-color:#0094CF"/>
			<stop  offset="1" style="stop-color:#46BACC"/>
		</linearGradient>
		<path class="st0" d="M171.4,65.4V26.4h-116v39.1h43.9v140.3h43.9V65.4H171.4z"/>
	</g>
	<g>
		<path class="st1" d="M226.3,205.6V95.3h-41.1v110.2H226.3z M226.3,67.3V26.6h-41.1v40.8H226.3z"/>
	</g>
	<linearGradient id="SVGID_2_" gradientUnits="userSpaceOnUse" x1="303.4323" y1="205.6418" x2="303.4323" y2="26.3">
		<stop  offset="0" style="stop-color:#E23638"/>
		<stop  offset="1" style="stop-color:#EA7F23"/>
	</linearGradient>
	<path class="st2" d="M302.4,205.6l13.3-40.4l-33.2,0.3v-31.3h43.3l15.4-39.1h-58.7V65.4h70l15.9-39.1H238.5v179.3L302.4,205.6z"/>
	<g>
		<linearGradient id="SVGID_3_" gradientUnits="userSpaceOnUse" x1="394.4389" y1="205.606" x2="394.4389" y2="26.3">
			<stop  offset="0" style="stop-color:#009FD9"/>
			<stop  offset="1" style="stop-color:#8DC8BD"/>
		</linearGradient>
		<path class="st3" d="M476.7,205.6L411.2,26.3h-33.9l-65.2,179.3h45.9l9-27.5H422l8.8,27.5H476.7z M410.5,141.5h-31.1l16.1-47.6
			L410.5,141.5z"/>
	</g>
	<g>
		<path class="st4" d="M238.8,66.1h43.4v27.2h61.3l-18.4,42h-42.9v29.5h-43.4 M226.2,135.3h-41.1V95.4h41.1V135.3z"/>
	</g>
	<path class="st5" d="M171.4,65.4h-28.2v52.3c-12.8,8.2-27.8,13.4-43.9,14.4V65.4H55.4V26.3h116V65.4z"/>
	<g>
		<defs>
			<path id="SVGID_4_" d="M563.6,173.1c0,47.4-38.4,85.9-85.9,85.9c-47.4,0-85.9-38.4-85.9-85.9c0-47.4,38.4-85.9,85.9-85.9
				C525.1,87.2,563.6,125.6,563.6,173.1z"/>
		</defs>
		<clipPath id="SVGID_5_">
			<use xlink:href="#SVGID_4_"  style="overflow:visible;"/>
		</clipPath>
		<linearGradient id="SVGID_6_" gradientUnits="userSpaceOnUse" x1="324.7846" y1="218.2109" x2="463.9713" y2="79.0243">
			<stop  offset="0" style="stop-color:#D7217F"/>
			<stop  offset="1" style="stop-color:#E46F9E"/>
		</linearGradient>
		<path class="st6" d="M476.7,205.6L411.2,26.3h-33.9l-65.2,179.3h45.9l9-27.5H422l8.8,27.5H476.7z M410.5,141.5h-31.1l16.1-47.6
			L410.5,141.5z"/>
	</g>
	<g>
		<defs>
			
				<ellipse id="SVGID_7_" transform="matrix(0.7071 -0.7071 0.7071 0.7071 -77.9533 260.4025)" cx="275.4" cy="224.3" rx="92.7" ry="92.7"/>
		</defs>
		<clipPath id="SVGID_8_">
			<use xlink:href="#SVGID_7_"  style="overflow:visible;"/>
		</clipPath>
		<rect x="185.1" y="26.6" class="st7" width="41.1" height="40.8"/>
		<rect x="185.1" y="95.3" class="st8" width="41.1" height="110.2"/>
	</g>
	<g>
		<defs>
			
				<ellipse id="SVGID_9_" transform="matrix(0.7071 -0.7071 0.7071 0.7071 -77.9533 260.4025)" cx="275.4" cy="224.3" rx="92.7" ry="92.7"/>
		</defs>
		<clipPath id="SVGID_10_">
			<use xlink:href="#SVGID_9_"  style="overflow:visible;"/>
		</clipPath>
		<g class="st9">
			<polygon class="st10" points="282.4,165.6 282.4,135.3 325.1,135.3 325.5,134.2 325.7,134.2 327.6,129.5 343.4,93.3 282.4,93.3 
				282.4,65.4 352.5,65.4 368.3,26.3 238.5,26.3 238.5,205.6 302.4,205.6 315.6,165.2 			"/>
		</g>
	</g>
	<g>
		<defs>
			
				<ellipse id="SVGID_11_" transform="matrix(0.7071 -0.7071 0.7071 0.7071 -77.9533 260.4025)" cx="275.4" cy="224.3" rx="92.7" ry="92.7"/>
		</defs>
		<clipPath id="SVGID_12_">
			<use xlink:href="#SVGID_11_"  style="overflow:visible;"/>
		</clipPath>
		<path class="st11" d="M238.5,166v39.6l63.9,0l13.3-40.4l-33.2,0.3"/>
	</g>
	<g>
		<path class="st12" d="M59.6,228.8h3.7v15.6h3.2v-15.6h3.7v-2.7H59.6V228.8z"/>
		<path class="st12" d="M74.6,234.7c0-0.8,0.1-1.3,0.3-1.5c0.2-0.3,0.7-0.4,1.3-0.4c0.5,0,0.9,0.1,1.1,0.3c0.2,0.2,0.3,0.5,0.3,1
			c0,0.5-0.2,0.9-0.5,1.1c-0.3,0.3-0.9,0.5-1.6,0.8c-1.4,0.6-2.4,1.2-2.9,1.9c-0.6,0.6-0.9,1.6-0.9,2.8c0,2.7,1.1,4.1,3.4,4.1
			c0.5,0,0.9-0.1,1.4-0.4c0.5-0.3,0.9-0.8,1.3-1.5c0,0.2,0,0.3,0,0.5c0,0.4,0.1,0.8,0.2,1.1h2.8c-0.2-0.6-0.2-1.2-0.2-1.9v-8.3
			c0-1.4-0.3-2.4-1-3c-0.7-0.6-1.7-0.9-3.2-0.9c-1.5,0-2.7,0.3-3.4,1c-0.7,0.6-1.1,1.8-1.1,3.4H74.6z M77.5,240.2
			c0,1.4-0.5,2.1-1.5,2.1c-0.9,0-1.4-0.6-1.4-1.8c0-0.6,0.1-1,0.2-1.2c0.1-0.3,0.5-0.6,0.9-0.9l1.8-1.2V240.2z"/>
		<path class="st12" d="M83.8,244.4h3v-13.7h-3V244.4z M83.8,228.9h3V226h-3V228.9z"/>
		<path class="st12" d="M91.3,244.4h3.3l1.3-8l1.3,8h3.2l2.7-13.7h-3l-1.4,10.6l-1.7-10.6h-2.5l-1.6,10.6l-1.4-10.6h-3.1l0,0l0,0
			l0,0L91.3,244.4z"/>
		<path class="st12" d="M107.6,234.7c0-0.8,0.1-1.3,0.3-1.5c0.2-0.3,0.7-0.4,1.3-0.4c0.5,0,0.9,0.1,1.1,0.3c0.2,0.2,0.3,0.5,0.3,1
			c0,0.5-0.2,0.9-0.5,1.1c-0.3,0.3-0.9,0.5-1.6,0.8c-1.4,0.6-2.4,1.2-2.9,1.9c-0.6,0.6-0.9,1.6-0.9,2.8c0,2.7,1.1,4.1,3.4,4.1
			c0.5,0,0.9-0.1,1.4-0.4c0.5-0.3,0.9-0.8,1.3-1.5c0,0.2,0,0.3,0,0.5c0,0.4,0.1,0.8,0.2,1.1h2.8c-0.2-0.6-0.2-1.2-0.2-1.9v-8.3
			c0-1.4-0.3-2.4-1-3c-0.7-0.6-1.7-0.9-3.2-0.9c-1.5,0-2.7,0.3-3.4,1c-0.7,0.6-1.1,1.8-1.1,3.4H107.6z M110.5,240.2
			c0,1.4-0.5,2.1-1.5,2.1c-0.9,0-1.4-0.6-1.4-1.8c0-0.6,0.1-1,0.2-1.2c0.1-0.3,0.5-0.6,0.9-0.9l1.7-1.2V240.2z"/>
		<path class="st12" d="M119.4,244.4v-9.2c0-1.6,0.5-2.5,1.5-2.5c0.5,0,0.8,0.2,1,0.5c0.2,0.3,0.3,0.9,0.3,1.7v9.4h3v-10.6
			c0-1.1-0.3-2-0.8-2.6c-0.5-0.6-1.3-0.9-2.1-0.9c-1.3,0-2.2,0.6-2.7,1.9v-1.6h-3v13.7H119.4z"/>
		<path class="st12" d="M133.8,244.4h3.2v-18.3h-3.2V244.4z"/>
		<path class="st12" d="M142.9,244.4v-9.2c0-1.6,0.5-2.5,1.5-2.5c0.5,0,0.8,0.2,1,0.5c0.2,0.3,0.3,0.9,0.3,1.7v9.4h3v-10.6
			c0-1.1-0.3-2-0.8-2.6c-0.5-0.6-1.3-0.9-2.1-0.9c-1.3,0-2.2,0.6-2.7,1.9v-1.6h-3v13.7H142.9z"/>
		<path class="st12" d="M151.5,233v9.2c0,0.9,0.2,1.5,0.7,1.9c0.5,0.4,1.1,0.6,2,0.6c0.5,0,1.1,0,1.5-0.1V242c-0.2,0-0.3,0-0.4,0
			c-0.4,0-0.6-0.1-0.7-0.3c-0.1-0.2-0.1-0.4-0.1-0.6V233h1.2v-2.3h-1.2v-3.8h-3v3.8h-1.2v2.3H151.5z"/>
		<path class="st12" d="M166.4,238.2V236c0-2.4-0.4-4-1.1-4.7c-0.8-0.7-1.9-1.1-3.4-1.1c-2.9,0-4.4,1.7-4.4,5.1v3.7
			c0,2,0.4,3.4,1.1,4.3c0.8,0.9,2,1.3,3.6,1.3c2.7,0,4.1-1.7,4.1-5h-3v0.6c0,1.3-0.5,1.9-1.4,1.9c-0.5,0-0.9-0.2-1.2-0.5
			c-0.2-0.3-0.4-0.9-0.4-1.6v-2l0,0l0,0H166.4z M160.5,234.9c0-0.8,0.1-1.3,0.3-1.7c0.2-0.3,0.6-0.5,1.1-0.5c0.5,0,0.9,0.1,1.2,0.4
			c0.2,0.2,0.4,0.7,0.4,1.3v1.3h-2.9l0,0V234.9z"/>
		<path class="st12" d="M172.1,244.4v-8.1c0-1.5,0.8-2.3,2.4-2.3c0.2,0,0.4,0,0.6,0v-3.7c-0.8,0-1.4,0.2-1.9,0.7
			c-0.5,0.5-0.9,1.2-1.2,2v-2.4h-2.9v13.7l0,0H172.1z"/>
		<path class="st12" d="M179.7,244.4v-9.2c0-1.6,0.5-2.5,1.5-2.5c0.5,0,0.8,0.2,1,0.5c0.2,0.3,0.3,0.9,0.3,1.7v9.4h3v-10.6
			c0-1.1-0.3-2-0.8-2.6c-0.5-0.6-1.3-0.9-2.1-0.9c-1.3,0-2.2,0.6-2.7,1.9v-1.6h-3v13.7H179.7z"/>
		<path class="st12" d="M196.8,238.2V236c0-2.4-0.4-4-1.1-4.7c-0.8-0.7-1.9-1.1-3.4-1.1c-2.9,0-4.4,1.7-4.4,5.1v3.7
			c0,2,0.4,3.4,1.1,4.3c0.8,0.9,2,1.3,3.6,1.3c2.7,0,4.1-1.7,4.1-5h-3v0.6c0,1.3-0.5,1.9-1.4,1.9c-0.5,0-0.9-0.2-1.2-0.5
			c-0.2-0.3-0.4-0.9-0.4-1.6v-2l0,0l0,0H196.8z M190.9,234.9c0-0.8,0.1-1.3,0.3-1.7c0.2-0.3,0.6-0.5,1.1-0.5c0.6,0,0.9,0.1,1.2,0.4
			c0.2,0.2,0.4,0.7,0.4,1.3v1.3h-2.9l0,0V234.9z"/>
		<path class="st12" d="M199.7,233v9.2c0,0.9,0.2,1.5,0.7,1.9c0.5,0.4,1.1,0.6,2,0.6c0.5,0,1.1,0,1.6-0.1V242c-0.2,0-0.3,0-0.4,0
			c-0.4,0-0.6-0.1-0.7-0.3c-0.1-0.2-0.1-0.4-0.1-0.6V233h1.2v-2.3h-1.2v-3.8h-3v3.8h-1.2v2.3H199.7z"/>
		<path class="st12" d="M214.1,234.7c0-0.8,0.1-1.3,0.3-1.5c0.2-0.3,0.7-0.4,1.3-0.4c0.5,0,0.9,0.1,1.1,0.3c0.2,0.2,0.3,0.5,0.3,1
			c0,0.5-0.2,0.9-0.5,1.1c-0.3,0.3-0.9,0.5-1.6,0.8c-1.4,0.6-2.4,1.2-2.9,1.9c-0.6,0.6-0.9,1.6-0.9,2.8c0,2.7,1.1,4.1,3.4,4.1
			c0.5,0,0.9-0.1,1.4-0.4c0.5-0.3,0.9-0.8,1.3-1.5c0,0.2,0,0.3,0,0.5c0,0.4,0.1,0.8,0.2,1.1h2.8c-0.2-0.6-0.2-1.2-0.2-1.9v-8.3
			c0-1.4-0.3-2.4-1-3c-0.7-0.6-1.7-0.9-3.2-0.9c-1.5,0-2.7,0.3-3.4,1c-0.7,0.6-1.1,1.8-1.1,3.4H214.1z M217.1,240.2
			c0,1.4-0.5,2.1-1.5,2.1c-0.9,0-1.4-0.6-1.4-1.8c0-0.6,0.1-1,0.2-1.2c0.1-0.3,0.5-0.6,0.9-0.9l1.8-1.2V240.2z"/>
		<path class="st12" d="M226,244.4v-9.2c0-1.6,0.5-2.5,1.5-2.5c0.5,0,0.8,0.2,1,0.5c0.2,0.3,0.3,0.9,0.3,1.7v9.4h3v-10.6
			c0-1.1-0.3-2-0.8-2.6c-0.5-0.6-1.3-0.9-2.1-0.9c-1.3,0-2.2,0.6-2.7,1.9v-1.6h-3v13.7H226z"/>
		<path class="st12" d="M237.3,230.3c-1,0-1.7,0.4-2.3,1.1c-0.5,0.7-0.8,2-0.8,3.9v4.7c0,1.8,0.3,3,0.8,3.7c0.6,0.7,1.3,1,2.4,1
			c1.2,0,2-0.6,2.5-1.9v1.5h3v-18.3h-3v5.9C239.5,230.9,238.6,230.3,237.3,230.3L237.3,230.3z M237.2,234.6c0-1.2,0.4-1.8,1.3-1.8
			c1,0,1.4,0.8,1.4,2.5v4.4c0,1.8-0.5,2.7-1.5,2.7c-0.8,0-1.3-0.7-1.3-2.2v-5V234.6z"/>
		<path class="st12" d="M260.7,244.4v-2.7h-5.9v-5.6h5.4v-2.7h-5.4v-4.6h5.9v-2.7h-9.1v18.3H260.7z"/>
		<path class="st12" d="M262.7,238.2h5.4v-2.8h-5.4V238.2z"/>
		<path class="st12" d="M277.3,241.1c-0.3,0.6-0.7,0.9-1.2,0.9c-0.7,0-1.3-0.3-1.7-0.9c-0.4-0.6-0.6-1.6-0.6-2.9v-5.9
			c0-2.5,0.8-3.8,2.3-3.8c0.6,0,1,0.3,1.2,0.8c0.2,0.5,0.3,1.4,0.3,2.5h3.1c0-2.1-0.4-3.6-1.2-4.6c-0.8-1-2-1.5-3.8-1.5
			c-1.9,0-3.2,0.6-4.1,1.7c-0.8,1.1-1.3,3.1-1.3,6v3.9c0,2.7,0.4,4.6,1.2,5.8c0.8,1.2,2.3,1.7,4.4,1.7c1.8,0,3-0.6,3.8-1.8
			c0.7-1.2,1.1-2.9,1.1-5h-3.2C277.7,239.4,277.6,240.5,277.3,241.1L277.3,241.1z"/>
		<path class="st12" d="M284.1,243.4c0.6,0.9,1.8,1.3,3.6,1.3c1.7,0,2.9-0.4,3.5-1.3c0.6-0.9,1-2.6,1-5.3v-1.6c0-2.4-0.3-4-1-4.9
			c-0.7-0.9-1.8-1.3-3.4-1.3c-1.5,0-2.7,0.4-3.4,1.2c-0.8,0.8-1.1,2.6-1.1,5.3v1.6C283.1,240.8,283.4,242.5,284.1,243.4L284.1,243.4
			z M286.5,233.2c0.3-0.3,0.7-0.5,1.2-0.5c1,0,1.5,0.7,1.5,2.2v5.1c0,0.9-0.1,1.5-0.3,1.8c-0.2,0.3-0.6,0.5-1.2,0.5
			c-0.6,0-1-0.1-1.2-0.4c-0.2-0.3-0.3-0.9-0.3-1.9v-5C286.1,234.1,286.2,233.6,286.5,233.2L286.5,233.2z"/>
		<path class="st12" d="M294.8,244.4h3v-9.2c0-1,0.1-1.7,0.4-2c0.2-0.3,0.6-0.5,1.1-0.5c0.6,0,0.9,0.2,1.1,0.5
			c0.2,0.3,0.3,0.9,0.3,1.7v9.4h3v-9c0-0.9,0.1-1.6,0.4-2c0.2-0.4,0.7-0.6,1.3-0.6c0.5,0,0.8,0.2,1,0.6c0.2,0.4,0.3,1,0.3,1.8v9.2h3
			v-11.1c0-0.9-0.3-1.6-0.9-2.2c-0.6-0.5-1.3-0.8-2.3-0.8c-0.8,0-1.5,0.2-2,0.6c-0.5,0.4-0.8,0.8-1,1.3c-0.1-0.5-0.3-1-0.8-1.3
			c-0.5-0.4-1.1-0.6-1.9-0.6c-1.4,0-2.4,0.6-3,1.9v-1.6h-3V244.4z"/>
		<path class="st12" d="M312.6,244.4h3v-9.2c0-1,0.1-1.7,0.4-2c0.2-0.3,0.6-0.5,1.1-0.5c0.6,0,0.9,0.2,1.1,0.5
			c0.2,0.3,0.3,0.9,0.3,1.7v9.4h3v-9c0-0.9,0.1-1.6,0.4-2c0.2-0.4,0.7-0.6,1.3-0.6c0.5,0,0.8,0.2,1,0.6c0.2,0.4,0.3,1,0.3,1.8v9.2h3
			v-11.1c0-0.9-0.3-1.6-0.9-2.2c-0.6-0.5-1.3-0.8-2.3-0.8c-0.8,0-1.5,0.2-2,0.6c-0.5,0.4-0.8,0.8-1,1.3c-0.1-0.5-0.3-1-0.8-1.3
			c-0.5-0.4-1.1-0.6-1.9-0.6c-1.4,0-2.4,0.6-3,1.9v-1.6h-3V244.4z"/>
		<path class="st12" d="M338.9,238.2V236c0-2.4-0.4-4-1.1-4.7c-0.8-0.7-1.9-1.1-3.4-1.1c-2.9,0-4.4,1.7-4.4,5.1v3.7
			c0,2,0.4,3.4,1.1,4.3c0.8,0.9,2,1.3,3.6,1.3c2.7,0,4.1-1.7,4.1-5h-3v0.6c0,1.3-0.5,1.9-1.4,1.9c-0.5,0-0.9-0.2-1.2-0.5
			c-0.2-0.3-0.4-0.9-0.4-1.6v-2l0,0l0,0H338.9z M333,234.9c0-0.8,0.1-1.3,0.3-1.7c0.2-0.3,0.6-0.5,1.1-0.5c0.5,0,0.9,0.1,1.2,0.4
			c0.2,0.2,0.4,0.7,0.4,1.3v1.3H333l0,0V234.9z"/>
		<path class="st12" d="M344.6,244.4v-8.1c0-1.5,0.8-2.3,2.4-2.3c0.2,0,0.4,0,0.6,0v-3.7c-0.8,0-1.4,0.2-1.9,0.7
			c-0.5,0.5-0.9,1.2-1.2,2v-2.4h-2.9v13.7l0,0H344.6z"/>
		<path class="st12" d="M354.2,240.1c0,1.4-0.3,2.2-1,2.2c-0.8,0-1.2-0.7-1.2-2.2v-4.7v-0.5c0-1.5,0.4-2.2,1.1-2.2
			c0.7,0,1.1,0.4,1.1,1.2v1.5h3v-1.1c0-1.2-0.3-2.2-1-2.9c-0.7-0.7-1.7-1.1-3.1-1.1c-2.7,0-4,1.6-4,4.9v4.6c0,3.3,1.4,5,4.1,5
			c2.7,0,4.1-1.5,4.1-4.4V239h-3l0,0l0,0V240.1z"/>
		<path class="st12" d="M368.1,238.2V236c0-2.4-0.4-4-1.1-4.7c-0.8-0.7-1.9-1.1-3.4-1.1c-2.9,0-4.4,1.7-4.4,5.1v3.7
			c0,2,0.4,3.4,1.1,4.3c0.8,0.9,2,1.3,3.6,1.3c2.7,0,4.1-1.7,4.1-5h-3v0.6c0,1.3-0.5,1.9-1.4,1.9c-0.5,0-0.9-0.2-1.2-0.5
			c-0.2-0.3-0.4-0.9-0.4-1.6v-2l0,0l0,0H368.1z M362.2,234.9c0-0.8,0.1-1.3,0.3-1.7c0.2-0.3,0.6-0.5,1.1-0.5c0.6,0,0.9,0.1,1.2,0.4
			c0.2,0.2,0.4,0.7,0.4,1.3v1.3h-2.9l0,0V234.9z"/>
		<path class="st12" d="M378.8,244.4l0.9-4.7h3.7l0.8,4.7h3.4l-3.9-18.3h-4.3l-4.1,18.3l0,0l0,0H378.8z M381.6,229.5l1.3,7.5h-2.7
			l0,0l0,0l0,0L381.6,229.5z"/>
		<path class="st12" d="M388.5,240.4c0,2.9,1.4,4.3,4.3,4.3c2.8,0,4.2-1.3,4.2-4c0-1.4-0.7-2.6-2.1-3.6l-2.2-1.6
			c-0.5-0.3-0.8-0.6-1-0.9c-0.2-0.2-0.3-0.5-0.3-0.9c0-0.8,0.4-1.1,1.2-1.1c0.4,0,0.7,0.1,1,0.3c0.2,0.2,0.4,0.8,0.4,1.8h3
			c0-1.6-0.3-2.7-1-3.5c-0.7-0.7-1.7-1.1-3.2-1.1c-2.9,0-4.3,1.1-4.3,3.3c0,1.7,0.7,3.1,2.2,4.2l1.7,1.3c0.5,0.4,0.9,0.7,1.2,0.9
			c0.3,0.3,0.5,0.6,0.5,1.1c0,0.8-0.4,1.2-1.3,1.2c-0.8,0-1.3-0.6-1.3-1.7c0-0.3,0-0.5,0-0.8h-3l0,0l0,0
			C388.5,239.9,388.5,240.1,388.5,240.4L388.5,240.4z"/>
		<path class="st12" d="M398.7,240.4c0,2.9,1.4,4.3,4.3,4.3c2.8,0,4.2-1.3,4.2-4c0-1.4-0.7-2.6-2.1-3.6l-2.2-1.6
			c-0.5-0.3-0.8-0.6-1-0.9c-0.2-0.2-0.3-0.5-0.3-0.9c0-0.8,0.4-1.1,1.2-1.1c0.4,0,0.7,0.1,1,0.3c0.2,0.2,0.4,0.8,0.4,1.8h3
			c0-1.6-0.3-2.7-1-3.5c-0.7-0.7-1.7-1.1-3.2-1.1c-2.9,0-4.3,1.1-4.3,3.3c0,1.7,0.7,3.1,2.2,4.2l1.7,1.3c0.5,0.4,0.9,0.7,1.2,0.9
			c0.3,0.3,0.5,0.6,0.5,1.1c0,0.8-0.4,1.2-1.3,1.2c-0.8,0-1.3-0.6-1.3-1.7c0-0.3,0-0.5,0-0.8h-3l0,0l0,0
			C398.7,239.9,398.7,240.1,398.7,240.4L398.7,240.4z"/>
		<path class="st12" d="M410.3,243.4c0.6,0.9,1.8,1.3,3.6,1.3c1.7,0,2.9-0.4,3.5-1.3c0.6-0.9,1-2.6,1-5.3v-1.6c0-2.4-0.3-4-1-4.9
			c-0.7-0.9-1.8-1.3-3.4-1.3c-1.5,0-2.7,0.4-3.4,1.2c-0.8,0.8-1.1,2.6-1.1,5.3v1.6C409.3,240.8,409.6,242.5,410.3,243.4L410.3,243.4
			z M412.7,233.2c0.3-0.3,0.7-0.5,1.2-0.5c1,0,1.5,0.7,1.5,2.2v5.1c0,0.9-0.1,1.5-0.3,1.8c-0.2,0.3-0.6,0.5-1.2,0.5
			c-0.6,0-1-0.1-1.2-0.4c-0.2-0.3-0.3-0.9-0.3-1.9v-5C412.3,234.1,412.4,233.6,412.7,233.2L412.7,233.2z"/>
		<path class="st12" d="M425.8,240.1c0,1.4-0.3,2.2-1,2.2c-0.8,0-1.2-0.7-1.2-2.2v-4.7v-0.5c0-1.5,0.4-2.2,1.1-2.2
			c0.7,0,1.1,0.4,1.1,1.2v1.5h3v-1.1c0-1.2-0.3-2.2-1-2.9c-0.7-0.7-1.7-1.1-3.1-1.1c-2.7,0-4,1.6-4,4.9v4.6c0,3.3,1.4,5,4.1,5
			c2.7,0,4.1-1.5,4.1-4.4V239h-3l0,0l0,0V240.1z"/>
		<path class="st12" d="M431.4,244.4h3v-13.7h-3V244.4z M431.4,228.9h3V226h-3V228.9z"/>
		<path class="st12" d="M439.9,234.7c0-0.8,0.1-1.3,0.3-1.5c0.2-0.3,0.7-0.4,1.3-0.4c0.5,0,0.9,0.1,1.1,0.3c0.2,0.2,0.3,0.5,0.3,1
			c0,0.5-0.2,0.9-0.5,1.1c-0.3,0.3-0.9,0.5-1.6,0.8c-1.4,0.6-2.4,1.2-2.9,1.9c-0.6,0.6-0.9,1.6-0.9,2.8c0,2.7,1.1,4.1,3.4,4.1
			c0.5,0,0.9-0.1,1.4-0.4c0.5-0.3,0.9-0.8,1.3-1.5c0,0.2,0,0.3,0,0.5c0,0.4,0.1,0.8,0.2,1.1h2.8c-0.2-0.6-0.2-1.2-0.2-1.9v-8.3
			c0-1.4-0.3-2.4-1-3c-0.7-0.6-1.7-0.9-3.2-0.9c-1.5,0-2.7,0.3-3.4,1c-0.7,0.6-1.1,1.8-1.1,3.4H439.9z M442.9,240.2
			c0,1.4-0.5,2.1-1.5,2.1c-0.9,0-1.4-0.6-1.4-1.8c0-0.6,0.1-1,0.2-1.2c0.2-0.3,0.5-0.6,0.9-0.9l1.8-1.2V240.2z"/>
		<path class="st12" d="M449,233v9.2c0,0.9,0.2,1.5,0.7,1.9c0.5,0.4,1.1,0.6,2,0.6c0.5,0,1.1,0,1.6-0.1V242c-0.2,0-0.3,0-0.4,0
			c-0.4,0-0.6-0.1-0.7-0.3c-0.1-0.2-0.1-0.4-0.1-0.6V233h1.2v-2.3h-1.2v-3.8h-3v3.8h-1.2v2.3H449z"/>
		<path class="st12" d="M455.5,244.4h3v-13.7h-3V244.4z M455.5,228.9h3V226h-3V228.9z"/>
		<path class="st12" d="M462.3,243.4c0.6,0.9,1.8,1.3,3.6,1.3c1.7,0,2.9-0.4,3.5-1.3c0.6-0.9,1-2.6,1-5.3v-1.6c0-2.4-0.3-4-1-4.9
			c-0.7-0.9-1.8-1.3-3.4-1.3c-1.5,0-2.7,0.4-3.4,1.2c-0.8,0.8-1.1,2.6-1.1,5.3v1.6C461.3,240.8,461.7,242.5,462.3,243.4L462.3,243.4
			z M464.7,233.2c0.3-0.3,0.7-0.5,1.2-0.5c1,0,1.5,0.7,1.5,2.2v5.1c0,0.9-0.1,1.5-0.3,1.8c-0.2,0.3-0.6,0.5-1.2,0.5
			c-0.6,0-1-0.1-1.2-0.4c-0.2-0.3-0.3-0.9-0.3-1.9v-5C464.3,234.1,464.4,233.6,464.7,233.2L464.7,233.2z"/>
		<path class="st12" d="M475.9,244.4v-9.2c0-1.6,0.5-2.5,1.5-2.5c0.5,0,0.8,0.2,1,0.5c0.2,0.3,0.3,0.9,0.3,1.7v9.4h3v-10.6
			c0-1.1-0.3-2-0.8-2.6c-0.5-0.6-1.3-0.9-2.1-0.9c-1.3,0-2.2,0.6-2.7,1.9v-1.6h-3v13.7H475.9z"/>
	</g>
	<g>
		<path class="st12" d="M68.1,256.9l3.7,1.1c-0.8,1.5-1.9,3-3.3,4.6c-0.8,0.9-1.6,1.8-2.4,2.5c3.9-0.2,7.4-0.4,10.6-0.7
			c-0.7-0.9-1.5-1.7-2.4-2.6l2.9-1.8c2.4,2.2,4.4,4.5,5.9,7l-3.2,1.9c-0.4-0.7-0.8-1.3-1.2-1.9c-5.8,0.6-12.2,1.2-19.2,1.6l-0.5-3.3
			c1.1,0,2.2-0.1,3.2-0.1c1.1-1.1,2.1-2.2,3-3.4C66.2,260.3,67.3,258.6,68.1,256.9z M80.9,269.9v13h-3.2v-1.3H64.3v1.3h-3.2v-13
			H80.9z M64.3,278.5h13.4v-5.7H64.3V278.5z"/>
		<path class="st12" d="M88.8,264.1c1,0.6,1.9,1.3,2.8,2.1l-2.2,2.8c-0.9-0.9-1.9-1.8-2.9-2.4L88.8,264.1z M89.1,271.8l2.9,1
			c-0.6,4-1.3,7.4-2.1,10.1l-3.2-1.7C87.8,278.1,88.6,274.9,89.1,271.8z M89.6,257.2c1,0.6,1.9,1.3,2.7,2.1l-2.3,2.8
			c-0.9-1-1.8-1.8-2.8-2.5L89.6,257.2z M94.5,257.2l2.1,0.9c-0.7,1.3-1.4,2.4-2,3.3c0.1,0.1,0.2,0.2,0.3,0.3
			c0.6-0.9,1.1-1.7,1.6-2.6l2.1,0.9c-0.5,0.8-1,1.6-1.5,2.3l1.1-0.5c0.3,1.2,0.6,2.4,0.9,3.8l-1.9,0.8c0-0.2,0-0.3-0.1-0.5
			c-0.2,0.1-0.4,0.1-0.6,0.1v5.2h-2.2v-4.8c-0.7,0.1-1.4,0.2-2.1,0.3l-0.3-2.1c0.4,0,0.7-0.1,1-0.1c0.3-0.3,0.6-0.7,0.8-1
			c-0.8-0.7-1.6-1.4-2.5-2.1l1.2-1.6c0.1,0.1,0.3,0.3,0.4,0.4C93.5,259.2,94.1,258.2,94.5,257.2z M92.2,266.9l1.9,0.4
			c-0.1,1.4-0.4,2.6-0.8,3.8l-1.9-0.7C91.7,269.4,92,268.2,92.2,266.9z M93.2,271.6H111v5.2H96.1l-0.1,0.6H112
			c-0.2,2.6-0.7,4.2-1.4,4.8c-0.6,0.6-1.5,0.8-2.6,0.8c-0.7,0-1.4-0.1-2.2-0.2l-0.4-2.2c0.9,0.1,1.7,0.2,2.3,0.2
			c0.3,0,0.5-0.1,0.6-0.2c0.2-0.1,0.3-0.5,0.4-1h-13l-0.2,1.3l-2.9-0.5l0.9-5.9H108v-0.7H93.2V271.6z M96.8,263.9
			c-0.1-0.3-0.1-0.6-0.2-0.9c-0.3,0.4-0.6,0.7-0.8,1.1C96.1,264,96.5,264,96.8,263.9z M98.4,266.7c0.3,1,0.5,2,0.6,3l-1.8,0.4
			c-0.1-1.1-0.2-2.1-0.4-3.1L98.4,266.7z M107.3,257.2l2.1,0.9c-0.6,1.1-1.2,2.1-1.8,2.9c0.1,0.1,0.3,0.2,0.4,0.3
			c0.6-0.8,1.1-1.6,1.6-2.5l2.1,0.9c-0.7,1-1.3,1.9-1.8,2.7l1.1-0.5c0.6,1.1,1,2.4,1.4,3.7l-1.9,0.8c0-0.2-0.1-0.4-0.1-0.6
			c-0.3,0.1-0.5,0.1-0.7,0.2v1.1l1.8-0.4c0.5,1.1,0.8,2.2,1,3.3l-2.1,0.5c-0.1-1.1-0.3-2.1-0.6-3v3.7h-2.2v-4.8
			c-0.8,0.1-1.6,0.2-2.5,0.3l-0.4-2.1c0.4,0,0.7-0.1,1-0.1c0.4-0.5,0.8-0.9,1.2-1.4c-0.7-0.6-1.5-1.2-2.2-1.8v0.5H99v-2h5.7v0.8
			l0.9-1.1c0.2,0.1,0.3,0.2,0.4,0.3C106.5,258.9,106.9,258.1,107.3,257.2z M99.2,266.7h5.3v4.4h-5.3V266.7z M99.3,257.6h5.2v1.8
			h-5.2V257.6z M99.3,262.2h5v1.8h-5V262.2z M99.3,264.5h5v1.8h-5V264.5z M101.3,269.3h1.1v-0.8h-1.1V269.3z M105.3,266.9l1.9,0.4
			c-0.1,1.2-0.3,2.2-0.6,3.2l-1.8-0.6C105,269,105.2,268,105.3,266.9z M109.8,264c-0.1-0.4-0.3-0.7-0.4-0.9
			c-0.3,0.4-0.6,0.8-0.9,1.1C109,264.1,109.4,264,109.8,264z"/>
		<path class="st12" d="M140.8,257.8v20.9c0,2.6-1.2,3.9-3.5,3.9h-2l-0.6-3.3c1,0.1,1.9,0.2,2.7,0.2c0.4,0,0.5-0.5,0.5-1.6v-17.3
			h-9.4v22.2h-2.9v-4.1l-2.7,0.9c-0.2-2-0.5-3.8-0.9-5.5l2.5-0.8c0.4,1.5,0.8,3.1,1,4.8v-6.5l-2.7,0.9c-0.1-0.4-0.1-0.9-0.2-1.3
			c-0.3,0.1-0.6,0.1-0.9,0.2V283H119v-10.8c-1,0.2-2.1,0.4-3.2,0.6l-0.6-3.2c0.7-0.1,1.3-0.1,1.9-0.2c0.6-0.8,1.1-1.7,1.6-2.5
			c-1.2-1-2.4-2-3.7-3l1.8-2.2c0.1,0.1,0.2,0.1,0.3,0.2c0.9-1.5,1.6-3,2.3-4.5l2.8,1.2c-0.9,1.9-1.8,3.6-2.7,4.9
			c0.3,0.2,0.5,0.4,0.8,0.6c0.6-1.1,1.1-2.2,1.6-3.3l3,1.3c-0.9,1.7-1.8,3.2-2.6,4.6l2-0.6c0.6,1.6,1.1,3.3,1.5,5.1v-13.5H140.8z
			 M116,273.6l2.8,0.7c-0.4,2.6-0.7,4.7-1.1,6.5L115,280C115.4,277.9,115.8,275.7,116,273.6z M122.1,268.7c-0.1-0.4-0.2-0.8-0.4-1.2
			c-0.3,0.5-0.6,0.9-0.9,1.4C121.3,268.8,121.8,268.7,122.1,268.7z M131.5,261.4c0.7,0.9,1.2,1.8,1.6,2.8l-1.6,0.9h1.5
			c0.6-1.3,1-2.7,1.2-3.9l2.9,0.7c-0.2,1.1-0.5,2.2-1,3.3h1.3v2.6h-2.8v2h2.8v2.7h-4.6v2.1c0,0.7,0.2,1,0.6,1.1
			c0.3,0.1,0.8,0.1,1.4,0.1c0.7,0,1.4-0.1,2-0.4v2.8c-0.7,0.2-1.3,0.3-2,0.3c-0.7,0-1.5,0-2.5-0.1c-1.7-0.1-2.5-1.1-2.5-3.3v-2.8h-1
			v-2.7h2.7v-2H129v-2.6h1.3c-0.3-0.7-0.7-1.5-1.2-2.1L131.5,261.4z"/>
		<path class="st12" d="M144.7,257.9h10v6c0.9-1,1.7-2,2.2-3.1c0.7-1.2,1.3-2.5,1.7-3.8l3.3,0.8c-0.2,0.5-0.4,1-0.6,1.4h7.1v3
			c-0.9,2-2,3.6-3.5,5c1.6,0.9,3.3,1.6,5.1,2.1l-1.4,3.1c-0.2-0.1-0.3-0.1-0.4-0.1v10.5h-3.1v-1H159v0.9h-3.2v-10.3
			c-0.2,0.1-0.4,0.1-0.5,0.2l-0.9-2v2.7h-2.5v4.5c1-0.2,2-0.4,2.9-0.6l0.5,2.8c-3.2,0.9-6.7,1.7-10.6,2.3l-1.1-3.2
			c0.4-0.1,0.8-0.1,1.2-0.2v-9.2h3.1v8.7c0.3-0.1,0.6-0.1,0.9-0.1v-10.6h-4V257.9z M147.8,264.8h3.8v-3.9h-3.8V264.8z M154.2,270.4
			L154,270c2.2-0.8,4-1.6,5.5-2.6c-0.7-0.7-1.3-1.5-1.8-2.3c-0.4,0.4-0.8,0.9-1.3,1.3l-1.8-2v3.4h-2.9v2.6H154.2z M157,272.1h10.3
			c-1.9-0.7-3.7-1.5-5.3-2.6C160.6,270.4,158.9,271.3,157,272.1z M159,278.9h6.1v-3.8H159V278.9z M159.8,262.4
			c0.8,1.1,1.6,2.1,2.6,2.9c1.1-1,1.9-2.1,2.5-3.2h-5C159.8,262.2,159.8,262.3,159.8,262.4z"/>
		<path class="st12" d="M183.9,257.7v8.7H182c1,1.2,1.7,2.5,2.3,3.9l-2.4,1.3h3.6l-1.1-2.2c2.1-0.9,3.6-2,4.5-3.3
			c0.1-0.2,0.2-0.5,0.3-0.7h-1.8c-0.2,0.6-0.4,1.1-0.6,1.6l-2.6-1.3c0.7-1.6,1.2-3.2,1.3-4.8l2.6,0.7c0,0.4-0.1,0.8-0.2,1.2h1.9
			c0.1-0.7,0.2-1.4,0.2-2.2h-4.7v-2.7h11.6v2.7h-4.2c0,0.8-0.1,1.6-0.2,2.2h4.8v2.7h-5.2c-0.1,0.2-0.1,0.4-0.2,0.6h2.1v1.5
			c0,0.8,0.2,1.2,0.6,1.2c0.6,0,0.9-0.1,1-0.3c0.1-0.2,0.1-0.6,0.1-1.3l2.1,0.7c0,0.6-0.1,1.2-0.1,1.6c0,0.7-0.3,1.2-0.9,1.4
			c-0.4,0.2-1.2,0.3-2.2,0.3c-0.3,0-0.8-0.1-1.5-0.2c-1.3-0.1-1.9-1.1-1.9-2.8v-0.7c-0.1,0.2-0.3,0.5-0.4,0.7
			c-1.1,1.4-2.5,2.6-4.3,3.5h8.1v7.8h-19.4v-7.8h6.3c-0.2-0.5-0.4-1-0.6-1.4c-2.3,0.5-4.9,1-7.7,1.4l-1.1-2.7c0.4,0,0.9-0.1,1.2-0.1
			v-11.1H183.9z M173,280.2h24.4v2.3H173V280.2z M176.5,260.8h4.6v-0.6h-4.6V260.8z M176.5,263.9h4.6v-0.7h-4.6V263.9z M179.8,268
			c-0.2-0.3-0.4-0.5-0.5-0.7l1.4-0.9h-4.2v2.1C177.6,268.3,178.7,268.1,179.8,268z M178.2,274.5h13.9V274h-13.9V274.5z M178.2,277.1
			h13.9v-0.6h-13.9V277.1z"/>
		<path class="st12" d="M203.1,257.3h21.2v2.7h-9.1v0.5h11.1v5.5h-3v-2.7h-8v5.6H212v-5.6h-7.9v2.7h-3v-5.5h11V260h-8.9V257.3z
			 M223.9,269.9v9.3h-8.9c0.1,0.5,0.2,0.8,0.5,0.8c0.2,0.1,0.6,0.1,1.2,0.1c3.1,0,4.7,0,4.7-0.1c0.6,0,1.2-0.1,1.8-0.1
			c0.6,0,1.1-0.6,1.3-1.8l2.8,1.2c-0.4,1.5-0.9,2.5-1.6,3c-0.5,0.2-1.2,0.4-2.2,0.4c-2.2,0.1-4.5,0.2-6.7,0.2h-1.1
			c-0.8,0-1.4-0.1-1.9-0.3c-1.3-0.1-2-1.1-2-3v-0.5h-5.8v1.2h-3.1v-10.5H223.9z M204.5,264.1h6.8v2.3h-6.8V264.1z M204.5,266.9h6.8
			v2.3h-6.8V266.9z M205.9,273.3h5.8v-0.8h-5.8V273.3z M205.9,276.4h5.8v-0.8h-5.8V276.4z M214.9,272.5v0.8h5.8v-0.8H214.9z
			 M214.9,275.7v0.8h5.8v-0.8H214.9z M215.7,264.1h7v2.3h-7V264.1z M215.7,266.9h7v2.3h-7V266.9z"/>
		<path class="st12" d="M232.3,258.2h21.3v3c-2.7,2.5-6,4.7-9.7,6.5v0.8h11v3.2h-11v7.5c0,1.5-0.3,2.5-0.9,3
			c-0.6,0.6-1.7,0.8-3.2,0.8c-1.1,0-2.2-0.1-3.2-0.2l-0.5-3.7c1.2,0.4,2.4,0.5,3.7,0.5c0.2,0,0.4-0.1,0.6-0.2
			c0.1-0.2,0.2-0.6,0.2-1.1v-6.6h-10.7v-3.2h10.7v-3.8l1.6,0.2c2.2-1,4.3-2.1,6.1-3.4h-16V258.2z"/>
		<path class="st12" d="M269.1,257.2h3.4v2h10.7v3h-6.1c-0.2,0.8-0.5,1.6-0.7,2.2h5.8V279c0,2.6-1.4,3.9-4.3,3.9
			c-0.7,0-1.5-0.1-2.5-0.2l-0.7-3.3c1.2,0.3,2.2,0.4,3.1,0.4c0.7,0,1.1-0.5,1.1-1.5v-10.7h-4.7v0.4c0,0.6,0.1,0.9,0.2,1
			c0.1,0.2,0.4,0.2,0.6,0.2c0.2,0,0.3,0,0.4,0c0.1,0,0.1-0.1,0.2-0.2c0.1-0.1,0.1-0.5,0.1-1.1l2.9,1.3c-0.1,0.7-0.2,1.3-0.4,1.9
			c-0.1,0.4-0.4,0.6-0.9,0.7c-0.5,0.1-1.2,0.1-2.3,0.1c-1.2,0-2-0.1-2.2-0.3c-1.1-0.1-1.6-1-1.6-2.6v-1.4h-2.5
			c-0.2,1.6-0.6,2.7-1.4,3.5c-0.5,0.4-1,0.8-1.6,1.2h10.7v6.9h-8.9v1.6h-3.1v-7.9c-0.4,0.1-0.8,0.3-1.1,0.4l-1-2.1v11.8h-3.2v-18.4
			h5.2c-0.1-0.8-0.3-1.5-0.5-2.2h-5.8v-3h10.8V257.2z M262.4,270.3c1.2-0.4,2.1-0.8,2.6-1.3c0.4-0.4,0.6-0.9,0.8-1.5h-3.4V270.3z
			 M267.9,264.5h5.3c0.2-0.7,0.4-1.5,0.6-2.2h-6.3C267.6,263,267.8,263.7,267.9,264.5z M267.6,276.3h5.8V275h-5.8V276.3z"/>
		<path class="st12" d="M287,258h11.7v2.8c-1,1.4-2.2,2.6-3.5,3.7c0.4,0.3,0.7,0.5,0.9,0.7l-0.7,0.9h3.6v2.3c0,0.1-0.1,0.2-0.1,0.3
			c1.4-0.5,2.6-1.1,3.7-1.8c-0.8-0.7-1.5-1.6-2.1-2.5c-0.3,0.4-0.7,0.8-1.1,1.2l-2-2.2c0.9-1,1.7-1.9,2.2-2.9
			c0.7-1.1,1.2-2.2,1.5-3.3l3,0.7c-0.2,0.5-0.4,1-0.6,1.4h8.6v3h-2.3c-0.4,1.7-1.1,3.1-2,4.3c1.5,0.8,3,1.4,4.7,1.9l-1.4,3
			c-2.1-0.6-4.1-1.4-5.8-2.5c-0.6,0.4-1.3,0.9-2,1.2h1.8c0,0.8-0.1,1.5-0.1,2.1h6.3c0,4.1-0.3,7.1-0.8,9.2c-0.1,0.5-0.5,0.8-1,1.1
			c-0.6,0.3-1.2,0.4-2,0.4c-0.7,0-1.5-0.1-2.5-0.3l-0.4-3.2c1.1,0.4,2.1,0.5,2.8,0.5c0.1,0,0.2,0,0.3-0.1c0.1-0.1,0.1-0.3,0.2-0.6
			c0.1-1.2,0.2-2.5,0.2-3.9h-3.5c-0.3,1.3-0.6,2.4-1.1,3.2c-1.1,1.9-2.8,3.4-5,4.5l-1.8-2.9c1.9-1,3.2-2.1,4-3.6
			c0.2-0.4,0.4-0.8,0.6-1.2h-3.1v-3h3.7c0-0.5,0-1,0.1-1.4c-0.6,0.3-1.3,0.6-2,0.8l-1.4-1.9c-0.5,1.2-1,2.2-1.6,3l-2.3-1.4
			c0.4-0.8,0.7-1.6,1-2.5h-1.2v9.7c0,1.6-0.2,2.6-0.6,3.2c-0.5,0.6-1.3,1-2.5,1c-0.9,0-1.8-0.1-2.6-0.4l-0.5-3.2
			c0.9,0.3,1.8,0.4,2.7,0.4c0.2,0,0.3-0.1,0.4-0.3c0.1-0.3,0.1-0.8,0.1-1.4v-3.7c-0.9,1.4-1.9,2.7-3,3.9l-2.3-2.3
			c2.2-2.1,3.8-4.3,4.9-6.8h-4.5v-2.9h5.2c-1.2-0.9-2.5-1.7-3.8-2.3l2.1-2.2c0.8,0.4,1.6,0.7,2.3,1.2c0.7-0.5,1.4-1.1,2-1.6H287V258
			z M302.5,262.2c0.7,1,1.6,1.9,2.5,2.6c0.7-0.7,1.1-1.6,1.5-2.6H302.5z"/>
		<path class="st12" d="M326.9,257.1h3.4v1.6h9.6v2.7h-3.6l0.7,1.4c-1,0.3-2,0.7-3,1c1.1,0.3,2.1,0.7,3.1,1l-1.1,1.6h3.7v2.9h-18.7
			v3.5c0,1.9-0.3,3.8-0.9,5.8c-0.4,1.6-1.1,3.1-1.8,4.5l-2.8-2c0.7-1.1,1.3-2.4,1.8-3.9c0.4-1.4,0.6-2.8,0.6-4.3v-6.3h2.9l-0.7-1.9
			c1.4-0.2,2.7-0.4,4-0.7c-1.2-0.3-2.5-0.6-3.8-0.8l0.8-1.6H318v-2.7h8.9V257.1z M324,269.5l2.7,0.9c-0.1,0.4-0.2,0.7-0.4,1h3.2
			v-1.6h3.1v1.6h6.2v2.8h-6.2v1.4h5.6v2.7h-5.6v1.4h7.1v2.8h-18.6v-2.8h8.4v-1.4h-6.4v-2.7h6.4v-1.4h-4.7c-0.2,0.4-0.5,0.8-0.8,1.1
			l-2.7-1.6C322.5,272.5,323.4,271.1,324,269.5z M329.2,265.1c-1.9,0.5-3.9,0.9-5.9,1.3h10.1C332.1,265.9,330.7,265.5,329.2,265.1z
			 M329.5,262.5c1.3-0.4,2.6-0.8,3.9-1.1h-8.6C326.4,261.7,328,262.1,329.5,262.5z"/>
		<path class="st12" d="M349.8,266l-0.6-1.8h-5v-2.9h2.9c-0.4-0.6-0.8-1.2-1.3-1.8l2.7-1.6c0.8,0.9,1.4,1.8,1.9,2.8l-1.1,0.7h2.7v-4
			h3.2v4h2.5v-4h3.1v4h1.4c0.5-1.1,0.9-2.2,1.3-3.3l3.5,1c-0.4,0.9-0.8,1.7-1.2,2.3h3.3v2.9h-5.5l-0.7,1.8h5.4v3H358v1h8.8v2.9H358
			v1H369v3h-7c0.5,0.2,0.9,0.4,1.4,0.6c1.6,0.6,3.5,1.1,5.7,1.5l-1.8,3.5c-2.3-0.7-4.4-1.6-6.4-2.8c-1.1-0.6-2-1.3-3-2v5.3h-3.3
			v-5.2c-0.9,0.7-1.8,1.4-2.7,2c-2.5,1.4-4.7,2.3-6.5,2.8l-1.7-3c1.8-0.4,3.7-1.1,5.6-1.9c0.6-0.2,1.1-0.5,1.6-0.7h-6.8v-3h10.6v-1
			h-8.2V270h8.2v-1h-9.4v-3H349.8z M359.9,264.1h-7.3l0.6,1.8h6L359.9,264.1z"/>
		<path class="st12" d="M376.8,261.3c0.7,0.5,1.4,1.1,2,1.8c1.1-0.8,2.1-1.6,3-2.6h-8.3v-2.9H386v1.1c0.5,0.4,1,0.8,1.5,1.1
			c1.3-0.7,2.5-1.5,3.6-2.5l2.3,1.9c-0.9,0.9-2,1.7-3.1,2.4c0.5,0.3,0.9,0.5,1.4,0.8c1.1-0.7,2.1-1.5,3.1-2.5l2.6,2
			c-0.8,0.8-1.6,1.5-2.5,2.1c1.1,0.5,2.2,0.9,3.3,1.3l-1.6,3c-1.2-0.4-2.3-0.9-3.3-1.5v1c0,0.7,0.1,1.1,0.2,1.3
			c0.1,0,0.2,0.1,0.4,0.1c0.1,0,0.2,0,0.3,0c0.1,0,0.2,0,0.2-0.1c0.1-0.1,0.1-0.4,0.2-1l3,1.5c-0.1,1.2-0.5,1.9-1.1,2.2
			c-0.3,0.1-0.7,0.2-1.1,0.3c-0.6,0-1.1,0.1-1.6,0.1c-1.4,0-2.2-0.1-2.5-0.4c-0.8-0.1-1.2-1.1-1.2-3v-0.8H388
			c-0.2,1.4-0.5,2.4-1,3.1c-0.5,0.6-1.2,1.2-2.2,1.6h11.5v2.2c-0.9,1.7-1.9,3-3.1,4.1c1.3,0.5,2.7,0.8,4.4,1l-1.2,3.3
			c-2.4-0.4-4.5-1.1-6.2-2.1c-1.8,1-3.8,1.7-6,2.2l-1.6-2.9c1.9-0.3,3.5-0.8,4.9-1.3c-1-1-1.8-2.2-2.6-3.6h-1.3v-2.9h0.5l-1.2-2.3
			v2.7h-6l-0.2,1.4h6.6c-0.3,4-0.8,6.5-1.6,7.4c-0.7,0.9-1.8,1.3-3.2,1.3c-0.9,0-1.9-0.1-3-0.4l-0.8-3.3c1.3,0.2,2.4,0.3,3.2,0.3
			c0.7,0,1.1-0.1,1.4-0.3c0.4-0.3,0.7-1,0.9-2.1h-3.8l-0.1,0.5h-3.2l0.9-7.8h5.8V268H377v-0.6c-1.4,0.7-2.8,1.2-4.2,1.4l-1-2.5
			c1.3-0.4,2.6-0.9,3.8-1.4c-0.5-0.6-1.1-1.1-1.7-1.7L376.8,261.3z M382.9,269.5c0.6-0.3,1.1-0.6,1.4-1.1c0.4-0.6,0.6-1.8,0.6-3.8
			h4.8c-1.7-1-3.2-2.1-4.7-3.2c-1.4,1.5-2.7,2.7-4.1,3.7h2V269.5z M388.4,275.2c0.6,0.8,1.3,1.4,2.1,2c0.8-0.6,1.5-1.3,2-2H388.4z"
			/>
		<path class="st12" d="M420.6,271.5h5.6v3h-2.7l1.3,2.1c-1,0.6-2.1,1.1-3.1,1.5c1.3,0.7,2.9,1.2,4.8,1.6l-1.7,3.3
			c-2.7-0.8-5.1-2-7-3.6c-1.6-1.3-2.9-3-3.9-4.8h-2v4.3c1.2-0.2,2.3-0.3,3.3-0.5l0.9,2.8c-2.6,0.6-5.6,1.2-9,1.7l-1.4-3.1
			c1-0.1,2-0.2,2.9-0.3v-4.8h-3c-0.1,0.8-0.2,1.5-0.4,2.3c-0.4,1.9-1,3.8-1.9,5.8l-2.8-1.7c0.9-2.5,1.5-4.6,1.8-6.3
			c0.3-2.2,0.5-4.4,0.5-6.6v-10.6h22v7.3h-4.3v1.8h4.3v3h-4.3V271.5z M405.9,264.7v4.8c0,0.7,0,1.4-0.1,2h4.3v-2h-3.7v-3h3.7v-1.8
			H405.9z M421.8,260.5h-15.8v1.2h15.8V260.5z M417.4,266.5v-1.8h-4.1v1.8H417.4z M413.3,271.5h4.1v-2h-4.1V271.5z M418.7,276.2
			c1.1-0.5,2.1-1,3-1.7h-4.6C417.6,275.2,418.1,275.7,418.7,276.2z"/>
		<path class="st12" d="M428.9,263.2h2.5v-5.9h3.2v5.9h2.2v3.2h-2.2v13.2c1-1,1.8-2,2.3-3.2c0.4-1,0.7-2.1,0.8-3.2h-2.2v-3h2.2v-1.5
			h3.2v1.5h4.2c0,4.7-0.1,7.9-0.4,9.4c0.9-1,1.6-2,2.1-3.2c0.4-1,0.6-2.1,0.7-3.1h-2v-3.1h2v-1.5h3.2v1.5h4.4
			c0,4.7-0.3,8.2-0.8,10.6c-0.1,0.5-0.5,1-1,1.3c-0.6,0.3-1.2,0.4-2,0.4c-0.6,0-1.2-0.1-1.9-0.2l-0.3-3c-0.8,1.5-1.8,2.7-3,3.7
			l-1.6-2.6c-0.2,0.8-0.6,1.4-1.1,1.6c-0.6,0.3-1.3,0.5-2.3,0.5c-0.5,0-1-0.1-1.5-0.2l-0.6-3c-0.9,1.4-1.9,2.6-3,3.5l-1.3-2.2v2.5
			h-3.2v-16.5h-2.5V263.2z M437.9,259h5.4c0.1-0.6,0.1-1.2,0.1-1.8h3.3c0,0.7,0,1.3-0.1,1.8h7.4c-0.2,4.2-0.6,6.8-1.3,7.8
			c-0.6,0.9-1.4,1.3-2.5,1.3c-1.1,0-2.3-0.1-3.7-0.3l-0.7-3.1c1.5,0.2,2.8,0.4,3.8,0.4c0.3,0,0.5-0.1,0.6-0.4
			c0.1-0.4,0.3-1.2,0.3-2.5h-4.4c-0.3,1.4-0.8,2.4-1.5,3.1c-1.2,1.2-2.9,2.3-5.2,3.2l-1.8-2.8c1.8-0.7,3.2-1.5,4.2-2.4
			c0.3-0.3,0.5-0.6,0.7-1.1h-4.6V259z M440.8,273.2c-0.1,2-0.6,3.8-1.4,5.4c-0.1,0.1-0.1,0.2-0.2,0.4c0.7,0.3,1.4,0.4,2,0.4
			c0.3,0,0.5-0.1,0.6-0.3c0.1-0.2,0.2-0.5,0.2-1.1c0.1-1.1,0.1-2.7,0.1-4.8H440.8z M450.6,273.3c-0.1,2-0.5,3.8-1.3,5.4
			c0,0.1,0,0.1-0.1,0.1c0.8,0.3,1.5,0.4,2,0.4c0.1,0,0.2-0.1,0.3-0.2c0.1-0.1,0.1-0.4,0.2-0.8c0.1-1.5,0.2-3.2,0.2-4.9H450.6z"/>
		<path class="st12" d="M470.5,256.7l1.8,1.5c1.7,0.7,3.3,1.4,5,2c2.2,0.7,4.3,1.3,6.4,1.8l-1.6,3c-0.3-0.1-0.6-0.2-0.9-0.3v8.1
			h-21.4v-7.8c-0.3,0.1-0.5,0.2-0.8,0.3l-1.6-2.9C462.2,260.9,466.5,259.1,470.5,256.7z M480.3,273.4v9.6h-3.1v-0.6h-12.9v0.6h-3.2
			v-9.6H480.3z M461.3,264.4h18.9c-1.5-0.5-2.9-1-4.2-1.5v0.9h-11.3V263C463.6,263.5,462.5,264,461.3,264.4z M462.9,270h2
			c-0.3-0.7-0.7-1.3-1.1-1.8l1.6-1h-2.5V270z M464.3,276.8h12.9v-0.7h-12.9V276.8z M464.3,279.8h12.9v-0.6h-12.9V279.8z
			 M466.7,267.2c0.4,0.6,0.8,1.3,1.1,2l-1.4,0.8h2.4v-2.8H466.7z M468.4,261.3h4.1c-0.7-0.4-1.4-0.7-2.1-1.1
			C469.7,260.6,469,260.9,468.4,261.3z M471.8,267.2v2.8h2.2l-1.1-0.6c0.5-0.7,0.8-1.5,1.1-2.2H471.8z M475.2,267.2l1.9,0.6
			c-0.3,0.8-0.7,1.6-1,2.1h2v-2.8H475.2z"/>
	</g>
</g>
</svg>
